M48
;Layer_Color=9474304
;FILE_FORMAT=2:5
INCH,LZ
;TYPE=PLATED
T1F00S00C0.01000
T2F00S00C0.01968
T3F00S00C0.02756
T4F00S00C0.03346
T5F00S00C0.03740
%
T01
X0083465Y0018898
X0197638Y0068504
Y0087795
X0198819Y0091339
X02Y0104331
X0196457Y0116929
X022874Y0109449
X0227953Y0088583
X0226378Y0084252
X0229528Y0081496
X0227953Y0065748
X0229921Y0133858
X0224803Y0137008
X0240551
Y0143701
X0239764Y0125197
X0238976Y0186614
X0249213Y0193701
X0179921Y0157087
X0160236Y0151969
Y0133071
X0165748Y0126378
X0179921Y0122047
X0183465Y0119685
X0187008Y0118504
X0191732Y0104724
X0186614Y0091732
X0187402Y0082284
X016811Y0069291
X0144882Y0063779
X0125197Y0068504
X0130315Y0075984
X010748Y0079921
X0107087Y0085827
X009685Y0086221
X0094095Y0100394
X0103543
X010315Y0126378
X0074803Y0116929
X0060236Y0117717
X006063Y0112205
X005748Y0106693
Y01
X0051575Y0103543
X0038976Y0108268
X0038583Y0090945
X0059449
X0077559Y0094095
Y0098819
X0086221Y0073622
X0084252Y005
X0110236Y0051968
X0105905Y0056299
X0038976
X0046063Y0073622
X0048031Y0122835
X0074803Y0155118
X0092126Y0157087
Y0163386
X0112205Y0166929
X0105905Y0182677
X0108661Y0186221
X0109843Y0189764
X01
X0136221Y0182677
X0144882Y0175197
X013937Y0167323
X0137402Y0119685
X0140157Y0196063
X0148031Y0198819
X010315Y0196063
T02
X0099606Y0018898
X0127165Y0016929
X0208805Y0085748
X0180315Y0070472
X0117323Y0056693
X0079528Y0052362
T03
X0009236Y0144074
X0011236
X0020836Y0147574
Y0148574
Y0167174
Y0168174
X0011236Y0171674
X0009236
T04
X0097087Y0008661
X0107087
X0117087
X0127087
X0137087
X0147087
X0157087
X0167087
X0179134
X0189134
X0199134
X0209134
X0219134
X0229134
X0188031Y0206299
X0178032
X0168032
X0158031
X0148031
X0138031
X0128032
X0118032
X0108031
X0098032
X0199213
X0209213
X0219213
X0229213
X0239213
X0249213
X0259213
X0269213
T05
X024748Y0103543
X025748
X025748Y0113543
X024748
X024748Y0123543
X025748
M30
