G04*
G04 #@! TF.GenerationSoftware,Altium Limited,Altium Designer,22.2.1 (43)*
G04*
G04 Layer_Color=16711935*
%FSLAX25Y25*%
%MOIN*%
G70*
G04*
G04 #@! TF.SameCoordinates,7339C814-AE53-45AD-ACDF-668E24E4BB01*
G04*
G04*
G04 #@! TF.FilePolarity,Negative*
G04*
G01*
G75*
%ADD76C,0.00800*%
%ADD77P,0.17912X8X202.5*%
%ADD78P,0.17912X8X112.5*%
%ADD79P,0.06927X8X292.5*%
%ADD81P,0.07471X8X292.5*%
%ADD82C,0.02800*%
%ADD93C,0.06400*%
D76*
X20836Y148574D02*
D03*
Y147574D02*
D03*
X9236Y171674D02*
D03*
X20836Y167174D02*
D03*
X11236Y171674D02*
D03*
X20836Y168174D02*
D03*
X9236Y144074D02*
D03*
X11236D02*
D03*
D77*
X29921Y10630D02*
D03*
D78*
X41721Y30330D02*
D03*
X18121D02*
D03*
D79*
X188031Y206299D02*
D03*
X178032D02*
D03*
X168032D02*
D03*
X158031D02*
D03*
X148031D02*
D03*
X138031D02*
D03*
X128032D02*
D03*
X118032D02*
D03*
X108031D02*
D03*
X98032D02*
D03*
X229134Y8661D02*
D03*
X219134D02*
D03*
X209134D02*
D03*
X199134D02*
D03*
X189134D02*
D03*
X179134D02*
D03*
X107087D02*
D03*
X117087D02*
D03*
X127087D02*
D03*
X137087D02*
D03*
X147087D02*
D03*
X157087D02*
D03*
X167087D02*
D03*
X259213Y206299D02*
D03*
X249213D02*
D03*
X239213D02*
D03*
X229213D02*
D03*
X219213D02*
D03*
X209213D02*
D03*
X199213D02*
D03*
D81*
X247480Y123543D02*
D03*
X257480D02*
D03*
X247480Y113543D02*
D03*
X257480D02*
D03*
X247480Y103543D02*
D03*
X257480D02*
D03*
D82*
X165748Y126378D02*
D03*
X240551Y137008D02*
D03*
Y143701D02*
D03*
X224803Y137008D02*
D03*
X227953Y65748D02*
D03*
X226378Y84252D02*
D03*
X110236Y51968D02*
D03*
X125197Y68504D02*
D03*
X103543Y100394D02*
D03*
X94095D02*
D03*
X105905Y56299D02*
D03*
X179921Y157087D02*
D03*
X160236Y151969D02*
D03*
D93*
X97087Y8661D02*
D03*
X269213Y206299D02*
D03*
M02*
