G04*
G04 #@! TF.GenerationSoftware,Altium Limited,Altium Designer,22.2.1 (43)*
G04*
G04 Layer_Color=16711935*
%FSLAX25Y25*%
%MOIN*%
G70*
G04*
G04 #@! TF.SameCoordinates,7339C814-AE53-45AD-ACDF-668E24E4BB01*
G04*
G04*
G04 #@! TF.FilePolarity,Positive*
G04*
G01*
G75*
%ADD10C,0.01000*%
%ADD13C,0.00600*%
D10*
X0Y236221D02*
X6000Y238221D01*
X0Y236221D02*
X6000Y234221D01*
X269590D02*
X275590Y236221D01*
X269590Y238221D02*
X275590Y236221D01*
X0D02*
X107661D01*
X164844D02*
X275590D01*
X0Y216535D02*
Y237221D01*
X275590Y235221D02*
Y237221D01*
X-22047Y216535D02*
X-20047Y210535D01*
X-24047D02*
X-22047Y216535D01*
X-24047Y6000D02*
X-22047Y0D01*
X-20047Y6000D01*
X-22047Y135259D02*
Y216535D01*
Y0D02*
Y78076D01*
X-23047Y216535D02*
X0D01*
X-23047Y0D02*
X-19685D01*
D13*
X109261Y239275D02*
X113260D01*
Y238276D01*
X109261Y234277D01*
Y233277D01*
X115260Y238276D02*
X116259Y239275D01*
X118259D01*
X119258Y238276D01*
Y234277D01*
X118259Y233277D01*
X116259D01*
X115260Y234277D01*
Y238276D01*
X121257Y233277D02*
Y234277D01*
X122257D01*
Y233277D01*
X121257D01*
X126256Y238276D02*
X127256Y239275D01*
X129255D01*
X130255Y238276D01*
Y234277D01*
X129255Y233277D01*
X127256D01*
X126256Y234277D01*
Y238276D01*
X132254D02*
X133254Y239275D01*
X135253D01*
X136253Y238276D01*
Y234277D01*
X135253Y233277D01*
X133254D01*
X132254Y234277D01*
Y238276D01*
X146249Y233277D02*
X144250Y235277D01*
Y237276D01*
X146249Y239275D01*
X149249Y233277D02*
Y237276D01*
X150248D01*
X151248Y236276D01*
Y233277D01*
Y236276D01*
X152248Y237276D01*
X153247Y236276D01*
Y233277D01*
X155246D02*
Y237276D01*
X156246D01*
X157246Y236276D01*
Y233277D01*
Y236276D01*
X158246Y237276D01*
X159245Y236276D01*
Y233277D01*
X161245D02*
X163244Y235277D01*
Y237276D01*
X161245Y239275D01*
X-24446Y83675D02*
Y79676D01*
X-21447D01*
X-22447Y81676D01*
Y82675D01*
X-21447Y83675D01*
X-19448D01*
X-18448Y82675D01*
Y80676D01*
X-19448Y79676D01*
X-24446Y89673D02*
Y85675D01*
X-21447D01*
X-22447Y87674D01*
Y88674D01*
X-21447Y89673D01*
X-19448D01*
X-18448Y88674D01*
Y86674D01*
X-19448Y85675D01*
X-18448Y91673D02*
X-19448D01*
Y92672D01*
X-18448D01*
Y91673D01*
X-23447Y96671D02*
X-24446Y97671D01*
Y99670D01*
X-23447Y100670D01*
X-19448D01*
X-18448Y99670D01*
Y97671D01*
X-19448Y96671D01*
X-23447D01*
Y102669D02*
X-24446Y103669D01*
Y105668D01*
X-23447Y106668D01*
X-19448D01*
X-18448Y105668D01*
Y103669D01*
X-19448Y102669D01*
X-23447D01*
X-18448Y116665D02*
X-20448Y114665D01*
X-22447D01*
X-24446Y116665D01*
X-18448Y119664D02*
X-22447D01*
Y120663D01*
X-21447Y121663D01*
X-18448D01*
X-21447D01*
X-22447Y122662D01*
X-21447Y123662D01*
X-18448D01*
Y125662D02*
X-22447D01*
Y126661D01*
X-21447Y127661D01*
X-18448D01*
X-21447D01*
X-22447Y128661D01*
X-21447Y129660D01*
X-18448D01*
Y131660D02*
X-20448Y133659D01*
X-22447D01*
X-24446Y131660D01*
M02*
