G04*
G04 #@! TF.GenerationSoftware,Altium Limited,Altium Designer,22.2.1 (43)*
G04*
G04 Layer_Color=8388736*
%FSLAX25Y25*%
%MOIN*%
G70*
G04*
G04 #@! TF.SameCoordinates,7339C814-AE53-45AD-ACDF-668E24E4BB01*
G04*
G04*
G04 #@! TF.FilePolarity,Negative*
G04*
G01*
G75*
%ADD11C,0.00500*%
%ADD46C,0.08600*%
%ADD47C,0.04000*%
%ADD48R,0.04737X0.04737*%
%ADD49R,0.02572X0.06312*%
%ADD50R,0.06312X0.02572*%
%ADD51R,0.06100X0.02400*%
%ADD52R,0.06900X0.07300*%
%ADD53R,0.04800X0.06800*%
%ADD54R,0.06800X0.06800*%
%ADD55R,0.04934X0.05918*%
%ADD56R,0.02965X0.05524*%
%ADD57R,0.19800X0.19800*%
%ADD58R,0.01883X0.03753*%
%ADD59R,0.03753X0.01883*%
%ADD60R,0.05524X0.05524*%
%ADD61R,0.03900X0.04300*%
%ADD62R,0.07099X0.06312*%
%ADD63R,0.04337X0.05131*%
%ADD64R,0.05131X0.04337*%
%ADD65R,0.05524X0.04737*%
%ADD66R,0.05524X0.01981*%
%ADD67R,0.14973X0.09461*%
%ADD68R,0.05600X0.09600*%
%ADD69R,0.08280X0.14186*%
%ADD70R,0.10249X0.10249*%
%ADD71R,0.07887X0.06312*%
%ADD72R,0.04337X0.05131*%
%ADD73R,0.10249X0.07099*%
%ADD74R,0.07099X0.10249*%
%ADD75R,0.05131X0.04337*%
%ADD76C,0.00800*%
%ADD77P,0.17912X8X202.5*%
%ADD78P,0.17912X8X112.5*%
%ADD79P,0.06927X8X292.5*%
%ADD80R,0.06400X0.06400*%
%ADD81P,0.07471X8X292.5*%
%ADD82C,0.02800*%
D11*
X245669Y59055D02*
G03*
X245669Y59055I-5906J0D01*
G01*
D46*
X241732D02*
G03*
X241732Y59055I-1969J0D01*
G01*
D47*
X239764D02*
D03*
D48*
X158661Y98032D02*
D03*
X39764Y155118D02*
D03*
X31890D02*
D03*
X39764Y128248D02*
D03*
X31890D02*
D03*
D49*
X174409Y75197D02*
D03*
X171259Y75197D02*
D03*
X168110Y75197D02*
D03*
X164960D02*
D03*
X161811D02*
D03*
X158661Y75197D02*
D03*
X155511Y75197D02*
D03*
X152362D02*
D03*
X149212D02*
D03*
X146063Y75197D02*
D03*
X142913Y75197D02*
D03*
Y120867D02*
D03*
X146063D02*
D03*
X149212D02*
D03*
X152362D02*
D03*
X155511D02*
D03*
X158661D02*
D03*
X161811D02*
D03*
X164960D02*
D03*
X168110D02*
D03*
X171259D02*
D03*
X174409D02*
D03*
D50*
X135826Y82284D02*
D03*
Y85434D02*
D03*
Y88582D02*
D03*
Y91733D02*
D03*
Y94883D02*
D03*
Y98032D02*
D03*
Y101181D02*
D03*
Y104331D02*
D03*
Y107481D02*
D03*
Y110631D02*
D03*
Y113779D02*
D03*
X181496D02*
D03*
Y110631D02*
D03*
Y107481D02*
D03*
Y104331D02*
D03*
Y101181D02*
D03*
Y98032D02*
D03*
Y94883D02*
D03*
Y91733D02*
D03*
Y88582D02*
D03*
Y85434D02*
D03*
Y82284D02*
D03*
D51*
X20836Y163074D02*
D03*
Y160474D02*
D03*
Y157874D02*
D03*
Y155274D02*
D03*
Y152674D02*
D03*
D52*
X10236Y170874D02*
D03*
Y144874D02*
D03*
D53*
X20836Y167674D02*
D03*
Y148074D02*
D03*
D54*
X10236Y161874D02*
D03*
Y153874D02*
D03*
D55*
X173721Y148228D02*
D03*
Y157283D02*
D03*
X166437D02*
D03*
Y148228D02*
D03*
D56*
X99606Y38583D02*
D03*
X92126D02*
D03*
Y48819D02*
D03*
X95866Y48819D02*
D03*
X99606Y48819D02*
D03*
D57*
X158268Y97638D02*
D03*
D58*
X168111Y84744D02*
D03*
X166142D02*
D03*
X164174D02*
D03*
X162205D02*
D03*
X160236D02*
D03*
X158268Y84744D02*
D03*
X156299Y84744D02*
D03*
X154331D02*
D03*
X152362D02*
D03*
X150394D02*
D03*
X148425D02*
D03*
Y110532D02*
D03*
X150394D02*
D03*
X152362D02*
D03*
X154331D02*
D03*
X156299D02*
D03*
X158268Y110532D02*
D03*
X160236Y110532D02*
D03*
X162205D02*
D03*
X164174D02*
D03*
X166142D02*
D03*
X168111D02*
D03*
D59*
X145374Y87796D02*
D03*
Y89764D02*
D03*
Y91733D02*
D03*
Y93701D02*
D03*
Y95670D02*
D03*
X145374Y97638D02*
D03*
X145374Y99607D02*
D03*
Y101575D02*
D03*
Y103544D02*
D03*
Y105512D02*
D03*
Y107481D02*
D03*
X171162D02*
D03*
Y105512D02*
D03*
Y103544D02*
D03*
Y101575D02*
D03*
Y99607D02*
D03*
X171162Y97638D02*
D03*
X171162Y95670D02*
D03*
Y93701D02*
D03*
Y91733D02*
D03*
Y89764D02*
D03*
Y87796D02*
D03*
D60*
X16142Y90420D02*
D03*
X7874D02*
D03*
X16142Y107874D02*
D03*
X7874D02*
D03*
X16339Y56693D02*
D03*
X8071D02*
D03*
X16142Y72966D02*
D03*
X7874D02*
D03*
D61*
X57951Y138779D02*
D03*
X65551D02*
D03*
X61751Y146780D02*
D03*
D62*
X39370Y202756D02*
D03*
X6299Y211614D02*
D03*
X39370D02*
D03*
X6299Y193898D02*
D03*
X39370D02*
D03*
D63*
X79431Y132805D02*
D03*
X86431D02*
D03*
X86331Y141992D02*
D03*
X79331D02*
D03*
X32534Y56299D02*
D03*
X25534D02*
D03*
X32240Y108268D02*
D03*
X25240D02*
D03*
X32534Y90945D02*
D03*
X25534D02*
D03*
X32534Y72703D02*
D03*
X25534D02*
D03*
X39327Y137405D02*
D03*
X32327D02*
D03*
X39327Y146361D02*
D03*
X32327D02*
D03*
X214216Y94095D02*
D03*
X221217D02*
D03*
X221467Y65706D02*
D03*
X214467D02*
D03*
X166185Y133071D02*
D03*
X173185D02*
D03*
X173185Y140554D02*
D03*
X166185D02*
D03*
D64*
X189370Y140858D02*
D03*
Y133858D02*
D03*
D65*
X40208Y119291D02*
D03*
X31546D02*
D03*
X222841Y75003D02*
D03*
X214179D02*
D03*
D66*
X71506Y130807D02*
D03*
Y128247D02*
D03*
Y125689D02*
D03*
Y123129D02*
D03*
X54872D02*
D03*
Y125689D02*
D03*
Y128247D02*
D03*
Y130807D02*
D03*
D67*
X70472Y85429D02*
D03*
D68*
X79572Y61028D02*
D03*
X70472D02*
D03*
X61372D02*
D03*
D69*
X33662Y170472D02*
D03*
X49016D02*
D03*
D70*
X63779Y46851D02*
D03*
Y29528D02*
D03*
D71*
X199213Y134252D02*
D03*
Y147638D02*
D03*
D72*
X99126Y59055D02*
D03*
X92126D02*
D03*
X86431Y123425D02*
D03*
X79431D02*
D03*
X79331Y150984D02*
D03*
X86331D02*
D03*
X92606Y29921D02*
D03*
X99606D02*
D03*
X67716Y160236D02*
D03*
X60716D02*
D03*
X220823Y101969D02*
D03*
X213823D02*
D03*
X214467Y56299D02*
D03*
X221467D02*
D03*
X214216Y84252D02*
D03*
X221217D02*
D03*
D73*
X95669Y68110D02*
D03*
Y79922D02*
D03*
X80315Y42913D02*
D03*
Y31102D02*
D03*
D74*
X74410Y172047D02*
D03*
X62598D02*
D03*
D75*
X151575Y145976D02*
D03*
Y138976D02*
D03*
X181102Y133902D02*
D03*
Y140902D02*
D03*
X209055Y140508D02*
D03*
Y133508D02*
D03*
X217717Y140508D02*
D03*
Y133508D02*
D03*
D76*
X20836Y148574D02*
D03*
Y147574D02*
D03*
X9236Y171674D02*
D03*
X20836Y167174D02*
D03*
X11236Y171674D02*
D03*
X20836Y168174D02*
D03*
X9236Y144074D02*
D03*
X11236D02*
D03*
D77*
X29921Y10630D02*
D03*
D78*
X41721Y30330D02*
D03*
X18121D02*
D03*
D79*
X188031Y206299D02*
D03*
X178032D02*
D03*
X168032D02*
D03*
X158031D02*
D03*
X148031D02*
D03*
X138031D02*
D03*
X128032D02*
D03*
X118032D02*
D03*
X108031D02*
D03*
X98032D02*
D03*
X229134Y8661D02*
D03*
X219134D02*
D03*
X209134D02*
D03*
X199134D02*
D03*
X189134D02*
D03*
X179134D02*
D03*
X107087D02*
D03*
X117087D02*
D03*
X127087D02*
D03*
X137087D02*
D03*
X147087D02*
D03*
X157087D02*
D03*
X167087D02*
D03*
X259213Y206299D02*
D03*
X249213D02*
D03*
X239213D02*
D03*
X229213D02*
D03*
X219213D02*
D03*
X209213D02*
D03*
X199213D02*
D03*
D80*
X97087Y8661D02*
D03*
X269213Y206299D02*
D03*
D81*
X247480Y123543D02*
D03*
X257480D02*
D03*
X247480Y113543D02*
D03*
X257480D02*
D03*
X247480Y103543D02*
D03*
X257480D02*
D03*
D82*
X165748Y126378D02*
D03*
X240551Y137008D02*
D03*
Y143701D02*
D03*
X224803Y137008D02*
D03*
X227953Y65748D02*
D03*
X226378Y84252D02*
D03*
X110236Y51968D02*
D03*
X125197Y68504D02*
D03*
X103543Y100394D02*
D03*
X94095D02*
D03*
X105905Y56299D02*
D03*
X179921Y157087D02*
D03*
X160236Y151969D02*
D03*
M02*
