G04*
G04 #@! TF.GenerationSoftware,Altium Limited,Altium Designer,22.2.1 (43)*
G04*
G04 Layer_Color=255*
%FSLAX25Y25*%
%MOIN*%
G70*
G04*
G04 #@! TF.SameCoordinates,7339C814-AE53-45AD-ACDF-668E24E4BB01*
G04*
G04*
G04 #@! TF.FilePolarity,Positive*
G04*
G01*
G75*
%ADD84P,0.17046X8X202.5*%
%ADD85P,0.17046X8X112.5*%
%ADD86P,0.06061X8X292.5*%
%ADD88P,0.06605X8X292.5*%
%ADD92C,0.05600*%
D84*
X29921Y10630D02*
D03*
D85*
X41721Y30330D02*
D03*
X18121D02*
D03*
D86*
X188031Y206299D02*
D03*
X178032D02*
D03*
X168032D02*
D03*
X158031D02*
D03*
X148031D02*
D03*
X138031D02*
D03*
X128032D02*
D03*
X118032D02*
D03*
X108031D02*
D03*
X98032D02*
D03*
X229134Y8661D02*
D03*
X219134D02*
D03*
X209134D02*
D03*
X199134D02*
D03*
X189134D02*
D03*
X179134D02*
D03*
X107087D02*
D03*
X117087D02*
D03*
X127087D02*
D03*
X137087D02*
D03*
X147087D02*
D03*
X157087D02*
D03*
X167087D02*
D03*
X259213Y206299D02*
D03*
X249213D02*
D03*
X239213D02*
D03*
X229213D02*
D03*
X219213D02*
D03*
X209213D02*
D03*
X199213D02*
D03*
D88*
X247480Y123543D02*
D03*
X257480D02*
D03*
X247480Y113543D02*
D03*
X257480D02*
D03*
X247480Y103543D02*
D03*
X257480D02*
D03*
D92*
X97087Y8661D02*
D03*
X269213Y206299D02*
D03*
M02*
