G04*
G04 #@! TF.GenerationSoftware,Altium Limited,Altium Designer,22.2.1 (43)*
G04*
G04 Layer_Color=255*
%FSLAX25Y25*%
%MOIN*%
G70*
G04*
G04 #@! TF.SameCoordinates,7339C814-AE53-45AD-ACDF-668E24E4BB01*
G04*
G04*
G04 #@! TF.FilePolarity,Positive*
G04*
G01*
G75*
%ADD18R,0.03937X0.03937*%
%ADD19R,0.01772X0.05512*%
%ADD20R,0.05512X0.01772*%
%ADD21R,0.05300X0.01600*%
%ADD22R,0.06100X0.06500*%
%ADD23R,0.04000X0.06000*%
%ADD24R,0.06000X0.06000*%
%ADD25R,0.04134X0.05118*%
%ADD26R,0.02165X0.04724*%
%ADD27R,0.19000X0.19000*%
%ADD28R,0.01083X0.02953*%
%ADD29R,0.02953X0.01083*%
%ADD30R,0.04724X0.04724*%
%ADD31R,0.03100X0.03500*%
%ADD32R,0.06299X0.05512*%
%ADD33R,0.03537X0.04331*%
%ADD34R,0.04331X0.03537*%
%ADD35R,0.04724X0.03937*%
%ADD36R,0.04724X0.01181*%
%ADD37R,0.14173X0.08661*%
%ADD38R,0.04800X0.08800*%
%ADD39R,0.07480X0.13386*%
%ADD40R,0.09449X0.09449*%
%ADD41R,0.07087X0.05512*%
%ADD42R,0.03537X0.04331*%
%ADD43R,0.09449X0.06299*%
%ADD44R,0.06299X0.09449*%
%ADD45R,0.04331X0.03537*%
%ADD84P,0.17046X8X202.5*%
%ADD85P,0.17046X8X112.5*%
%ADD86P,0.06061X8X292.5*%
%ADD87R,0.05600X0.05600*%
%ADD88P,0.06605X8X292.5*%
D18*
X158661Y98032D02*
D03*
X39764Y155118D02*
D03*
X31890D02*
D03*
X39764Y128248D02*
D03*
X31890D02*
D03*
D19*
X174409Y75197D02*
D03*
X171259Y75197D02*
D03*
X168110Y75197D02*
D03*
X164960D02*
D03*
X161811D02*
D03*
X158661Y75197D02*
D03*
X155511Y75197D02*
D03*
X152362D02*
D03*
X149212D02*
D03*
X146063Y75197D02*
D03*
X142913Y75197D02*
D03*
Y120867D02*
D03*
X146063D02*
D03*
X149212D02*
D03*
X152362D02*
D03*
X155511D02*
D03*
X158661D02*
D03*
X161811D02*
D03*
X164960D02*
D03*
X168110D02*
D03*
X171259D02*
D03*
X174409D02*
D03*
D20*
X135826Y82284D02*
D03*
Y85434D02*
D03*
Y88582D02*
D03*
Y91733D02*
D03*
Y94883D02*
D03*
Y98032D02*
D03*
Y101181D02*
D03*
Y104331D02*
D03*
Y107481D02*
D03*
Y110631D02*
D03*
Y113779D02*
D03*
X181496D02*
D03*
Y110631D02*
D03*
Y107481D02*
D03*
Y104331D02*
D03*
Y101181D02*
D03*
Y98032D02*
D03*
Y94883D02*
D03*
Y91733D02*
D03*
Y88582D02*
D03*
Y85434D02*
D03*
Y82284D02*
D03*
D21*
X20836Y163074D02*
D03*
Y160474D02*
D03*
Y157874D02*
D03*
Y155274D02*
D03*
Y152674D02*
D03*
D22*
X10236Y170874D02*
D03*
Y144874D02*
D03*
D23*
X20836Y167674D02*
D03*
Y148074D02*
D03*
D24*
X10236Y161874D02*
D03*
Y153874D02*
D03*
D25*
X173721Y148228D02*
D03*
Y157283D02*
D03*
X166437D02*
D03*
Y148228D02*
D03*
D26*
X99606Y38583D02*
D03*
X92126D02*
D03*
Y48819D02*
D03*
X95866Y48819D02*
D03*
X99606Y48819D02*
D03*
D27*
X158268Y97638D02*
D03*
D28*
X168111Y84744D02*
D03*
X166142D02*
D03*
X164174D02*
D03*
X162205D02*
D03*
X160236D02*
D03*
X158268Y84744D02*
D03*
X156299Y84744D02*
D03*
X154331D02*
D03*
X152362D02*
D03*
X150394D02*
D03*
X148425D02*
D03*
Y110532D02*
D03*
X150394D02*
D03*
X152362D02*
D03*
X154331D02*
D03*
X156299D02*
D03*
X158268Y110532D02*
D03*
X160236Y110532D02*
D03*
X162205D02*
D03*
X164174D02*
D03*
X166142D02*
D03*
X168111D02*
D03*
D29*
X145374Y87796D02*
D03*
Y89764D02*
D03*
Y91733D02*
D03*
Y93701D02*
D03*
Y95670D02*
D03*
X145374Y97638D02*
D03*
X145374Y99607D02*
D03*
Y101575D02*
D03*
Y103544D02*
D03*
Y105512D02*
D03*
Y107481D02*
D03*
X171162D02*
D03*
Y105512D02*
D03*
Y103544D02*
D03*
Y101575D02*
D03*
Y99607D02*
D03*
X171162Y97638D02*
D03*
X171162Y95670D02*
D03*
Y93701D02*
D03*
Y91733D02*
D03*
Y89764D02*
D03*
Y87796D02*
D03*
D30*
X16142Y90420D02*
D03*
X7874D02*
D03*
X16142Y107874D02*
D03*
X7874D02*
D03*
X16339Y56693D02*
D03*
X8071D02*
D03*
X16142Y72966D02*
D03*
X7874D02*
D03*
D31*
X57951Y138779D02*
D03*
X65551D02*
D03*
X61751Y146780D02*
D03*
D32*
X39370Y202756D02*
D03*
X6299Y211614D02*
D03*
X39370D02*
D03*
X6299Y193898D02*
D03*
X39370D02*
D03*
D33*
X79431Y132805D02*
D03*
X86431D02*
D03*
X86331Y141992D02*
D03*
X79331D02*
D03*
X32534Y56299D02*
D03*
X25534D02*
D03*
X32240Y108268D02*
D03*
X25240D02*
D03*
X32534Y90945D02*
D03*
X25534D02*
D03*
X32534Y72703D02*
D03*
X25534D02*
D03*
X39327Y137405D02*
D03*
X32327D02*
D03*
X39327Y146361D02*
D03*
X32327D02*
D03*
X214216Y94095D02*
D03*
X221217D02*
D03*
X221467Y65706D02*
D03*
X214467D02*
D03*
X166185Y133071D02*
D03*
X173185D02*
D03*
X173185Y140554D02*
D03*
X166185D02*
D03*
D34*
X189370Y140858D02*
D03*
Y133858D02*
D03*
D35*
X40208Y119291D02*
D03*
X31546D02*
D03*
X222841Y75003D02*
D03*
X214179D02*
D03*
D36*
X71506Y130807D02*
D03*
Y128247D02*
D03*
Y125689D02*
D03*
Y123129D02*
D03*
X54872D02*
D03*
Y125689D02*
D03*
Y128247D02*
D03*
Y130807D02*
D03*
D37*
X70472Y85429D02*
D03*
D38*
X79572Y61028D02*
D03*
X70472D02*
D03*
X61372D02*
D03*
D39*
X33662Y170472D02*
D03*
X49016D02*
D03*
D40*
X63779Y46851D02*
D03*
Y29528D02*
D03*
D41*
X199213Y134252D02*
D03*
Y147638D02*
D03*
D42*
X99126Y59055D02*
D03*
X92126D02*
D03*
X86431Y123425D02*
D03*
X79431D02*
D03*
X79331Y150984D02*
D03*
X86331D02*
D03*
X92606Y29921D02*
D03*
X99606D02*
D03*
X67716Y160236D02*
D03*
X60716D02*
D03*
X220823Y101969D02*
D03*
X213823D02*
D03*
X214467Y56299D02*
D03*
X221467D02*
D03*
X214216Y84252D02*
D03*
X221217D02*
D03*
D43*
X95669Y68110D02*
D03*
Y79922D02*
D03*
X80315Y42913D02*
D03*
Y31102D02*
D03*
D44*
X74410Y172047D02*
D03*
X62598D02*
D03*
D45*
X151575Y145976D02*
D03*
Y138976D02*
D03*
X181102Y133902D02*
D03*
Y140902D02*
D03*
X209055Y140508D02*
D03*
Y133508D02*
D03*
X217717Y140508D02*
D03*
Y133508D02*
D03*
D84*
X29921Y10630D02*
D03*
D85*
X41721Y30330D02*
D03*
X18121D02*
D03*
D86*
X188031Y206299D02*
D03*
X178032D02*
D03*
X168032D02*
D03*
X158031D02*
D03*
X148031D02*
D03*
X138031D02*
D03*
X128032D02*
D03*
X118032D02*
D03*
X108031D02*
D03*
X98032D02*
D03*
X229134Y8661D02*
D03*
X219134D02*
D03*
X209134D02*
D03*
X199134D02*
D03*
X189134D02*
D03*
X179134D02*
D03*
X107087D02*
D03*
X117087D02*
D03*
X127087D02*
D03*
X137087D02*
D03*
X147087D02*
D03*
X157087D02*
D03*
X167087D02*
D03*
X259213Y206299D02*
D03*
X249213D02*
D03*
X239213D02*
D03*
X229213D02*
D03*
X219213D02*
D03*
X209213D02*
D03*
X199213D02*
D03*
D87*
X97087Y8661D02*
D03*
X269213Y206299D02*
D03*
D88*
X247480Y123543D02*
D03*
X257480D02*
D03*
X247480Y113543D02*
D03*
X257480D02*
D03*
X247480Y103543D02*
D03*
X257480D02*
D03*
M02*
