G04*
G04 #@! TF.GenerationSoftware,Altium Limited,Altium Designer,22.2.1 (43)*
G04*
G04 Layer_Physical_Order=2*
G04 Layer_Color=16711680*
%FSLAX25Y25*%
%MOIN*%
G70*
G04*
G04 #@! TF.SameCoordinates,7339C814-AE53-45AD-ACDF-668E24E4BB01*
G04*
G04*
G04 #@! TF.FilePolarity,Positive*
G04*
G01*
G75*
%ADD10C,0.01000*%
%ADD14C,0.00800*%
%ADD16C,0.00394*%
%ADD83C,0.00803*%
%ADD84P,0.17046X8X202.5*%
%ADD85P,0.17046X8X112.5*%
%ADD86P,0.06061X8X292.5*%
%ADD88P,0.06605X8X292.5*%
%ADD89C,0.02000*%
%ADD90C,0.03150*%
%ADD91C,0.02000*%
%ADD92C,0.05600*%
G36*
X81998Y19398D02*
X82106Y19400D01*
X82300Y19416D01*
X82386Y19430D01*
X82464Y19448D01*
X82536Y19470D01*
X82600Y19496D01*
X82658Y19526D01*
X82708Y19560D01*
X82750Y19598D01*
Y18198D01*
X82708Y18236D01*
X82658Y18270D01*
X82600Y18300D01*
X82536Y18326D01*
X82464Y18348D01*
X82386Y18366D01*
X82300Y18380D01*
X82206Y18390D01*
X81998Y18398D01*
Y19398D01*
D02*
G37*
G36*
X39476Y57765D02*
X39478Y57658D01*
X39494Y57464D01*
X39508Y57378D01*
X39526Y57299D01*
X39548Y57228D01*
X39574Y57163D01*
X39604Y57106D01*
X39638Y57056D01*
X39676Y57013D01*
X38276D01*
X38314Y57056D01*
X38348Y57106D01*
X38378Y57163D01*
X38404Y57228D01*
X38426Y57299D01*
X38444Y57378D01*
X38458Y57464D01*
X38468Y57557D01*
X38476Y57765D01*
X39476D01*
D02*
G37*
G36*
X47453Y74305D02*
X47379Y74228D01*
X47253Y74080D01*
X47202Y74009D01*
X47159Y73940D01*
X47124Y73874D01*
X47097Y73810D01*
X47078Y73749D01*
X47066Y73689D01*
X47063Y73632D01*
X46073Y74622D01*
X46130Y74625D01*
X46189Y74637D01*
X46251Y74656D01*
X46315Y74683D01*
X46381Y74718D01*
X46450Y74761D01*
X46520Y74812D01*
X46593Y74871D01*
X46746Y75012D01*
X47453Y74305D01*
D02*
G37*
G36*
X102044Y18398D02*
X101901Y18392D01*
X101761Y18374D01*
X101623Y18343D01*
X101487Y18301D01*
X101355Y18247D01*
X101225Y18181D01*
X101097Y18102D01*
X100972Y18012D01*
X100850Y17910D01*
X100731Y17795D01*
Y20000D01*
X100850Y19886D01*
X100972Y19783D01*
X101097Y19693D01*
X101225Y19614D01*
X101355Y19548D01*
X101487Y19494D01*
X101623Y19452D01*
X101761Y19422D01*
X101901Y19404D01*
X102044Y19398D01*
Y18398D01*
D02*
G37*
G36*
X85642Y50683D02*
X85567Y50606D01*
X85442Y50457D01*
X85391Y50387D01*
X85348Y50318D01*
X85313Y50252D01*
X85286Y50188D01*
X85267Y50126D01*
X85255Y50067D01*
X85252Y50010D01*
X84262Y51000D01*
X84319Y51003D01*
X84378Y51015D01*
X84440Y51034D01*
X84504Y51061D01*
X84570Y51096D01*
X84639Y51139D01*
X84709Y51190D01*
X84782Y51249D01*
X84935Y51390D01*
X85642Y50683D01*
D02*
G37*
G36*
X85720Y72156D02*
X85719Y72264D01*
X85703Y72457D01*
X85689Y72543D01*
X85671Y72622D01*
X85649Y72694D01*
X85623Y72758D01*
X85593Y72815D01*
X85558Y72865D01*
X85520Y72908D01*
X86920D01*
X86883Y72865D01*
X86848Y72815D01*
X86818Y72758D01*
X86792Y72694D01*
X86770Y72622D01*
X86752Y72543D01*
X86739Y72457D01*
X86729Y72364D01*
X86721Y72156D01*
X85720D01*
D02*
G37*
G36*
X108163Y78531D02*
X108086Y78606D01*
X107938Y78731D01*
X107867Y78782D01*
X107799Y78825D01*
X107732Y78860D01*
X107668Y78887D01*
X107607Y78907D01*
X107547Y78918D01*
X107490Y78921D01*
X108480Y79911D01*
X108484Y79854D01*
X108495Y79795D01*
X108514Y79733D01*
X108541Y79669D01*
X108576Y79603D01*
X108619Y79535D01*
X108670Y79464D01*
X108729Y79391D01*
X108870Y79238D01*
X108163Y78531D01*
D02*
G37*
G36*
X38476Y89350D02*
X38474Y89459D01*
X38466Y89557D01*
X38453Y89647D01*
X38435Y89727D01*
X38412Y89798D01*
X38384Y89859D01*
X38351Y89911D01*
X38313Y89955D01*
X38269Y89988D01*
X38220Y90013D01*
X39507Y90563D01*
X39501Y90539D01*
X39496Y90494D01*
X39487Y90346D01*
X39476Y89426D01*
X38476Y89350D01*
D02*
G37*
G36*
X39476Y92464D02*
X39507Y91326D01*
X38220Y91877D01*
X38269Y91901D01*
X38313Y91935D01*
X38351Y91978D01*
X38384Y92031D01*
X38412Y92092D01*
X38435Y92163D01*
X38453Y92243D01*
X38466Y92333D01*
X38474Y92431D01*
X38476Y92539D01*
X39476Y92464D01*
D02*
G37*
G36*
X60327Y89630D02*
X60250Y89704D01*
X60101Y89825D01*
X60030Y89872D01*
X59961Y89911D01*
X59895Y89940D01*
X59830Y89960D01*
X59768Y89970D01*
X59708Y89973D01*
X59650Y89965D01*
X60432Y91126D01*
X60444Y91079D01*
X60463Y91028D01*
X60490Y90974D01*
X60523Y90916D01*
X60563Y90855D01*
X60666Y90722D01*
X60728Y90651D01*
X60873Y90499D01*
X60327Y89630D01*
D02*
G37*
G36*
X56090Y99317D02*
X56165Y99394D01*
X56290Y99543D01*
X56341Y99613D01*
X56384Y99682D01*
X56419Y99748D01*
X56446Y99812D01*
X56466Y99874D01*
X56477Y99933D01*
X56480Y99990D01*
X57470Y99000D01*
X57413Y98997D01*
X57354Y98985D01*
X57292Y98966D01*
X57228Y98939D01*
X57162Y98904D01*
X57094Y98861D01*
X57023Y98810D01*
X56950Y98751D01*
X56797Y98610D01*
X56090Y99317D01*
D02*
G37*
G36*
X79025Y93594D02*
X78917Y93593D01*
X78724Y93577D01*
X78638Y93563D01*
X78559Y93545D01*
X78488Y93523D01*
X78423Y93497D01*
X78366Y93467D01*
X78316Y93432D01*
X78273Y93395D01*
Y94794D01*
X78316Y94757D01*
X78366Y94722D01*
X78423Y94692D01*
X78488Y94666D01*
X78559Y94644D01*
X78638Y94626D01*
X78724Y94612D01*
X78817Y94603D01*
X79025Y94595D01*
Y93594D01*
D02*
G37*
G36*
X76093Y99319D02*
X76201Y99321D01*
X76394Y99337D01*
X76480Y99351D01*
X76559Y99369D01*
X76631Y99391D01*
X76695Y99417D01*
X76752Y99447D01*
X76802Y99481D01*
X76845Y99519D01*
Y98119D01*
X76802Y98157D01*
X76752Y98191D01*
X76695Y98221D01*
X76631Y98247D01*
X76559Y98269D01*
X76480Y98287D01*
X76394Y98301D01*
X76301Y98311D01*
X76093Y98319D01*
Y99319D01*
D02*
G37*
G36*
X96350Y84754D02*
X96348Y84862D01*
X96332Y85056D01*
X96318Y85141D01*
X96300Y85220D01*
X96278Y85292D01*
X96252Y85356D01*
X96222Y85413D01*
X96188Y85464D01*
X96150Y85506D01*
X97550D01*
X97512Y85464D01*
X97478Y85413D01*
X97448Y85356D01*
X97422Y85292D01*
X97400Y85220D01*
X97382Y85141D01*
X97368Y85056D01*
X97358Y84962D01*
X97350Y84754D01*
X96350D01*
D02*
G37*
G36*
X38476Y106802D02*
X38474Y106909D01*
X38458Y107103D01*
X38444Y107189D01*
X38426Y107268D01*
X38404Y107339D01*
X38378Y107404D01*
X38348Y107461D01*
X38314Y107511D01*
X38276Y107554D01*
X39676D01*
X39638Y107511D01*
X39604Y107461D01*
X39574Y107404D01*
X39548Y107339D01*
X39526Y107268D01*
X39508Y107189D01*
X39494Y107103D01*
X39484Y107010D01*
X39476Y106802D01*
X38476D01*
D02*
G37*
G36*
X53041Y103043D02*
X52933Y103041D01*
X52740Y103025D01*
X52654Y103011D01*
X52575Y102993D01*
X52503Y102971D01*
X52439Y102945D01*
X52382Y102915D01*
X52332Y102881D01*
X52289Y102843D01*
Y104243D01*
X52332Y104205D01*
X52382Y104171D01*
X52439Y104141D01*
X52503Y104115D01*
X52575Y104093D01*
X52654Y104075D01*
X52740Y104061D01*
X52833Y104051D01*
X53041Y104043D01*
Y103043D01*
D02*
G37*
G36*
X58946Y106193D02*
X58839Y106191D01*
X58645Y106175D01*
X58559Y106161D01*
X58480Y106143D01*
X58409Y106121D01*
X58345Y106095D01*
X58287Y106065D01*
X58237Y106031D01*
X58194Y105993D01*
Y107393D01*
X58237Y107355D01*
X58287Y107321D01*
X58345Y107291D01*
X58409Y107265D01*
X58480Y107243D01*
X58559Y107225D01*
X58645Y107211D01*
X58738Y107201D01*
X58946Y107193D01*
Y106193D01*
D02*
G37*
G36*
X62096Y111705D02*
X61988Y111703D01*
X61795Y111687D01*
X61709Y111673D01*
X61630Y111655D01*
X61559Y111633D01*
X61494Y111607D01*
X61437Y111577D01*
X61387Y111543D01*
X61344Y111505D01*
Y112905D01*
X61387Y112867D01*
X61437Y112833D01*
X61494Y112803D01*
X61559Y112777D01*
X61630Y112755D01*
X61709Y112737D01*
X61795Y112723D01*
X61888Y112713D01*
X62096Y112705D01*
Y111705D01*
D02*
G37*
G36*
X58770Y118217D02*
X58878Y118219D01*
X59071Y118235D01*
X59157Y118248D01*
X59236Y118266D01*
X59308Y118289D01*
X59372Y118315D01*
X59429Y118344D01*
X59479Y118378D01*
X59522Y118417D01*
Y117016D01*
X59479Y117054D01*
X59429Y117088D01*
X59372Y117119D01*
X59308Y117145D01*
X59236Y117166D01*
X59157Y117184D01*
X59071Y117199D01*
X58978Y117209D01*
X58770Y117217D01*
Y118217D01*
D02*
G37*
G36*
X75303Y118395D02*
X75305Y118288D01*
X75321Y118094D01*
X75335Y118008D01*
X75353Y117929D01*
X75375Y117858D01*
X75401Y117793D01*
X75431Y117736D01*
X75465Y117686D01*
X75503Y117643D01*
X74103D01*
X74141Y117686D01*
X74175Y117736D01*
X74205Y117793D01*
X74231Y117858D01*
X74253Y117929D01*
X74271Y118008D01*
X74285Y118094D01*
X74295Y118187D01*
X74303Y118395D01*
X75303D01*
D02*
G37*
G36*
X47532Y121369D02*
X47530Y121476D01*
X47513Y121670D01*
X47499Y121756D01*
X47482Y121835D01*
X47460Y121906D01*
X47434Y121970D01*
X47403Y122028D01*
X47370Y122078D01*
X47332Y122120D01*
X48731D01*
X48693Y122078D01*
X48660Y122028D01*
X48630Y121970D01*
X48603Y121906D01*
X48581Y121835D01*
X48564Y121756D01*
X48550Y121670D01*
X48540Y121577D01*
X48531Y121369D01*
X47532D01*
D02*
G37*
G36*
X74303Y153652D02*
X74301Y153760D01*
X74285Y153953D01*
X74271Y154039D01*
X74253Y154118D01*
X74231Y154190D01*
X74205Y154254D01*
X74175Y154311D01*
X74141Y154361D01*
X74103Y154404D01*
X75503D01*
X75465Y154361D01*
X75431Y154311D01*
X75401Y154254D01*
X75375Y154190D01*
X75353Y154118D01*
X75335Y154039D01*
X75321Y153953D01*
X75311Y153860D01*
X75303Y153652D01*
X74303D01*
D02*
G37*
G36*
X91626Y155621D02*
X91624Y155728D01*
X91608Y155922D01*
X91594Y156008D01*
X91576Y156087D01*
X91554Y156158D01*
X91528Y156222D01*
X91498Y156280D01*
X91464Y156330D01*
X91426Y156372D01*
X92826D01*
X92788Y156330D01*
X92754Y156280D01*
X92724Y156222D01*
X92698Y156158D01*
X92676Y156087D01*
X92658Y156008D01*
X92644Y155922D01*
X92634Y155828D01*
X92626Y155621D01*
X91626D01*
D02*
G37*
G36*
X113671Y166429D02*
X113563Y166427D01*
X113370Y166411D01*
X113284Y166397D01*
X113205Y166379D01*
X113133Y166357D01*
X113069Y166331D01*
X113012Y166301D01*
X112962Y166267D01*
X112919Y166229D01*
Y167629D01*
X112962Y167591D01*
X113012Y167557D01*
X113069Y167527D01*
X113133Y167501D01*
X113205Y167479D01*
X113284Y167461D01*
X113370Y167447D01*
X113463Y167437D01*
X113671Y167429D01*
Y166429D01*
D02*
G37*
G36*
X107371Y182177D02*
X107264Y182175D01*
X107070Y182159D01*
X106984Y182145D01*
X106906Y182127D01*
X106834Y182105D01*
X106770Y182079D01*
X106712Y182049D01*
X106662Y182015D01*
X106620Y181977D01*
Y183377D01*
X106662Y183339D01*
X106712Y183305D01*
X106770Y183275D01*
X106834Y183249D01*
X106906Y183227D01*
X106984Y183209D01*
X107070Y183195D01*
X107164Y183185D01*
X107371Y183177D01*
Y182177D01*
D02*
G37*
G36*
X107195Y186721D02*
X107303Y186723D01*
X107497Y186739D01*
X107582Y186752D01*
X107661Y186770D01*
X107733Y186793D01*
X107797Y186819D01*
X107854Y186848D01*
X107905Y186882D01*
X107947Y186920D01*
Y185521D01*
X107905Y185558D01*
X107854Y185592D01*
X107797Y185623D01*
X107733Y185649D01*
X107661Y185670D01*
X107582Y185688D01*
X107497Y185703D01*
X107403Y185713D01*
X107195Y185721D01*
Y186721D01*
D02*
G37*
G36*
X101466Y189264D02*
X101358Y189262D01*
X101165Y189246D01*
X101079Y189232D01*
X101000Y189214D01*
X100928Y189192D01*
X100864Y189166D01*
X100807Y189136D01*
X100757Y189102D01*
X100714Y189064D01*
Y190464D01*
X100757Y190426D01*
X100807Y190392D01*
X100864Y190362D01*
X100928Y190336D01*
X101000Y190314D01*
X101079Y190296D01*
X101165Y190282D01*
X101258Y190272D01*
X101466Y190264D01*
Y189264D01*
D02*
G37*
G36*
X104616Y195563D02*
X104508Y195561D01*
X104314Y195545D01*
X104228Y195531D01*
X104150Y195513D01*
X104078Y195491D01*
X104014Y195465D01*
X103957Y195435D01*
X103907Y195401D01*
X103864Y195363D01*
Y196763D01*
X103907Y196725D01*
X103957Y196691D01*
X104014Y196661D01*
X104078Y196635D01*
X104150Y196613D01*
X104228Y196595D01*
X104314Y196581D01*
X104408Y196571D01*
X104616Y196563D01*
Y195563D01*
D02*
G37*
G36*
X108377Y190264D02*
X108484Y190266D01*
X108678Y190282D01*
X108764Y190296D01*
X108842Y190314D01*
X108914Y190336D01*
X108978Y190362D01*
X109036Y190392D01*
X109086Y190426D01*
X109128Y190464D01*
Y189064D01*
X109086Y189102D01*
X109036Y189136D01*
X108978Y189166D01*
X108914Y189192D01*
X108842Y189214D01*
X108764Y189232D01*
X108678Y189246D01*
X108584Y189256D01*
X108377Y189264D01*
Y190264D01*
D02*
G37*
G36*
X185900Y91032D02*
X185857Y91070D01*
X185807Y91104D01*
X185750Y91134D01*
X185686Y91160D01*
X185614Y91182D01*
X185535Y91200D01*
X185449Y91214D01*
X185356Y91224D01*
X185148Y91232D01*
Y92232D01*
X185256Y92234D01*
X185449Y92250D01*
X185535Y92264D01*
X185614Y92282D01*
X185686Y92304D01*
X185750Y92330D01*
X185807Y92360D01*
X185857Y92394D01*
X185900Y92432D01*
Y91032D01*
D02*
G37*
G36*
X186687Y81583D02*
X186645Y81621D01*
X186595Y81656D01*
X186537Y81686D01*
X186473Y81712D01*
X186401Y81734D01*
X186323Y81752D01*
X186237Y81766D01*
X186144Y81775D01*
X185935Y81783D01*
Y82784D01*
X186043Y82785D01*
X186237Y82802D01*
X186323Y82815D01*
X186401Y82833D01*
X186473Y82855D01*
X186537Y82881D01*
X186595Y82911D01*
X186645Y82946D01*
X186687Y82983D01*
Y81583D01*
D02*
G37*
G36*
X131072Y76646D02*
X131122Y76612D01*
X131179Y76582D01*
X131244Y76556D01*
X131315Y76534D01*
X131394Y76516D01*
X131480Y76502D01*
X131573Y76492D01*
X131781Y76484D01*
Y75484D01*
X131673Y75482D01*
X131480Y75466D01*
X131394Y75452D01*
X131315Y75434D01*
X131244Y75412D01*
X131179Y75386D01*
X131122Y75356D01*
X131072Y75322D01*
X131029Y75284D01*
Y76684D01*
X131072Y76646D01*
D02*
G37*
G36*
X181559Y71460D02*
X181681Y71358D01*
X181806Y71268D01*
X181933Y71189D01*
X182063Y71123D01*
X182196Y71069D01*
X182331Y71027D01*
X182469Y70996D01*
X182610Y70978D01*
X182753Y70972D01*
Y69972D01*
X182610Y69966D01*
X182469Y69948D01*
X182331Y69918D01*
X182196Y69876D01*
X182063Y69822D01*
X181933Y69756D01*
X181806Y69677D01*
X181681Y69587D01*
X181559Y69485D01*
X181440Y69370D01*
Y71575D01*
X181559Y71460D01*
D02*
G37*
G36*
X167505Y70607D02*
X167653Y70481D01*
X167724Y70430D01*
X167792Y70388D01*
X167858Y70352D01*
X167922Y70325D01*
X167984Y70306D01*
X168043Y70295D01*
X168100Y70291D01*
X167110Y69301D01*
X167107Y69358D01*
X167096Y69418D01*
X167076Y69480D01*
X167049Y69543D01*
X167014Y69610D01*
X166971Y69678D01*
X166920Y69749D01*
X166861Y69822D01*
X166720Y69974D01*
X167427Y70682D01*
X167505Y70607D01*
D02*
G37*
G36*
X145639Y64442D02*
X145689Y64407D01*
X145746Y64377D01*
X145810Y64351D01*
X145882Y64329D01*
X145961Y64311D01*
X146047Y64297D01*
X146140Y64288D01*
X146348Y64280D01*
Y63279D01*
X146240Y63278D01*
X146047Y63261D01*
X145961Y63248D01*
X145882Y63230D01*
X145810Y63208D01*
X145746Y63182D01*
X145689Y63152D01*
X145639Y63117D01*
X145596Y63080D01*
Y64480D01*
X145639Y64442D01*
D02*
G37*
G36*
X116058Y58674D02*
X116170Y58587D01*
X116289Y58511D01*
X116414Y58445D01*
X116547Y58389D01*
X116685Y58344D01*
X116831Y58309D01*
X116983Y58285D01*
X117142Y58271D01*
X117307Y58268D01*
X115748Y56709D01*
X115745Y56874D01*
X115731Y57033D01*
X115706Y57185D01*
X115672Y57330D01*
X115627Y57469D01*
X115571Y57601D01*
X115505Y57727D01*
X115429Y57846D01*
X115342Y57958D01*
X115245Y58063D01*
X115952Y58771D01*
X116058Y58674D01*
D02*
G37*
G36*
X126041Y15827D02*
X125921Y15941D01*
X125799Y16044D01*
X125674Y16134D01*
X125547Y16212D01*
X125417Y16278D01*
X125284Y16333D01*
X125149Y16375D01*
X125011Y16405D01*
X124870Y16423D01*
X124727Y16429D01*
Y17429D01*
X124870Y17435D01*
X125011Y17453D01*
X125149Y17483D01*
X125284Y17526D01*
X125417Y17580D01*
X125547Y17646D01*
X125674Y17724D01*
X125799Y17815D01*
X125921Y17917D01*
X126041Y18032D01*
Y15827D01*
D02*
G37*
G36*
X196172Y69004D02*
X196279Y69006D01*
X196473Y69022D01*
X196559Y69036D01*
X196638Y69054D01*
X196709Y69076D01*
X196774Y69102D01*
X196831Y69132D01*
X196881Y69166D01*
X196924Y69204D01*
Y67804D01*
X196881Y67842D01*
X196831Y67876D01*
X196774Y67906D01*
X196709Y67932D01*
X196638Y67954D01*
X196559Y67972D01*
X196473Y67986D01*
X196380Y67996D01*
X196172Y68004D01*
Y69004D01*
D02*
G37*
G36*
X198136Y92729D02*
X198213Y92654D01*
X198362Y92529D01*
X198432Y92478D01*
X198501Y92435D01*
X198567Y92400D01*
X198631Y92373D01*
X198692Y92353D01*
X198752Y92342D01*
X198809Y92339D01*
X197819Y91349D01*
X197816Y91406D01*
X197804Y91465D01*
X197785Y91527D01*
X197758Y91591D01*
X197723Y91657D01*
X197680Y91725D01*
X197629Y91796D01*
X197570Y91869D01*
X197429Y92022D01*
X198136Y92729D01*
D02*
G37*
G36*
X206296Y85933D02*
X206443Y85940D01*
X206584Y85960D01*
X206719Y85993D01*
X206847Y86040D01*
X206969Y86101D01*
X207084Y86174D01*
X207194Y86261D01*
X207296Y86362D01*
X207393Y86476D01*
X207482Y86603D01*
X207923Y84443D01*
X207779Y84536D01*
X207492Y84693D01*
X207349Y84757D01*
X207208Y84811D01*
X207067Y84855D01*
X206927Y84889D01*
X206788Y84913D01*
X206650Y84928D01*
X206512Y84933D01*
X206296Y85933D01*
D02*
G37*
G36*
X230946Y81814D02*
X230869Y81735D01*
X230630Y81465D01*
X230588Y81409D01*
X230525Y81309D01*
X230504Y81266D01*
X230491Y81227D01*
X229816Y82454D01*
X229872Y82442D01*
X229930Y82440D01*
X229991Y82447D01*
X230054Y82464D01*
X230120Y82491D01*
X230188Y82527D01*
X230258Y82572D01*
X230331Y82628D01*
X230407Y82692D01*
X230485Y82766D01*
X230946Y81814D01*
D02*
G37*
G36*
X191370Y103192D02*
X191368Y103300D01*
X191349Y103491D01*
X191333Y103576D01*
X191312Y103652D01*
X191286Y103721D01*
X191256Y103783D01*
X191221Y103836D01*
X191182Y103882D01*
X191137Y103921D01*
X192524Y104113D01*
X192495Y104070D01*
X192469Y104019D01*
X192446Y103961D01*
X192426Y103896D01*
X192409Y103824D01*
X192395Y103744D01*
X192376Y103564D01*
X192372Y103463D01*
X192370Y103354D01*
X191370Y103192D01*
D02*
G37*
G36*
X201466Y103831D02*
X201358Y103829D01*
X201165Y103813D01*
X201079Y103799D01*
X201000Y103781D01*
X200928Y103759D01*
X200864Y103733D01*
X200807Y103703D01*
X200757Y103669D01*
X200714Y103631D01*
Y105031D01*
X200757Y104993D01*
X200807Y104959D01*
X200864Y104929D01*
X200928Y104903D01*
X201000Y104881D01*
X201079Y104863D01*
X201165Y104849D01*
X201258Y104839D01*
X201466Y104831D01*
Y103831D01*
D02*
G37*
G36*
X228057Y110839D02*
X228135Y110764D01*
X228283Y110639D01*
X228353Y110588D01*
X228422Y110545D01*
X228488Y110510D01*
X228552Y110483D01*
X228614Y110464D01*
X228673Y110452D01*
X228730Y110449D01*
X227740Y109459D01*
X227737Y109516D01*
X227726Y109575D01*
X227706Y109637D01*
X227679Y109701D01*
X227644Y109767D01*
X227601Y109836D01*
X227550Y109906D01*
X227491Y109979D01*
X227350Y110132D01*
X228057Y110839D01*
D02*
G37*
G36*
X159736Y131605D02*
X159734Y131712D01*
X159718Y131906D01*
X159704Y131992D01*
X159686Y132071D01*
X159664Y132142D01*
X159638Y132207D01*
X159608Y132264D01*
X159574Y132314D01*
X159536Y132357D01*
X160936D01*
X160898Y132314D01*
X160864Y132264D01*
X160834Y132207D01*
X160808Y132142D01*
X160786Y132071D01*
X160768Y131992D01*
X160754Y131906D01*
X160744Y131813D01*
X160736Y131605D01*
X159736D01*
D02*
G37*
G36*
X185618Y117821D02*
X185692Y117898D01*
X185818Y118046D01*
X185869Y118117D01*
X185912Y118186D01*
X185947Y118252D01*
X185974Y118316D01*
X185993Y118377D01*
X186004Y118437D01*
X186008Y118494D01*
X186998Y117504D01*
X186941Y117501D01*
X186881Y117489D01*
X186820Y117470D01*
X186756Y117443D01*
X186690Y117408D01*
X186621Y117365D01*
X186550Y117314D01*
X186477Y117255D01*
X186325Y117114D01*
X185618Y117821D01*
D02*
G37*
G36*
X137776Y167429D02*
X137884Y167432D01*
X137982Y167439D01*
X138072Y167452D01*
X138152Y167470D01*
X138223Y167493D01*
X138284Y167521D01*
X138337Y167555D01*
X138380Y167593D01*
X138414Y167637D01*
X138438Y167685D01*
X138989Y166398D01*
X138964Y166404D01*
X138919Y166410D01*
X138771Y166418D01*
X137851Y166429D01*
X137776Y167429D01*
D02*
G37*
G36*
X145382Y176663D02*
X145384Y176555D01*
X145400Y176362D01*
X145414Y176276D01*
X145432Y176197D01*
X145454Y176125D01*
X145480Y176061D01*
X145510Y176004D01*
X145544Y175954D01*
X145582Y175911D01*
X144182D01*
X144220Y175954D01*
X144254Y176004D01*
X144284Y176061D01*
X144310Y176125D01*
X144332Y176197D01*
X144350Y176276D01*
X144364Y176362D01*
X144374Y176455D01*
X144382Y176663D01*
X145382D01*
D02*
G37*
G36*
X134754Y183177D02*
X134862Y183179D01*
X135056Y183195D01*
X135142Y183209D01*
X135220Y183227D01*
X135292Y183249D01*
X135356Y183275D01*
X135414Y183305D01*
X135464Y183339D01*
X135506Y183377D01*
Y181977D01*
X135464Y182015D01*
X135414Y182049D01*
X135356Y182079D01*
X135292Y182105D01*
X135220Y182127D01*
X135142Y182145D01*
X135056Y182159D01*
X134962Y182169D01*
X134754Y182177D01*
Y183177D01*
D02*
G37*
G36*
X138691Y196563D02*
X138799Y196565D01*
X138993Y196581D01*
X139079Y196595D01*
X139157Y196613D01*
X139229Y196635D01*
X139293Y196661D01*
X139350Y196691D01*
X139400Y196725D01*
X139443Y196763D01*
Y195363D01*
X139400Y195401D01*
X139350Y195435D01*
X139293Y195465D01*
X139229Y195491D01*
X139157Y195513D01*
X139079Y195531D01*
X138993Y195545D01*
X138899Y195555D01*
X138691Y195563D01*
Y196563D01*
D02*
G37*
G36*
X146641Y198136D02*
X146716Y198213D01*
X146842Y198362D01*
X146892Y198432D01*
X146935Y198501D01*
X146970Y198567D01*
X146998Y198631D01*
X147017Y198692D01*
X147028Y198752D01*
X147031Y198809D01*
X148021Y197819D01*
X147964Y197816D01*
X147905Y197804D01*
X147843Y197785D01*
X147779Y197758D01*
X147713Y197723D01*
X147645Y197680D01*
X147574Y197629D01*
X147501Y197570D01*
X147348Y197429D01*
X146641Y198136D01*
D02*
G37*
G36*
X195957Y115463D02*
X195955Y115571D01*
X195939Y115764D01*
X195925Y115850D01*
X195907Y115929D01*
X195885Y116001D01*
X195859Y116065D01*
X195829Y116122D01*
X195795Y116172D01*
X195757Y116215D01*
X197157D01*
X197119Y116172D01*
X197085Y116122D01*
X197055Y116065D01*
X197029Y116001D01*
X197007Y115929D01*
X196989Y115850D01*
X196975Y115764D01*
X196965Y115671D01*
X196957Y115463D01*
X195957D01*
D02*
G37*
G36*
X239264Y123731D02*
X239262Y123838D01*
X239246Y124032D01*
X239232Y124118D01*
X239214Y124197D01*
X239192Y124268D01*
X239166Y124333D01*
X239136Y124390D01*
X239102Y124440D01*
X239064Y124483D01*
X240464D01*
X240426Y124440D01*
X240392Y124390D01*
X240362Y124333D01*
X240336Y124268D01*
X240314Y124197D01*
X240296Y124118D01*
X240282Y124032D01*
X240272Y123939D01*
X240264Y123731D01*
X239264D01*
D02*
G37*
G36*
X230421Y135324D02*
X230423Y135217D01*
X230439Y135023D01*
X230453Y134937D01*
X230471Y134858D01*
X230493Y134787D01*
X230519Y134722D01*
X230549Y134665D01*
X230583Y134615D01*
X230621Y134572D01*
X229221D01*
X229259Y134615D01*
X229293Y134665D01*
X229323Y134722D01*
X229349Y134787D01*
X229371Y134858D01*
X229389Y134937D01*
X229403Y135023D01*
X229413Y135116D01*
X229421Y135324D01*
X230421D01*
D02*
G37*
G36*
X239595Y188000D02*
X239596Y187892D01*
X239620Y187610D01*
X239635Y187531D01*
X239653Y187459D01*
X239673Y187393D01*
X239698Y187335D01*
X239725Y187284D01*
X239756Y187241D01*
X238366Y187406D01*
X238409Y187445D01*
X238448Y187492D01*
X238482Y187546D01*
X238512Y187608D01*
X238537Y187677D01*
X238558Y187754D01*
X238574Y187839D01*
X238585Y187931D01*
X238592Y188031D01*
X238595Y188138D01*
X239595Y188000D01*
D02*
G37*
G36*
X250118Y203513D02*
X250033Y203483D01*
X249958Y203432D01*
X249893Y203361D01*
X249838Y203270D01*
X249793Y203159D01*
X249758Y203027D01*
X249733Y202875D01*
X249718Y202703D01*
X249713Y202511D01*
X248713D01*
X248708Y202703D01*
X248693Y202875D01*
X248668Y203027D01*
X248633Y203159D01*
X248588Y203270D01*
X248533Y203361D01*
X248468Y203432D01*
X248393Y203483D01*
X248308Y203513D01*
X248213Y203523D01*
X250213D01*
X250118Y203513D01*
D02*
G37*
G36*
X240000D02*
X239914Y203483D01*
X239840Y203432D01*
X239774Y203361D01*
X239720Y203270D01*
X239674Y203159D01*
X239639Y203027D01*
X239615Y202875D01*
X239599Y202703D01*
X239595Y202511D01*
X238595D01*
X238590Y202703D01*
X238575Y202875D01*
X238549Y203027D01*
X238514Y203159D01*
X238470Y203270D01*
X238415Y203361D01*
X238350Y203432D01*
X238275Y203483D01*
X238190Y203513D01*
X238094Y203523D01*
X240094D01*
X240000Y203513D01*
D02*
G37*
G36*
X249715Y195059D02*
X249731Y194866D01*
X249745Y194780D01*
X249763Y194701D01*
X249785Y194629D01*
X249811Y194565D01*
X249841Y194508D01*
X249875Y194458D01*
X249913Y194415D01*
X248513D01*
X248551Y194458D01*
X248585Y194508D01*
X248615Y194565D01*
X248641Y194629D01*
X248663Y194701D01*
X248681Y194780D01*
X248695Y194866D01*
X248705Y194959D01*
X248713Y195167D01*
X249713D01*
X249715Y195059D01*
D02*
G37*
D10*
X226378Y79921D02*
X227953Y78347D01*
Y65748D02*
Y78347D01*
X226378Y79921D02*
Y84252D01*
X179421Y122818D02*
X179921Y122318D01*
X179421Y122818D02*
Y123036D01*
X105905Y123622D02*
X178835D01*
X103150Y126378D02*
X105905Y123622D01*
X179921Y122047D02*
Y122318D01*
X178835Y123622D02*
X179421Y123036D01*
X137402Y119685D02*
X183465D01*
X107087Y85827D02*
X172047D01*
X179730Y154927D02*
Y156895D01*
X178347Y153543D02*
X179730Y154927D01*
Y156895D02*
X179921Y157087D01*
X168110Y153543D02*
X178347D01*
X160236Y151969D02*
X166535D01*
X168110Y153543D01*
X200787Y89370D02*
X226895D01*
X200000Y88583D02*
X200787Y89370D01*
X197908Y87795D02*
X198696Y88583D01*
X200000D01*
X197638Y87795D02*
X197908D01*
X226895Y89370D02*
X227682Y88583D01*
X227953D01*
X92126Y163386D02*
X214961D01*
X237402Y114173D02*
Y140945D01*
X214961Y163386D02*
X237402Y140945D01*
X229921Y81496D02*
X239764Y91339D01*
X229528Y81496D02*
X229921D01*
X239764Y91339D02*
Y125197D01*
X177559Y116343D02*
X178145Y116929D01*
X185433D02*
X187008Y118504D01*
X177559Y95276D02*
Y116343D01*
X178145Y116929D02*
X185433D01*
X144882Y63779D02*
X188189D01*
X192913Y68504D01*
X197638D01*
X111417Y138189D02*
X200000D01*
X228740Y109449D01*
X85433Y112205D02*
X111417Y138189D01*
X60630Y112205D02*
X85433D01*
X196457Y93701D02*
X198819Y91339D01*
X196457Y93701D02*
Y116929D01*
X175984Y93701D02*
X177559Y95276D01*
X200000Y104331D02*
X227559D01*
X237402Y114173D01*
X74803Y116929D02*
Y155118D01*
X84252Y50000D02*
X86221Y51968D01*
Y73622D01*
X50394Y181890D02*
X54724Y186221D01*
X50394Y120866D02*
Y181890D01*
X54724Y186221D02*
X108661D01*
X50394Y120866D02*
X53543Y117717D01*
X60236D01*
X92126Y147638D02*
Y157087D01*
Y147638D02*
X95276Y144488D01*
X227953D01*
X229921Y142520D01*
Y133858D02*
Y142520D01*
X191870Y102224D02*
Y104587D01*
Y102224D02*
X192520Y101575D01*
X191732Y104724D02*
X191870Y104587D01*
X86614Y93701D02*
X175984D01*
X83858Y96457D02*
X86614Y93701D01*
X66929Y96457D02*
X83858D01*
X96850Y77165D02*
Y86221D01*
Y77165D02*
X117323Y56693D01*
X85433Y91732D02*
X186614D01*
X102362Y89764D02*
X103937Y88189D01*
X60900Y89764D02*
X102362D01*
X59719Y90945D02*
X60900Y89764D01*
X59449Y90945D02*
X59719D01*
X83071Y94095D02*
X85433Y91732D01*
X77559Y94095D02*
X83071D01*
X68898Y98819D02*
X77559D01*
X57480Y106693D02*
X61024D01*
X68898Y98819D01*
X192520Y90158D02*
Y101575D01*
X190551Y88189D02*
X192520Y90158D01*
X103937Y88189D02*
X190551D01*
X59842Y103543D02*
X66929Y96457D01*
X51575Y103543D02*
X59842D01*
X55905Y18898D02*
X83465D01*
X52362Y22441D02*
X55905Y18898D01*
X52362Y22441D02*
Y94882D01*
X57480Y100000D01*
X130315Y75984D02*
X185433D01*
X194488Y85039D01*
Y114961D01*
X180709Y128740D02*
X194488Y114961D01*
X161811Y128740D02*
X180709D01*
X160236Y130315D02*
X161811Y128740D01*
X160236Y130315D02*
Y133071D01*
X38583Y90674D02*
X38976Y90281D01*
X38583Y90674D02*
Y91215D01*
X38976Y56299D02*
Y90281D01*
X38583Y91215D02*
X38976Y91609D01*
Y108268D01*
X46063Y73622D02*
X48031Y75591D01*
Y122835D01*
X100000Y189764D02*
X109843D01*
X114173Y73228D02*
X164173D01*
X168110Y69291D01*
X107480Y79921D02*
X114173Y73228D01*
X103150Y196063D02*
X140157D01*
X144882Y175197D02*
Y195669D01*
X148031Y198819D01*
X105905Y182677D02*
X136221D01*
X112205Y166929D02*
X138706D01*
X139100Y167323D01*
X139370D01*
X172047Y85827D02*
X175591Y82284D01*
X187402D01*
X249213Y193701D02*
Y206299D01*
X239094Y206181D02*
X239213Y206299D01*
X239094Y186732D02*
Y206181D01*
X238976Y186614D02*
X239094Y186732D01*
X123228Y16929D02*
X127165D01*
X121260Y18898D02*
X123228Y16929D01*
X99606Y18898D02*
X121260D01*
X200394Y85433D02*
X209055D01*
X185433Y70472D02*
X200394Y85433D01*
X180315Y70472D02*
X185433D01*
D14*
X273216Y206299D02*
G03*
X273216Y206299I-4003J0D01*
G01*
X251416Y193701D02*
G03*
X250945Y195062I-2203J0D01*
G01*
X247481Y195063D02*
G03*
X251416Y193701I1732J-1362D01*
G01*
X237367Y188119D02*
G03*
X241179Y186614I1609J-1505D01*
G01*
D02*
G03*
X240836Y187796I-2203J0D01*
G01*
X243951Y143701D02*
G03*
X237153Y143603I-3400J0D01*
G01*
X241951Y140602D02*
G03*
X243951Y143701I-1400J3098D01*
G01*
Y137008D02*
G03*
X241951Y140106I-3400J0D01*
G01*
X231624Y142520D02*
G03*
X231126Y143724I-1703J0D01*
G01*
X231624Y142520D02*
G03*
X231126Y143724I-1703J0D01*
G01*
X229157Y145693D02*
G03*
X227953Y146191I-1204J-1204D01*
G01*
X229157Y145693D02*
G03*
X227953Y146191I-1204J-1204D01*
G01*
X239105Y133931D02*
G03*
X243951Y137008I1446J3077D01*
G01*
X232124Y133858D02*
G03*
X231654Y135219I-2203J0D01*
G01*
X241495Y123835D02*
G03*
X241967Y125197I-1732J1362D01*
G01*
D02*
G03*
X239105Y127299I-2203J0D01*
G01*
X216165Y164590D02*
G03*
X214961Y165089I-1204J-1204D01*
G01*
X216165Y164590D02*
G03*
X214961Y165089I-1204J-1204D01*
G01*
X228190Y135220D02*
G03*
X232124Y133858I1732J-1362D01*
G01*
X228203Y137008D02*
G03*
X228203Y137008I-3400J0D01*
G01*
X150235Y198819D02*
G03*
X145844Y199082I-2203J0D01*
G01*
X148293Y196631D02*
G03*
X150235Y198819I-261J2188D01*
G01*
X143678Y196874D02*
G03*
X143179Y195669I1204J-1204D01*
G01*
X143678Y196874D02*
G03*
X143179Y195669I1204J-1204D01*
G01*
X147085Y175197D02*
G03*
X146615Y176558I-2203J0D01*
G01*
X143150Y176559D02*
G03*
X147085Y175197I1732J-1362D01*
G01*
X181082Y153891D02*
G03*
X183321Y157087I-1161J3196D01*
G01*
D02*
G03*
X177062Y155246I-3400J0D01*
G01*
X201204Y139393D02*
G03*
X200000Y139892I-1204J-1204D01*
G01*
X201204Y139393D02*
G03*
X200000Y139892I-1204J-1204D01*
G01*
X178347Y151840D02*
G03*
X179551Y152339I0J1703D01*
G01*
X178347Y151840D02*
G03*
X179551Y152339I0J1703D01*
G01*
X181913Y129945D02*
G03*
X180709Y130443I-1204J-1204D01*
G01*
X181913Y129945D02*
G03*
X180709Y130443I-1204J-1204D01*
G01*
X186415Y120626D02*
G03*
X185606Y120203I593J-2122D01*
G01*
X185606D02*
G03*
X182067Y121388I-2141J-518D01*
G01*
X182124Y122047D02*
G03*
X180765Y124082I-2203J0D01*
G01*
X182024Y121388D02*
G03*
X182124Y122047I-2102J659D01*
G01*
X169148Y126378D02*
G03*
X169083Y127037I-3400J0D01*
G01*
X180040Y124826D02*
G03*
X178835Y125325I-1204J-1204D01*
G01*
X180040Y124826D02*
G03*
X178835Y125325I-1204J-1204D01*
G01*
X177722Y121919D02*
G03*
X177819Y121388I2199J128D01*
G01*
X168981Y125325D02*
G03*
X169148Y126378I-3233J1053D01*
G01*
X168110Y155246D02*
G03*
X166906Y154748I0J-1703D01*
G01*
X168110Y155246D02*
G03*
X166906Y154748I0J-1703D01*
G01*
X166535Y150265D02*
G03*
X167740Y150764I0J1703D01*
G01*
X163179Y153672D02*
G03*
X163179Y150265I-2943J-1703D01*
G01*
X166535D02*
G03*
X167740Y150764I0J1703D01*
G01*
X162439Y133071D02*
G03*
X158503Y131710I-2203J0D01*
G01*
X161968Y131709D02*
G03*
X162439Y133071I-1732J1362D01*
G01*
X160607Y127536D02*
G03*
X161811Y127037I1204J1204D01*
G01*
X158533Y130315D02*
G03*
X159032Y129111I1703J0D01*
G01*
X160607Y127536D02*
G03*
X161811Y127037I1204J1204D01*
G01*
X162413D02*
G03*
X162515Y125325I3336J-659D01*
G01*
X158533Y130315D02*
G03*
X159032Y129111I1703J0D01*
G01*
X230862Y110042D02*
G03*
X229003Y111636I-2122J-593D01*
G01*
X226553Y109187D02*
G03*
X228147Y107327I2188J261D01*
G01*
X227559Y102628D02*
G03*
X228763Y103126I0J1703D01*
G01*
X227559Y102628D02*
G03*
X228763Y103126I0J1703D01*
G01*
X201362Y106062D02*
G03*
X198160Y105542I-1362J-1732D01*
G01*
Y103119D02*
G03*
X201361Y102598I1840J1211D01*
G01*
X240968Y90134D02*
G03*
X241467Y91339I-1204J1204D01*
G01*
X240968Y90134D02*
G03*
X241467Y91339I-1204J1204D01*
G01*
X230156Y88583D02*
G03*
X227845Y90783I-2203J0D01*
G01*
X228860Y86575D02*
G03*
X230156Y88583I-908J2008D01*
G01*
X227845Y90783D02*
G03*
X226895Y91073I-951J-1413D01*
G01*
X229736Y83719D02*
G03*
X229778Y84252I-3358J533D01*
G01*
D02*
G03*
X228860Y86575I-3400J0D01*
G01*
X227845Y90783D02*
G03*
X226895Y91073I-951J-1413D01*
G01*
X225968Y87627D02*
G03*
X224675Y81309I410J-3375D01*
G01*
X229365Y79299D02*
G03*
X231565Y80659I163J2197D01*
G01*
X229656Y78347D02*
G03*
X229365Y79299I-1703J0D01*
G01*
X229656Y78347D02*
G03*
X229365Y79299I-1703J0D01*
G01*
X224675Y79921D02*
G03*
X225174Y78717I1703J0D01*
G01*
X224675Y79921D02*
G03*
X225174Y78717I1703J0D01*
G01*
X231353Y65748D02*
G03*
X229656Y68691I-3400J0D01*
G01*
X226250D02*
G03*
X231353Y65748I1703J-2943D01*
G01*
X207377Y83365D02*
G03*
X211583Y85748I1428J2383D01*
G01*
X206796Y87667D02*
G03*
X206565Y87391I2009J-1919D01*
G01*
X211583Y85748D02*
G03*
X210813Y87667I-2778J0D01*
G01*
X201022Y91339D02*
G03*
X199082Y93526I-2203J0D01*
G01*
X200899Y87136D02*
G03*
X201204Y87378I-899J1446D01*
G01*
X200899Y87136D02*
G03*
X201204Y87378I-899J1446D01*
G01*
X196276Y66772D02*
G03*
X199841Y68504I1362J1732D01*
G01*
D02*
G03*
X196277Y70237I-2203J0D01*
G01*
X198660Y116929D02*
G03*
X194335Y117523I-2203J0D01*
G01*
X198188Y115567D02*
G03*
X198660Y116929I-1732J1362D01*
G01*
X192785Y106660D02*
G03*
X190143Y103199I-1053J-1935D01*
G01*
X196631Y91077D02*
G03*
X197119Y89937I2188J261D01*
G01*
Y89937D02*
G03*
X196191Y89457I518J-2141D01*
G01*
Y86133D02*
G03*
X198223Y85671I1446J1662D01*
G01*
X190551Y86486D02*
G03*
X191755Y86985I0J1703D01*
G01*
X190551Y86486D02*
G03*
X191755Y86985I0J1703D01*
G01*
X187269Y116316D02*
G03*
X189130Y117911I-261J2188D01*
G01*
X185433Y115226D02*
G03*
X186637Y115725I0J1703D01*
G01*
X185433Y115226D02*
G03*
X186637Y115725I0J1703D01*
G01*
X190167Y102224D02*
G03*
X190666Y101020I1703J0D01*
G01*
X190167Y102224D02*
G03*
X190666Y101020I1703J0D01*
G01*
X188817Y91732D02*
G03*
X185253Y93465I-2203J0D01*
G01*
X187826Y89892D02*
G03*
X188817Y91732I-1211J1840D01*
G01*
X195693Y83835D02*
G03*
X196191Y85039I-1204J1204D01*
G01*
X195693Y83835D02*
G03*
X196191Y85039I-1204J1204D01*
G01*
X189589Y82548D02*
G03*
X186041Y84016I-2187J-265D01*
G01*
X186039Y80552D02*
G03*
X187136Y80096I1362J1732D01*
G01*
X185433Y74281D02*
G03*
X186637Y74780I0J1703D01*
G01*
X185433Y74281D02*
G03*
X186637Y74780I0J1703D01*
G01*
X176355Y117548D02*
G03*
X175856Y116343I1204J-1204D01*
G01*
X178763Y94071D02*
G03*
X179262Y95276I-1204J1204D01*
G01*
X178763Y94071D02*
G03*
X179262Y95276I-1204J1204D01*
G01*
X176355Y117548D02*
G03*
X175856Y116343I1204J-1204D01*
G01*
X174386Y81079D02*
G03*
X175591Y80580I1204J1204D01*
G01*
X174386Y81079D02*
G03*
X175591Y80580I1204J1204D01*
G01*
X182186Y72526D02*
G03*
X182186Y68419I-1871J-2053D01*
G01*
X192913Y70207D02*
G03*
X191709Y69708I0J-1703D01*
G01*
X192913Y70207D02*
G03*
X191709Y69708I0J-1703D01*
G01*
X185433Y68769D02*
G03*
X186637Y69268I0J1703D01*
G01*
X185433Y68769D02*
G03*
X186637Y69268I0J1703D01*
G01*
X188189Y62076D02*
G03*
X189393Y62575I0J1703D01*
G01*
X188189Y62076D02*
G03*
X189393Y62575I0J1703D01*
G01*
X170313Y69291D02*
G03*
X168373Y71479I-2203J0D01*
G01*
X165923Y69030D02*
G03*
X170313Y69291I2188J261D01*
G01*
X146244Y65511D02*
G03*
X146243Y62047I-1362J-1732D01*
G01*
X142361Y196063D02*
G03*
X138797Y197796I-2203J0D01*
G01*
X138795Y194331D02*
G03*
X142361Y196063I1362J1732D01*
G01*
X134858Y180946D02*
G03*
X138424Y182677I1362J1732D01*
G01*
D02*
G03*
X134860Y184410I-2203J0D01*
G01*
X112046Y189764D02*
G03*
X108482Y191497I-2203J0D01*
G01*
X110361Y187622D02*
G03*
X112046Y189764I-518J2141D01*
G01*
X110865Y186221D02*
G03*
X110361Y187622I-2203J0D01*
G01*
X109873Y184380D02*
G03*
X110865Y186221I-1211J1840D01*
G01*
X104694Y184517D02*
G03*
X107266Y180945I1211J-1840D01*
G01*
X104512Y197795D02*
G03*
X104510Y194330I-1362J-1732D01*
G01*
X101362Y191495D02*
G03*
X98788Y187924I-1362J-1732D01*
G01*
X141573Y167323D02*
G03*
X137598Y168632I-2203J0D01*
G01*
X138835Y165186D02*
G03*
X141573Y167323I535J2137D01*
G01*
X113567Y168661D02*
G03*
X110993Y165089I-1362J-1732D01*
G01*
X138799Y121388D02*
G03*
X138799Y117982I-1398J-1703D01*
G01*
X111417Y139892D02*
G03*
X110213Y139393I0J-1703D01*
G01*
X111417Y139892D02*
G03*
X110213Y139393I0J-1703D01*
G01*
X106943Y100394D02*
G03*
X100546Y101998I-3400J0D01*
G01*
X105342Y126594D02*
G03*
X104033Y128396I-2193J-216D01*
G01*
X101131Y125494D02*
G03*
X102934Y124185I2018J883D01*
G01*
X104701Y122418D02*
G03*
X105905Y121919I1204J1204D01*
G01*
X104701Y122418D02*
G03*
X105905Y121919I1204J1204D01*
G01*
X93524Y165089D02*
G03*
X93524Y161683I-1398J-1703D01*
G01*
X54724Y187924D02*
G03*
X53520Y187425I0J-1703D01*
G01*
X54724Y187924D02*
G03*
X53520Y187425I0J-1703D01*
G01*
X49189Y183094D02*
G03*
X48691Y181890I1204J-1204D01*
G01*
X49189Y183094D02*
G03*
X48691Y181890I1204J-1204D01*
G01*
X93858Y155725D02*
G03*
X94329Y157087I-1732J1362D01*
G01*
D02*
G03*
X90393Y155726I-2203J0D01*
G01*
X77006Y155118D02*
G03*
X73070Y153757I-2203J0D01*
G01*
X76535Y153756D02*
G03*
X77006Y155118I-1732J1362D01*
G01*
X15014Y171674D02*
G03*
X10236Y175317I-3778J0D01*
G01*
X15014Y171674D02*
G03*
X10236Y175317I-3778J0D01*
G01*
D02*
G03*
X10236Y168031I-1000J-3643D01*
G01*
Y175317D02*
G03*
X10236Y168031I-1000J-3643D01*
G01*
D02*
G03*
X15014Y171674I1000J3643D01*
G01*
X10236Y168031D02*
G03*
X15014Y171674I1000J3643D01*
G01*
X24581Y167674D02*
G03*
X24614Y168174I-3745J500D01*
G01*
Y167174D02*
G03*
X24581Y167674I-3778J0D01*
G01*
D02*
G03*
X24614Y168174I-3745J500D01*
G01*
Y167174D02*
G03*
X24581Y167674I-3778J0D01*
G01*
X24614Y168174D02*
G03*
X17091Y167674I-3778J0D01*
G01*
X24614Y168174D02*
G03*
X17091Y167674I-3778J0D01*
G01*
D02*
G03*
X24614Y167174I3745J-500D01*
G01*
Y148574D02*
G03*
X17091Y148074I-3778J0D01*
G01*
X24614Y148574D02*
G03*
X17091Y148074I-3778J0D01*
G01*
Y167674D02*
G03*
X24614Y167174I3745J-500D01*
G01*
X94071Y143284D02*
G03*
X95276Y142785I1204J1204D01*
G01*
X94071Y143284D02*
G03*
X95276Y142785I1204J1204D01*
G01*
X90423Y147638D02*
G03*
X90922Y146433I1703J0D01*
G01*
X90423Y147638D02*
G03*
X90922Y146433I1703J0D01*
G01*
X77006Y116929D02*
G03*
X76536Y118290I-2203J0D01*
G01*
X85433Y110502D02*
G03*
X86637Y111000I0J1703D01*
G01*
X73071Y118291D02*
G03*
X77006Y116929I1732J-1362D01*
G01*
X62439Y117717D02*
G03*
X58876Y119449I-2203J0D01*
G01*
X52339Y116512D02*
G03*
X53543Y116013I1204J1204D01*
G01*
X52339Y116512D02*
G03*
X53543Y116013I1204J1204D01*
G01*
X58874Y115985D02*
G03*
X62439Y117717I1362J1732D01*
G01*
X85433Y110502D02*
G03*
X86637Y111000I0J1703D01*
G01*
X79661Y98160D02*
G03*
X79762Y98819I-2102J659D01*
G01*
D02*
G03*
X76198Y100552I-2203J0D01*
G01*
X61992Y113936D02*
G03*
X61991Y110472I-1362J-1732D01*
G01*
X58842Y108424D02*
G03*
X55818Y105246I-1362J-1732D01*
G01*
X62228Y107897D02*
G03*
X61024Y108396I-1204J-1204D01*
G01*
X62228Y107897D02*
G03*
X61024Y108396I-1204J-1204D01*
G01*
X59684Y100000D02*
G03*
X58692Y101840I-2203J0D01*
G01*
X56269D02*
G03*
X55293Y100263I1211J-1840D01*
G01*
X24581Y148074D02*
G03*
X24614Y148574I-3745J500D01*
G01*
X24581Y148074D02*
G03*
X24614Y148574I-3745J500D01*
G01*
Y147574D02*
G03*
X24581Y148074I-3778J0D01*
G01*
X24614Y147574D02*
G03*
X24581Y148074I-3778J0D01*
G01*
X17091D02*
G03*
X24614Y147574I3745J-500D01*
G01*
X15014Y144074D02*
G03*
X10236Y147717I-3778J0D01*
G01*
X15014Y144074D02*
G03*
X10236Y147717I-3778J0D01*
G01*
X17091Y148074D02*
G03*
X24614Y147574I3745J-500D01*
G01*
X10236Y147717D02*
G03*
X10236Y140431I-1000J-3643D01*
G01*
Y147717D02*
G03*
X10236Y140431I-1000J-3643D01*
G01*
D02*
G03*
X15014Y144074I1000J3643D01*
G01*
X10236Y140431D02*
G03*
X15014Y144074I1000J3643D01*
G01*
X48691Y124937D02*
G03*
X46299Y121474I-659J-2102D01*
G01*
X52937Y105275D02*
G03*
X49735Y104755I-1362J-1732D01*
G01*
Y102332D02*
G03*
X52935Y101811I1840J1211D01*
G01*
X41179Y108268D02*
G03*
X37244Y106907I-2203J0D01*
G01*
X40708Y106906D02*
G03*
X41179Y108268I-1732J1362D01*
G01*
X131677Y77716D02*
G03*
X128380Y74932I-1362J-1732D01*
G01*
X112969Y72024D02*
G03*
X114173Y71525I1204J1204D01*
G01*
X112969Y72024D02*
G03*
X114173Y71525I1204J1204D01*
G01*
X128597Y68504D02*
G03*
X126756Y71525I-3400J0D01*
G01*
X126597Y65406D02*
G03*
X128597Y68504I-1400J3098D01*
G01*
X126187Y56884D02*
G03*
X126597Y57874I-990J990D01*
G01*
X123637Y71525D02*
G03*
X123797Y65406I1560J-3021D01*
G01*
X126187Y56884D02*
G03*
X126597Y57874I-990J990D01*
G01*
X120101Y56693D02*
G03*
X117452Y59468I-2778J0D01*
G01*
X100546Y98789D02*
G03*
X106943Y100394I2998J1605D01*
G01*
X102733Y86985D02*
G03*
X103937Y86486I1204J1204D01*
G01*
X104984D02*
G03*
X108484Y84124I2102J-659D01*
G01*
X99054Y86221D02*
G03*
X98062Y88061I-2203J0D01*
G01*
X97092Y101998D02*
G03*
X97092Y98789I-2998J-1605D01*
G01*
X95639Y88061D02*
G03*
X95118Y84860I1211J-1840D01*
G01*
X102733Y86985D02*
G03*
X103937Y86486I1204J1204D01*
G01*
X98582Y84858D02*
G03*
X99054Y86221I-1732J1362D01*
G01*
X109668Y80182D02*
G03*
X107217Y77734I-2188J-261D01*
G01*
X109306Y56299D02*
G03*
X107026Y53089I-3400J0D01*
G01*
X95147Y77165D02*
G03*
X95646Y75961I1703J0D01*
G01*
X95147Y77165D02*
G03*
X95646Y75961I1703J0D01*
G01*
X129943Y16929D02*
G03*
X125294Y18982I-2778J0D01*
G01*
Y14876D02*
G03*
X129943Y16929I1871J2053D01*
G01*
X122024Y15725D02*
G03*
X123228Y15226I1204J1204D01*
G01*
X119291Y50568D02*
G03*
X120281Y50979I0J1400D01*
G01*
X119291Y50568D02*
G03*
X120281Y50979I0J1400D01*
G01*
X114548Y56564D02*
G03*
X120101Y56693I2775J129D01*
G01*
X122464Y20102D02*
G03*
X121260Y20601I-1204J-1204D01*
G01*
X122464Y20102D02*
G03*
X121260Y20601I-1204J-1204D01*
G01*
X122024Y15725D02*
G03*
X123228Y15226I1204J1204D01*
G01*
X113335Y53369D02*
G03*
X109116Y55178I-3098J-1400D01*
G01*
X109116Y55178D02*
G03*
X109306Y56299I-3210J1121D01*
G01*
X107026Y53089D02*
G03*
X113335Y50568I3210J-1121D01*
G01*
X101478Y20951D02*
G03*
X101478Y16844I-1871J-2053D01*
G01*
X101090Y8661D02*
G03*
X101090Y8661I-4003J0D01*
G01*
X85063Y97661D02*
G03*
X83858Y98160I-1204J-1204D01*
G01*
X85063Y97661D02*
G03*
X83858Y98160I-1204J-1204D01*
G01*
X75457Y94753D02*
G03*
X78920Y92362I2102J-659D01*
G01*
X57742Y97812D02*
G03*
X59684Y100000I-261J2188D01*
G01*
X51158Y96086D02*
G03*
X50659Y94882I1204J-1204D01*
G01*
X65725Y95252D02*
G03*
X66929Y94753I1204J1204D01*
G01*
X65725Y95252D02*
G03*
X66929Y94753I1204J1204D01*
G01*
X51158Y96086D02*
G03*
X50659Y94882I1204J-1204D01*
G01*
X88424Y73622D02*
G03*
X84488Y72261I-2203J0D01*
G01*
X87952Y72260D02*
G03*
X88424Y73622I-1732J1362D01*
G01*
X61561Y91571D02*
G03*
X59482Y88742I-2112J-626D01*
G01*
X59696Y88560D02*
G03*
X60900Y88061I1204J1204D01*
G01*
X59696Y88560D02*
G03*
X60900Y88061I1204J1204D01*
G01*
X49236Y74386D02*
G03*
X49735Y75591I-1204J1204D01*
G01*
X40720Y90410D02*
G03*
X40786Y90945I-2137J535D01*
G01*
D02*
G03*
X40731Y91431I-2203J0D01*
G01*
X37273Y92717D02*
G03*
X37273Y89173I1309J-1772D01*
G01*
X49236Y74386D02*
G03*
X49735Y75591I-1204J1204D01*
G01*
X45802Y75810D02*
G03*
X48250Y73359I261J-2188D01*
G01*
X83991Y52188D02*
G03*
X86439Y49737I261J-2188D01*
G01*
X87425Y50764D02*
G03*
X87924Y51968I-1204J1204D01*
G01*
X82306Y52362D02*
G03*
X82306Y52362I-2778J0D01*
G01*
X87425Y50764D02*
G03*
X87924Y51968I-1204J1204D01*
G01*
X41179Y56299D02*
G03*
X40709Y57660I-2203J0D01*
G01*
X37245Y57661D02*
G03*
X41179Y56299I1732J-1362D01*
G01*
X50659Y22441D02*
G03*
X51158Y21237I1703J0D01*
G01*
X50659Y22441D02*
G03*
X51158Y21237I1703J0D01*
G01*
X85668Y18898D02*
G03*
X82104Y20630I-2203J0D01*
G01*
X82102Y17166D02*
G03*
X85668Y18898I1362J1732D01*
G01*
X54701Y17693D02*
G03*
X55905Y17195I1204J1204D01*
G01*
X54701Y17693D02*
G03*
X55905Y17195I1204J1204D01*
G01*
X267890Y210078D02*
Y214939D01*
X269890Y210245D02*
Y214939D01*
X261890Y209627D02*
Y214939D01*
X265890Y208532D02*
Y214939D01*
X271890Y209276D02*
Y214939D01*
X261214Y210302D02*
X263216Y208301D01*
X259890Y210302D02*
Y214939D01*
X257211Y210302D02*
X261214D01*
X257890D02*
Y214939D01*
X255209Y208301D02*
X257211Y210302D01*
X255890Y208981D02*
Y214939D01*
X270983Y209890D02*
X273994D01*
X272886Y207890D02*
X273994D01*
X263216D02*
X265539D01*
X273195Y205890D02*
X273994D01*
X263216D02*
X265230D01*
X251627Y209890D02*
X256798D01*
X261627D02*
X267442D01*
X255209Y204298D02*
Y208301D01*
X263216Y204298D02*
Y208301D01*
X252808Y203890D02*
X255617D01*
X249890Y210302D02*
Y214939D01*
X251890Y209627D02*
Y214939D01*
X247890Y210302D02*
Y214939D01*
X245890Y208981D02*
Y214939D01*
X245210Y208301D02*
X247211Y210302D01*
X241890Y209627D02*
Y214939D01*
X239890Y210302D02*
Y214939D01*
X237211Y210302D02*
X241214D01*
X237890D02*
Y214939D01*
X241214Y210302D02*
X243216Y208301D01*
X235890Y208981D02*
Y214939D01*
X251214Y210302D02*
X253216Y208301D01*
Y207890D02*
X255209D01*
X247211Y210302D02*
X251214D01*
X253216Y205890D02*
X255209D01*
X253216Y204298D02*
Y208301D01*
X241627Y209890D02*
X246798D01*
X243216Y205890D02*
X245210D01*
X243216Y207890D02*
X245210D01*
Y204298D02*
Y208301D01*
X243216Y204298D02*
Y208301D01*
X262808Y203890D02*
X266016D01*
X272409D02*
X273994D01*
X261214Y202296D02*
X263216Y204298D01*
X259890Y127515D02*
Y202296D01*
X257890Y127798D02*
Y202296D01*
X255209Y204298D02*
X257211Y202296D01*
X261214D01*
X251214D02*
X253216Y204298D01*
X255890Y127798D02*
Y203617D01*
X253890Y126334D02*
Y214939D01*
X250916Y197890D02*
X273994D01*
X250916Y195890D02*
X273994D01*
X250916Y199890D02*
X273994D01*
X251408Y193890D02*
X273994D01*
X250916Y201890D02*
X273994D01*
X250467Y191890D02*
X273994D01*
X240827Y187890D02*
X273994D01*
X240798Y189890D02*
X273994D01*
X245210Y204298D02*
X247211Y202296D01*
X247510Y195309D02*
Y202296D01*
X242808Y203890D02*
X245617D01*
X243890Y144344D02*
Y214939D01*
X245890Y127798D02*
Y203617D01*
X241890Y146826D02*
Y202972D01*
X241214Y202296D02*
X243216Y204298D01*
X240798Y202296D02*
X241214D01*
X237391Y188341D02*
Y202296D01*
X240798Y188128D02*
Y202296D01*
X235890Y144865D02*
Y203617D01*
X250916Y195297D02*
Y202296D01*
X240798Y191890D02*
X247958D01*
X240798Y193890D02*
X247018D01*
X249890Y127515D02*
Y191604D01*
X247890Y127798D02*
Y191939D01*
X240798Y199890D02*
X247510D01*
X240798Y197890D02*
X247510D01*
X240798Y201890D02*
X247510D01*
X240798Y195890D02*
X247510D01*
X229890Y210302D02*
Y214939D01*
X227211Y210302D02*
X231214D01*
X227890D02*
Y214939D01*
X231890Y209627D02*
Y214939D01*
X225209Y208301D02*
X227211Y210302D01*
X225890Y208981D02*
Y214939D01*
X219890Y210302D02*
Y214939D01*
X217211Y210302D02*
X221214D01*
X217890D02*
Y214939D01*
X221214Y210302D02*
X223216Y208301D01*
X221890Y209627D02*
Y214939D01*
X235209Y208301D02*
X237211Y210302D01*
X233216Y205890D02*
X235209D01*
X233216Y207890D02*
X235209D01*
Y204298D02*
Y208301D01*
X233216Y204298D02*
Y208301D01*
X231214Y210302D02*
X233216Y208301D01*
X231627Y209890D02*
X236798D01*
X221627D02*
X226798D01*
X223216Y205890D02*
X225209D01*
X223216Y207890D02*
X225209D01*
X209890Y210302D02*
Y214939D01*
X211890Y209627D02*
Y214939D01*
X207890Y210302D02*
Y214939D01*
X215890Y208981D02*
Y214939D01*
X215210Y208301D02*
X217211Y210302D01*
X211214D02*
X213216Y208301D01*
X205890Y208981D02*
Y214939D01*
X207211Y210302D02*
X211214D01*
X201890Y209627D02*
Y214939D01*
X205209Y208301D02*
X207211Y210302D01*
X201214D02*
X203216Y208301D01*
X211627Y209890D02*
X216798D01*
X213216Y205890D02*
X215210D01*
X213216Y207890D02*
X215210D01*
Y204298D02*
Y208301D01*
X213216Y204298D02*
Y208301D01*
X201627Y209890D02*
X206798D01*
X203216Y205890D02*
X205209D01*
X203216Y207890D02*
X205209D01*
Y204298D02*
Y208301D01*
X203216Y204298D02*
Y208301D01*
X231214Y202296D02*
X233216Y204298D01*
X232808Y203890D02*
X235617D01*
X225209Y204298D02*
X227211Y202296D01*
X233890Y146865D02*
Y214939D01*
X235209Y204298D02*
X237211Y202296D01*
X225890Y154865D02*
Y203617D01*
X225209Y204298D02*
Y208301D01*
X222808Y203890D02*
X225617D01*
X223216Y204298D02*
Y208301D01*
X223890Y156865D02*
Y214939D01*
X221214Y202296D02*
X223216Y204298D01*
X227211Y202296D02*
X231214D01*
X150029Y197890D02*
X237391D01*
X227890Y152865D02*
Y202296D01*
X231890Y148865D02*
Y202972D01*
X229890Y150865D02*
Y202296D01*
X147511Y195890D02*
X237391D01*
X146585Y193890D02*
X237391D01*
X149957Y199890D02*
X237391D01*
X146585Y189890D02*
X237391D01*
X146585Y191890D02*
X237391D01*
X215210Y204298D02*
X217211Y202296D01*
X212808Y203890D02*
X215617D01*
X211214Y202296D02*
X213216Y204298D01*
X215890Y164813D02*
Y203617D01*
X213890Y165089D02*
Y214939D01*
X205209Y204298D02*
X207211Y202296D01*
X202808Y203890D02*
X205617D01*
X201214Y202296D02*
X203216Y204298D01*
X205890Y165089D02*
Y203617D01*
X203890Y165089D02*
Y214939D01*
X217890Y162865D02*
Y202296D01*
X217211D02*
X221214D01*
X211890Y165089D02*
Y202972D01*
X221890Y158865D02*
Y202972D01*
X219890Y160865D02*
Y202296D01*
X201890Y165089D02*
Y202972D01*
X207211Y202296D02*
X211214D01*
X197211D02*
X201214D01*
X209890Y165089D02*
Y202296D01*
X207890Y165089D02*
Y202296D01*
X241057Y185890D02*
X273994D01*
X243153Y145890D02*
X273994D01*
X243946Y143890D02*
X273994D01*
X230865Y149890D02*
X273994D01*
X232865Y147890D02*
X273994D01*
X228865Y151890D02*
X273994D01*
X239890Y147036D02*
Y184609D01*
X242355Y139890D02*
X273994D01*
X243835Y137890D02*
X273994D01*
X243429Y141890D02*
X273994D01*
X243762Y135890D02*
X273994D01*
X243890Y137651D02*
Y143057D01*
X241951Y140106D02*
Y140602D01*
X241907Y133890D02*
X273994D01*
X237890Y145817D02*
Y184698D01*
X234865Y145890D02*
X237950D01*
X230960Y143890D02*
X232048D01*
X231890Y134848D02*
Y144048D01*
X228920Y145890D02*
X230048D01*
X229157Y145693D02*
X231126Y143724D01*
X229890Y144960D02*
Y146048D01*
X239105Y140085D02*
Y140624D01*
X239151Y140106D02*
Y140602D01*
X231624Y137890D02*
X235698D01*
X232124Y133890D02*
X235698D01*
X231624Y135890D02*
X235698D01*
X231624Y141890D02*
X234048D01*
X231624Y139890D02*
X235698D01*
X228218Y135466D02*
Y141814D01*
X231624Y135454D02*
Y142520D01*
X227890Y134711D02*
Y135582D01*
X255353Y127798D02*
X259608D01*
X261515Y125890D02*
X273994D01*
X253226Y125671D02*
X255353Y127798D01*
X259608D02*
X261735Y125671D01*
Y121416D02*
Y125671D01*
X253226Y121416D02*
Y125671D01*
X239105Y129890D02*
X273994D01*
X239105Y127890D02*
X273994D01*
X239105Y131890D02*
X273994D01*
X251515Y125890D02*
X253445D01*
X251735Y121416D02*
Y125671D01*
X261735Y121890D02*
X273994D01*
X260208Y119890D02*
X273994D01*
X261735Y123890D02*
X273994D01*
X259608Y119289D02*
X261735Y121416D01*
X255353Y119289D02*
X259608D01*
X251735Y121890D02*
X253226D01*
X250208Y119890D02*
X254752D01*
X251735Y123890D02*
X253226D01*
Y121416D02*
X255353Y119289D01*
X249607D02*
X251735Y121416D01*
X243890Y126334D02*
Y136364D01*
X245353Y127798D02*
X249607D01*
X243226Y125671D02*
X245353Y127798D01*
X241890Y125775D02*
Y133882D01*
X230911Y131890D02*
X235698D01*
X239890Y127396D02*
Y133673D01*
X239105Y127299D02*
Y133931D01*
X249607Y127798D02*
X251735Y125671D01*
X241855Y125890D02*
X243445D01*
X243226Y121416D02*
Y125671D01*
X245353Y119289D02*
X249607D01*
X243226Y121416D02*
X245353Y119289D01*
X241537Y123890D02*
X243226D01*
X241467Y119890D02*
X244752D01*
X241467Y121890D02*
X243226D01*
X146585Y179890D02*
X273994D01*
X146585Y177890D02*
X273994D01*
X146585Y181890D02*
X273994D01*
X146973Y175890D02*
X273994D01*
X146655Y173890D02*
X273994D01*
X216165Y164590D02*
X237153Y143603D01*
X146585Y187890D02*
X237180D01*
X146585Y183890D02*
X273994D01*
X146585Y185890D02*
X236896D01*
X141043Y165890D02*
X273994D01*
X141499Y167890D02*
X273994D01*
X224865Y155890D02*
X273994D01*
X226865Y153890D02*
X273994D01*
X222865Y157890D02*
X273994D01*
X227247Y142785D02*
X228218Y141814D01*
X227890Y146191D02*
Y148048D01*
X218865Y161890D02*
X273994D01*
X220865Y159890D02*
X273994D01*
X216865Y163890D02*
X273994D01*
X214255Y161683D02*
X235698Y140239D01*
X162927Y149890D02*
X226048D01*
X209890Y146191D02*
Y161683D01*
X213890Y146191D02*
Y161683D01*
X215890Y146191D02*
Y160048D01*
X211890Y146191D02*
Y161683D01*
X203890Y146191D02*
Y161683D01*
X181845Y159890D02*
X216048D01*
X201890Y146191D02*
Y161683D01*
X207890Y146191D02*
Y161683D01*
X205890Y146191D02*
Y161683D01*
X221890Y146191D02*
Y154048D01*
X223890Y146191D02*
Y152048D01*
X219890Y146191D02*
Y156048D01*
X225890Y146191D02*
Y150048D01*
X223890Y140283D02*
Y142785D01*
X183104Y155890D02*
X220048D01*
X181081Y153890D02*
X222048D01*
X183225Y157890D02*
X218048D01*
X178754Y151890D02*
X224048D01*
X217890Y146191D02*
Y158048D01*
X227890Y138434D02*
Y142143D01*
X226607Y139890D02*
X228218D01*
X225890Y140230D02*
Y142785D01*
X200090Y139890D02*
X222999D01*
X221890Y138761D02*
Y142785D01*
Y118708D02*
Y135255D01*
X216708Y123890D02*
X235698D01*
X218708Y121890D02*
X235698D01*
X226159Y133890D02*
X227718D01*
X222708Y117890D02*
X235698D01*
X220708Y119890D02*
X235698D01*
X208708Y131890D02*
X228932D01*
X210708Y129890D02*
X235698D01*
X206708Y133890D02*
X223448D01*
X214708Y125890D02*
X235698D01*
X212708Y127890D02*
X235698D01*
X213890Y126708D02*
Y142785D01*
X215890Y124708D02*
Y142785D01*
X211890Y128708D02*
Y142785D01*
X219890Y120708D02*
Y142785D01*
X217890Y122708D02*
Y142785D01*
X203890Y136708D02*
Y142785D01*
X205890Y134708D02*
Y142785D01*
X201890Y138708D02*
Y142785D01*
X209890Y130708D02*
Y142785D01*
X207890Y132708D02*
Y142785D01*
X202708Y137890D02*
X221519D01*
X204708Y135890D02*
X221592D01*
X187968Y123890D02*
X211891D01*
X191968Y119890D02*
X215891D01*
X189968Y121890D02*
X213891D01*
X162096Y131890D02*
X203891D01*
X181968Y129890D02*
X205891D01*
X162282Y133890D02*
X201891D01*
X185968Y125890D02*
X209891D01*
X183968Y127890D02*
X207891D01*
X197890Y210302D02*
Y214939D01*
X199890Y210302D02*
Y214939D01*
X195890Y208981D02*
Y214939D01*
X190033Y210302D02*
X192035Y208301D01*
X195209D02*
X197211Y210302D01*
X191890Y208446D02*
Y214939D01*
X189890Y210302D02*
Y214939D01*
X186030Y210302D02*
X190033D01*
X187890D02*
Y214939D01*
X184028Y208301D02*
X186030Y210302D01*
X185890Y210162D02*
Y214939D01*
X197211Y210302D02*
X201214D01*
X192035Y205890D02*
X195209D01*
X192035Y207890D02*
X195209D01*
Y204298D02*
Y208301D01*
X192035Y204298D02*
Y208301D01*
X180446Y209890D02*
X185617D01*
X190446D02*
X196798D01*
X184028Y204298D02*
Y208301D01*
X191627Y203890D02*
X195617D01*
X181627D02*
X184436D01*
X177890Y210302D02*
Y214939D01*
X179890Y210302D02*
Y214939D01*
X175890Y210162D02*
Y214939D01*
X181890Y208446D02*
Y214939D01*
X174028Y208301D02*
X176030Y210302D01*
X171890Y208446D02*
Y214939D01*
X169890Y210302D02*
Y214939D01*
X166030Y210302D02*
X170033D01*
X167890D02*
Y214939D01*
X170033Y210302D02*
X172035Y208301D01*
X165890Y210162D02*
Y214939D01*
X180033Y210302D02*
X182035Y208301D01*
Y207890D02*
X184028D01*
X176030Y210302D02*
X180033D01*
X182035Y205890D02*
X184028D01*
X182035Y204298D02*
Y208301D01*
X170446Y209890D02*
X175617D01*
X172035Y205890D02*
X174028D01*
X172035Y207890D02*
X174028D01*
Y204298D02*
Y208301D01*
X172035Y204298D02*
Y208301D01*
X190033Y202296D02*
X192035Y204298D01*
X195209D02*
X197211Y202296D01*
X187890Y165089D02*
Y202296D01*
X193890Y165089D02*
Y214939D01*
X195890Y165089D02*
Y203617D01*
X191890Y165089D02*
Y204153D01*
X180033Y202296D02*
X182035Y204298D01*
X184028D02*
X186030Y202296D01*
X181890Y165089D02*
Y204153D01*
X185890Y165089D02*
Y202436D01*
X183890Y165089D02*
Y214939D01*
X197890Y165089D02*
Y202296D01*
X199890Y165089D02*
Y202296D01*
X191890Y146191D02*
Y161683D01*
X195890Y146191D02*
Y161683D01*
X193890Y146191D02*
Y161683D01*
X189890Y165089D02*
Y202296D01*
X186030D02*
X190033D01*
X183890Y146191D02*
Y161683D01*
X189890Y146191D02*
Y161683D01*
X185890Y146191D02*
Y161683D01*
X174028Y204298D02*
X176030Y202296D01*
X171627Y203890D02*
X174436D01*
X171890Y165089D02*
Y204153D01*
X175890Y165089D02*
Y202436D01*
X177890Y165089D02*
Y202296D01*
X173890Y165089D02*
Y214939D01*
X170033Y202296D02*
X172035Y204298D01*
X166030Y202296D02*
X170033D01*
X165890Y165089D02*
Y202436D01*
X169890Y165089D02*
Y202296D01*
X167890Y165089D02*
Y202296D01*
X176030D02*
X180033D01*
X179890Y160486D02*
Y161683D01*
Y165089D02*
Y202296D01*
X181890Y159859D02*
Y161683D01*
X175890Y155246D02*
Y161683D01*
X171890Y155246D02*
Y161683D01*
X173890Y155246D02*
Y161683D01*
X169890Y155246D02*
Y161683D01*
X167890Y155232D02*
Y161683D01*
X165890Y153731D02*
Y161683D01*
X159890Y210302D02*
Y214939D01*
X160446Y209890D02*
X165617D01*
X157890Y210302D02*
Y214939D01*
X160033Y210302D02*
X162035Y208301D01*
X164028D02*
X166030Y210302D01*
X161890Y208446D02*
Y214939D01*
X155890Y210162D02*
Y214939D01*
X156030Y210302D02*
X160033D01*
X150446Y209890D02*
X155617D01*
X154028Y208301D02*
X156030Y210302D01*
X154028Y204298D02*
Y208301D01*
X162035Y207890D02*
X164028D01*
X162035Y205890D02*
X164028D01*
X162035Y204298D02*
Y208301D01*
X164028Y204298D02*
X166030Y202296D01*
X164028Y204298D02*
Y208301D01*
X154028Y204298D02*
X156030Y202296D01*
X161627Y203890D02*
X164436D01*
X151627D02*
X154436D01*
X160033Y202296D02*
X162035Y204298D01*
X156030Y202296D02*
X160033D01*
X149890Y210302D02*
Y214939D01*
X146030Y210302D02*
X150033D01*
X147890D02*
Y214939D01*
X151890Y208446D02*
Y214939D01*
X150033Y210302D02*
X152035Y208301D01*
X145890Y210162D02*
Y214939D01*
X140033Y210302D02*
X142035Y208301D01*
X140446Y209890D02*
X145617D01*
X141890Y208446D02*
Y214939D01*
X144028Y208301D02*
X146030Y210302D01*
X142035Y204298D02*
Y208301D01*
X152035Y207890D02*
X154028D01*
X152035Y205890D02*
X154028D01*
X152035Y204298D02*
Y208301D01*
X146030Y202296D02*
X150033D01*
X144028Y204298D02*
X146030Y202296D01*
X144028Y204298D02*
Y208301D01*
X142035Y205890D02*
X144028D01*
X142035Y207890D02*
X144028D01*
X141627Y203890D02*
X144436D01*
X140033Y202296D02*
X142035Y204298D01*
X155890Y165089D02*
Y202436D01*
X157890Y165089D02*
Y202296D01*
X153890Y165089D02*
Y214939D01*
X163890Y165089D02*
Y214939D01*
X161890Y165089D02*
Y204153D01*
X159890Y165089D02*
Y202296D01*
X150033D02*
X152035Y204298D01*
X149890Y200002D02*
Y202296D01*
X151890Y165089D02*
Y204153D01*
X161890Y154939D02*
Y161683D01*
X163890Y153672D02*
Y161683D01*
X157890Y154429D02*
Y161683D01*
X155890Y146191D02*
Y161683D01*
X151890Y146191D02*
Y161683D01*
X149890Y165089D02*
Y197635D01*
X146585Y194964D02*
X148099Y196478D01*
X147890Y165089D02*
Y196268D01*
X149890Y146191D02*
Y161683D01*
X147890Y146191D02*
Y161683D01*
X145890Y199335D02*
Y202436D01*
X147890Y201017D02*
Y202296D01*
X143890Y197086D02*
Y214939D01*
X143678Y196874D02*
X145699Y198895D01*
X143179Y176805D02*
Y195669D01*
X141389Y197890D02*
X144694D01*
X142354Y195890D02*
X143193D01*
X141890Y197424D02*
Y204153D01*
X146585Y176793D02*
Y194964D01*
X145890Y165089D02*
Y173238D01*
Y146191D02*
Y161683D01*
X143890Y146191D02*
Y161683D01*
X140519Y193890D02*
X143179D01*
X141890Y165089D02*
Y194702D01*
X143890Y165089D02*
Y173230D01*
X141890Y146191D02*
Y161683D01*
X187890Y146191D02*
Y161683D01*
X197890Y146191D02*
Y161683D01*
X181890Y146191D02*
Y154314D01*
X199890Y146191D02*
Y161683D01*
X183890Y139892D02*
Y142785D01*
X181890Y139892D02*
Y142785D01*
X179551Y152339D02*
X180934Y153723D01*
X197890Y139892D02*
Y142785D01*
X199890Y139892D02*
Y142785D01*
X195890Y139892D02*
Y142785D01*
X187890Y139892D02*
Y142785D01*
X189890Y139892D02*
Y142785D01*
X185890Y139892D02*
Y142785D01*
X193890Y139892D02*
Y142785D01*
X191890Y139892D02*
Y142785D01*
X177890Y159813D02*
Y161683D01*
X179890Y146191D02*
Y152678D01*
X177890Y146191D02*
Y151840D01*
X171890Y146191D02*
Y151840D01*
X169890Y146191D02*
Y151840D01*
X175890Y146191D02*
Y151840D01*
X173890Y146191D02*
Y151840D01*
X177890Y139892D02*
Y142785D01*
X179890Y139892D02*
Y142785D01*
X175890Y139892D02*
Y142785D01*
X179890Y130443D02*
Y136486D01*
X173890Y130443D02*
Y136486D01*
X171890Y139892D02*
Y142785D01*
X173890Y139892D02*
Y142785D01*
X169890Y139892D02*
Y142785D01*
X171890Y130443D02*
Y136486D01*
X169890Y130443D02*
Y136486D01*
X189890Y121968D02*
Y136486D01*
X191890Y119968D02*
Y136486D01*
X187890Y123968D02*
Y136486D01*
X195890Y119058D02*
Y136486D01*
X197890Y118603D02*
Y136486D01*
X193890Y117968D02*
Y136486D01*
X181890Y129967D02*
Y136486D01*
X185890Y125968D02*
Y136486D01*
X183890Y127968D02*
Y136486D01*
X182119Y121890D02*
X185150D01*
X185890Y120402D02*
Y121150D01*
X183890Y121847D02*
Y123150D01*
X181129Y123890D02*
X183150D01*
X181890Y123037D02*
Y125150D01*
X180003Y127037D02*
X186415Y120626D01*
X177890Y130443D02*
Y136486D01*
X175890Y125325D02*
Y127037D01*
Y130443D02*
Y136486D01*
X179890Y124960D02*
Y127037D01*
X177890Y125325D02*
Y127037D01*
X169890Y125325D02*
Y127037D01*
X169083D02*
X180003D01*
X173890Y125325D02*
Y127037D01*
X171890Y125325D02*
Y127037D01*
X180040Y124826D02*
X180626Y124241D01*
X175890Y121388D02*
Y121919D01*
X169113Y125890D02*
X181150D01*
X169890Y121388D02*
Y121919D01*
X173890Y121388D02*
Y121919D01*
X171890Y121388D02*
Y121919D01*
X168110Y155246D02*
X177062D01*
X167740Y150764D02*
X168816Y151840D01*
X178347D01*
X167890Y146191D02*
Y150914D01*
X165830Y153672D02*
X166906Y154748D01*
X163041Y153890D02*
X166048D01*
X163179Y153672D02*
X165830D01*
X165890Y146191D02*
Y150265D01*
X163890Y139892D02*
Y142785D01*
X167890Y139892D02*
Y142785D01*
X165890Y139892D02*
Y142785D01*
X163890Y146191D02*
Y150265D01*
X163179D02*
X166535D01*
X161939Y131020D02*
Y131463D01*
X159890Y155351D02*
Y161683D01*
X161890Y146191D02*
Y148998D01*
X159890Y146191D02*
Y148586D01*
X157890Y146191D02*
Y149508D01*
X153890Y146191D02*
Y161683D01*
X141890Y139892D02*
Y142785D01*
X145890Y139892D02*
Y142785D01*
X143890Y139892D02*
Y142785D01*
X159890Y139892D02*
Y142785D01*
X161890Y139892D02*
Y142785D01*
X157890Y139892D02*
Y142785D01*
X161890Y134527D02*
Y136486D01*
X159890Y135247D02*
Y136486D01*
X149890Y139892D02*
Y142785D01*
X151890Y139892D02*
Y142785D01*
X147890Y139892D02*
Y142785D01*
X155890Y139892D02*
Y142785D01*
X153890Y139892D02*
Y142785D01*
X163890Y130443D02*
Y136486D01*
X162516Y130443D02*
X180709D01*
X161939Y131020D02*
X162516Y130443D01*
X165890D02*
Y136486D01*
X167890Y130443D02*
Y136486D01*
X161890Y125325D02*
Y127037D01*
X159032Y129111D02*
X160607Y127536D01*
X159890Y125325D02*
Y128253D01*
X168981Y125325D02*
X178835D01*
X163890Y121388D02*
Y121919D01*
X167890Y121388D02*
Y121919D01*
X165890Y121388D02*
Y121919D01*
X161811Y127037D02*
X162413D01*
X161890Y121388D02*
Y121919D01*
X159890Y121388D02*
Y121919D01*
X153890Y125325D02*
Y136486D01*
X158533Y130315D02*
Y131475D01*
X151890Y125325D02*
Y136486D01*
X157890Y125325D02*
Y136486D01*
X155890Y125325D02*
Y136486D01*
X143890Y125325D02*
Y136486D01*
X145890Y125325D02*
Y136486D01*
X141890Y125325D02*
Y136486D01*
X149890Y125325D02*
Y136486D01*
X147890Y125325D02*
Y136486D01*
X153890Y121388D02*
Y121919D01*
X151890Y121388D02*
Y121919D01*
X157890Y121388D02*
Y121919D01*
X155890Y121388D02*
Y121919D01*
X143890Y121388D02*
Y121919D01*
X145890Y121388D02*
Y121919D01*
X141890Y121388D02*
Y121919D01*
X149890Y121388D02*
Y121919D01*
X147890Y121388D02*
Y121919D01*
X259890Y117515D02*
Y119571D01*
X261515Y115890D02*
X273994D01*
X257890Y117798D02*
Y119289D01*
X261735Y111416D02*
Y115671D01*
Y113890D02*
X273994D01*
X259608Y117798D02*
X261735Y115671D01*
X255890Y117798D02*
Y119289D01*
X255353Y117798D02*
X259608D01*
X253890Y116334D02*
Y120752D01*
X253226Y115671D02*
X255353Y117798D01*
X251515Y115890D02*
X253445D01*
X261735Y111890D02*
X273994D01*
X260208Y109890D02*
X273994D01*
X259608Y109289D02*
X261735Y111416D01*
X259890Y107515D02*
Y109571D01*
X257890Y107798D02*
Y109289D01*
X253226Y111416D02*
X255353Y109289D01*
X259608D01*
X250208Y109890D02*
X254752D01*
X255353Y107798D02*
X259608D01*
X255890D02*
Y109289D01*
X249890Y117515D02*
Y119571D01*
X249607Y117798D02*
X251735Y115671D01*
X247890Y117798D02*
Y119289D01*
X253226Y111416D02*
Y115671D01*
X251735Y113890D02*
X253226D01*
X251735Y111416D02*
Y115671D01*
X245890Y117798D02*
Y119289D01*
X245353Y117798D02*
X249607D01*
X243890Y116334D02*
Y120752D01*
X243226Y115671D02*
X245353Y117798D01*
X243226Y111416D02*
Y115671D01*
X251735Y111890D02*
X253226D01*
X249607Y109289D02*
X251735Y111416D01*
X245890Y107798D02*
Y109289D01*
X249890Y107515D02*
Y109571D01*
X247890Y107798D02*
Y109289D01*
X243226Y111416D02*
X245353Y109289D01*
X249607D01*
X241467Y109890D02*
X244752D01*
X245353Y107798D02*
X249607D01*
X243890Y106334D02*
Y110752D01*
X267890Y1597D02*
Y202521D01*
X269890Y1597D02*
Y202354D01*
X265890Y1597D02*
Y204067D01*
X273890Y1597D02*
Y214939D01*
X273994Y1597D02*
Y214939D01*
X271890Y1597D02*
Y203323D01*
X259608Y107798D02*
X261735Y105670D01*
X261515Y105890D02*
X273994D01*
X253226Y105670D02*
X255353Y107798D01*
X263890Y1597D02*
Y214939D01*
X261890Y1597D02*
Y202972D01*
X261735Y103890D02*
X273994D01*
X261735Y101890D02*
X273994D01*
X261735Y101416D02*
Y105670D01*
X260208Y99890D02*
X273994D01*
X259890Y1597D02*
Y99571D01*
X259608Y99289D02*
X261735Y101416D01*
X255353Y99289D02*
X259608D01*
X253226Y101416D02*
X255353Y99289D01*
X257890Y1597D02*
Y99289D01*
X255890Y1597D02*
Y99289D01*
X253890Y106334D02*
Y110752D01*
X251735Y101890D02*
X253226D01*
X251735Y103890D02*
X253226D01*
X251890Y1597D02*
Y202972D01*
X253226Y101416D02*
Y105670D01*
X251735Y101416D02*
Y105670D01*
X249607Y107798D02*
X251735Y105670D01*
X251515Y105890D02*
X253445D01*
X243226Y105670D02*
X245353Y107798D01*
X243226Y101416D02*
Y105670D01*
X241890Y1597D02*
Y124619D01*
X249607Y99289D02*
X251735Y101416D01*
X250208Y99890D02*
X254752D01*
X247890Y1597D02*
Y99289D01*
X253890Y1597D02*
Y100752D01*
X249890Y1597D02*
Y99571D01*
X243226Y101416D02*
X245353Y99289D01*
X249607D01*
X241467Y99890D02*
X244752D01*
X245890Y1597D02*
Y99289D01*
X243890Y1597D02*
Y100752D01*
X241467Y117890D02*
X273994D01*
X241467Y115890D02*
X243445D01*
X235698Y114879D02*
Y140239D01*
X233890Y113070D02*
Y142048D01*
X230862Y110042D02*
X235698Y114879D01*
X231890Y111070D02*
Y132869D01*
X224708Y115890D02*
X235698D01*
X226708Y113890D02*
X234710D01*
X227890Y112708D02*
Y133006D01*
X229890Y111328D02*
Y131655D01*
X201204Y139393D02*
X228816Y111782D01*
X241467Y113890D02*
X243226D01*
X241467Y111890D02*
X243226D01*
X237527D02*
X238061D01*
X241467Y107890D02*
X273994D01*
X235527Y109890D02*
X238061D01*
X228708Y111890D02*
X232710D01*
X233527Y107890D02*
X238061D01*
X226854Y106034D02*
X228147Y107327D01*
X225890Y114708D02*
Y133786D01*
X223890Y116708D02*
Y133733D01*
X209890Y106034D02*
Y125891D01*
X215890Y106034D02*
Y119891D01*
X217890Y106034D02*
Y117891D01*
X213890Y106034D02*
Y121891D01*
X199294Y136486D02*
X226399Y109381D01*
X201890Y106034D02*
Y133891D01*
X199890Y106531D02*
Y135891D01*
X207890Y106034D02*
Y127891D01*
X203890Y106034D02*
Y131891D01*
X219890Y106034D02*
Y115891D01*
X227890Y107070D02*
Y107416D01*
X198439Y117890D02*
X217891D01*
X225890Y106034D02*
Y109891D01*
X221890Y106034D02*
Y113891D01*
X198160Y113890D02*
X221891D01*
X198160Y111890D02*
X223891D01*
X198399Y115890D02*
X219891D01*
X198160Y107890D02*
X227184D01*
X198160Y109890D02*
X225891D01*
X238061Y92044D02*
Y112424D01*
X241467Y105890D02*
X243445D01*
X237890Y91873D02*
Y112253D01*
X241467Y91339D02*
Y123589D01*
X235890Y89873D02*
Y110253D01*
X233890Y87873D02*
Y108253D01*
X228763Y103126D02*
X238061Y112424D01*
X229527Y103890D02*
X238061D01*
X231527Y105890D02*
X238061D01*
X231890Y85873D02*
Y106253D01*
X229890Y89632D02*
Y104253D01*
X241467Y103890D02*
X243226D01*
X241467Y101890D02*
X243226D01*
X241467Y97890D02*
X273994D01*
X227890Y90785D02*
Y102660D01*
X198160Y101890D02*
X238061D01*
X201596Y102628D02*
X227559D01*
X198160Y97890D02*
X238061D01*
X198160Y99890D02*
X238061D01*
X211890Y106034D02*
Y123891D01*
X223890Y106034D02*
Y111891D01*
X205890Y106034D02*
Y129891D01*
X207890Y91073D02*
Y102628D01*
X205890Y91073D02*
Y102628D01*
X201608Y106034D02*
X226854D01*
X203890Y91073D02*
Y102628D01*
X201890Y91073D02*
Y102628D01*
X219890Y91073D02*
Y102628D01*
X221890Y91073D02*
Y102628D01*
X217890Y91073D02*
Y102628D01*
X225890Y91073D02*
Y102628D01*
X223890Y91073D02*
Y102628D01*
X209890Y91073D02*
Y102628D01*
X211890Y91073D02*
Y102628D01*
X199890Y93264D02*
Y102130D01*
X215890Y91073D02*
Y102628D01*
X213890Y91073D02*
Y102628D01*
X241467Y93890D02*
X273994D01*
X241467Y91890D02*
X273994D01*
X241467Y95890D02*
X273994D01*
X240724Y89890D02*
X273994D01*
X229726D02*
X235906D01*
X238724Y87890D02*
X273994D01*
X230044D02*
X233906D01*
X231906Y81072D02*
X240968Y90134D01*
X229736Y83719D02*
X238061Y92044D01*
X234724Y83890D02*
X273994D01*
X232724Y81890D02*
X273994D01*
X236724Y85890D02*
X273994D01*
X229656Y69890D02*
X273994D01*
X231035Y79890D02*
X273994D01*
X229656Y77890D02*
X273994D01*
X229656Y75890D02*
X273994D01*
X229358Y85890D02*
X231906D01*
X229656Y71890D02*
X273994D01*
X229656Y73890D02*
X273994D01*
X229890Y83873D02*
Y87533D01*
X223890Y86569D02*
Y87667D01*
X224675Y79921D02*
Y81309D01*
X229890Y68542D02*
Y79323D01*
X229656Y68691D02*
Y78347D01*
X225174Y78717D02*
X226250Y77641D01*
Y68691D02*
Y77641D01*
X225890Y68451D02*
Y78001D01*
X233890Y1597D02*
Y83056D01*
X231350Y65890D02*
X273994D01*
X231890Y11910D02*
Y81045D01*
X239890Y1597D02*
Y89056D01*
X237890Y1597D02*
Y87056D01*
X235890Y1597D02*
Y85056D01*
X230593Y67890D02*
X273994D01*
X230800Y63890D02*
X273994D01*
X233137Y9890D02*
X273994D01*
X233137Y7890D02*
X273994D01*
X231910Y11890D02*
X273994D01*
X232367Y5890D02*
X273994D01*
X233137Y6660D02*
Y10663D01*
X231135Y12665D02*
X233137Y10663D01*
X227132Y4658D02*
X231135D01*
X227132Y12665D02*
X231135D01*
Y4658D02*
X233137Y6660D01*
X231890Y1597D02*
Y5413D01*
X229890Y12665D02*
Y62954D01*
X227890Y12665D02*
Y62349D01*
X225131Y10663D02*
X227132Y12665D01*
X225890Y11422D02*
Y63045D01*
X221910Y11890D02*
X226358D01*
X221890Y11910D02*
Y87667D01*
X223890Y1597D02*
Y81935D01*
X223137Y6660D02*
Y10663D01*
X225131Y6660D02*
X227132Y4658D01*
X225890Y1597D02*
Y5901D01*
X225131Y6660D02*
Y10663D01*
X229890Y1597D02*
Y4658D01*
X227890Y1597D02*
Y4658D01*
X223137Y7890D02*
X225131D01*
X222367Y5890D02*
X225901D01*
X223137Y9890D02*
X225131D01*
X221135Y4658D02*
X223137Y6660D01*
X221890Y1597D02*
Y5413D01*
X201006Y91073D02*
X226895D01*
X210813Y87667D02*
X225949D01*
X211579Y85890D02*
X223398D01*
X219890Y12665D02*
Y87667D01*
X210870Y83890D02*
X222997D01*
X198160Y95890D02*
X238061D01*
X198676Y93890D02*
X238061D01*
X200952Y91890D02*
X237906D01*
X197259Y79890D02*
X224675D01*
X199259Y81890D02*
X223933D01*
X193259Y75890D02*
X226250D01*
X199351Y69890D02*
X226250D01*
X195259Y77890D02*
X226001D01*
X199754Y67890D02*
X225312D01*
X217132Y12665D02*
X221135D01*
X191259Y73890D02*
X226250D01*
X189259Y71890D02*
X226250D01*
X192708Y65890D02*
X224556D01*
X146014Y61890D02*
X273994D01*
X190708Y63890D02*
X225106D01*
X201493Y87667D02*
X206796D01*
X201890Y87136D02*
Y87667D01*
X205890Y87136D02*
Y87667D01*
X203890Y87136D02*
Y87667D01*
X201204Y87378D02*
X201493Y87667D01*
X198160Y94406D02*
X198895Y93671D01*
X201099Y83730D02*
X206283D01*
X207132Y12665D02*
X211135D01*
X200899Y87136D02*
X206150D01*
X209890Y12665D02*
Y83191D01*
X207890Y12665D02*
Y83125D01*
X186637Y69268D02*
X201099Y83730D01*
X197132Y12665D02*
X201135D01*
X199890D02*
Y82521D01*
X217890Y12665D02*
Y87667D01*
X215131Y10663D02*
X217132Y12665D01*
X215890Y11422D02*
Y87667D01*
X221135Y12665D02*
X223137Y10663D01*
X215131Y6660D02*
Y10663D01*
X213890Y1597D02*
Y87667D01*
X211135Y12665D02*
X213137Y10663D01*
X211910Y11890D02*
X216357D01*
X211890Y11910D02*
Y87667D01*
X213137Y9890D02*
X215131D01*
X213137Y6660D02*
Y10663D01*
X215131Y6660D02*
X217132Y4658D01*
X221135D01*
X215890Y1597D02*
Y5901D01*
X219890Y1597D02*
Y4658D01*
X217890Y1597D02*
Y4658D01*
X213137Y7890D02*
X215131D01*
X212367Y5890D02*
X215901D01*
X211135Y4658D02*
X213137Y6660D01*
X160115Y3890D02*
X273994D01*
X211890Y1597D02*
Y5413D01*
X205890Y11422D02*
Y83730D01*
X205131Y10663D02*
X207132Y12665D01*
X203137Y7890D02*
X205131D01*
Y6660D02*
Y10663D01*
X203890Y1597D02*
Y83730D01*
X201135Y12665D02*
X203137Y10663D01*
X201910Y11890D02*
X206358D01*
X201890Y11910D02*
Y83730D01*
X203137Y9890D02*
X205131D01*
X203137Y6660D02*
Y10663D01*
X205131Y6660D02*
X207132Y4658D01*
X211135D01*
X205890Y1597D02*
Y5901D01*
X209890Y1597D02*
Y4658D01*
X207890Y1597D02*
Y4658D01*
X201135D02*
X203137Y6660D01*
X202367Y5890D02*
X205901D01*
X197132Y4658D02*
X201135D01*
X201890Y1597D02*
Y5413D01*
X199890Y1597D02*
Y4658D01*
X193968Y117890D02*
X194474D01*
X198160Y105542D02*
Y115321D01*
Y94406D02*
Y103119D01*
X196191Y89457D02*
Y91558D01*
X181913Y129945D02*
X194335Y117523D01*
X189130Y117911D02*
X192785Y114255D01*
X191890Y106922D02*
Y115150D01*
X192785Y106660D02*
Y114255D01*
X196191Y89890D02*
X196954D01*
X196191Y85890D02*
X196532D01*
X196191Y91558D02*
X196478Y91271D01*
X191755Y86985D02*
X192785Y88014D01*
Y85745D02*
Y88014D01*
X186802Y115890D02*
X191150D01*
X186637Y115725D02*
X187075Y116163D01*
X189890Y105932D02*
Y117150D01*
Y89936D02*
Y103516D01*
X187890Y93529D02*
Y116485D01*
X185890Y93813D02*
Y115288D01*
X183890Y93435D02*
Y115226D01*
X181890Y93435D02*
Y115226D01*
X190167Y102224D02*
Y102975D01*
X189846Y89892D02*
X190816Y90863D01*
Y100869D01*
X187060Y93890D02*
X190816D01*
X188812Y91890D02*
X190816D01*
X187826Y89892D02*
X189846D01*
X196191Y85039D02*
Y86133D01*
X195745Y83890D02*
X196442D01*
X191890Y84850D02*
Y87119D01*
X195890Y83338D02*
Y84072D01*
X189589Y82548D02*
X192785Y85745D01*
X188909Y83890D02*
X190930D01*
X189890Y82850D02*
Y86486D01*
X184728Y72176D02*
X198223Y85671D01*
X186637Y74780D02*
X195693Y83835D01*
X193747Y81890D02*
X194442D01*
X197890Y70693D02*
Y80520D01*
X193890Y81338D02*
Y82032D01*
X195890Y70207D02*
Y78521D01*
X193890Y70207D02*
Y76521D01*
X191890Y79338D02*
Y80032D01*
X191747Y79890D02*
X192442D01*
X189747Y77890D02*
X190442D01*
X191890Y69865D02*
Y74520D01*
X189890Y77338D02*
Y78032D01*
X187890Y84432D02*
Y86486D01*
X185890Y84005D02*
Y86486D01*
Y78850D02*
Y80558D01*
X181890Y83987D02*
Y86486D01*
X183890Y83987D02*
Y86486D01*
X179890Y77687D02*
Y80580D01*
X183890Y77687D02*
Y80580D01*
X181890Y77687D02*
Y80580D01*
X187890Y75338D02*
Y76032D01*
X187747Y75890D02*
X188442D01*
X189890Y67889D02*
Y72521D01*
X185890Y73338D02*
Y74344D01*
X184728Y77687D02*
X187136Y80096D01*
X181890Y72761D02*
Y74281D01*
X182897Y72176D02*
X184728D01*
X183890D02*
Y74281D01*
X179262Y109890D02*
X192785D01*
X179262Y107890D02*
X192785D01*
X179262Y111890D02*
X192785D01*
X179262Y105890D02*
X189863D01*
X179262Y103890D02*
X189693D01*
X179890Y93435D02*
Y115226D01*
X176355Y117548D02*
X176789Y117982D01*
X179262Y115226D02*
X185433D01*
X179262Y113890D02*
X192785D01*
X179262Y95276D02*
Y115226D01*
Y99890D02*
X190816D01*
X179262Y97890D02*
X190816D01*
X179262Y101890D02*
X190200D01*
X179262Y95890D02*
X190816D01*
X178582Y93890D02*
X186168D01*
X178128Y93435D02*
X178763Y94071D01*
X173797Y86486D02*
X190551D01*
X178128Y93435D02*
X185018D01*
X153890Y95404D02*
Y117982D01*
X155890Y95404D02*
Y117982D01*
X151890Y95404D02*
Y117982D01*
X159890Y95404D02*
Y117982D01*
X161890Y95404D02*
Y117982D01*
X157890Y95404D02*
Y117982D01*
X143890Y95404D02*
Y117982D01*
X145890Y95404D02*
Y117982D01*
X141890Y95404D02*
Y117982D01*
X149890Y95404D02*
Y117982D01*
X147890Y95404D02*
Y117982D01*
X175890Y116681D02*
Y117982D01*
X175856Y95981D02*
Y116343D01*
X175279Y95404D02*
X175856Y95981D01*
X173890Y95404D02*
Y117982D01*
X165890Y95404D02*
Y117982D01*
X167890Y95404D02*
Y117982D01*
X163890Y95404D02*
Y117982D01*
X171890Y95404D02*
Y117982D01*
X169890Y95404D02*
Y117982D01*
X174393Y85890D02*
X192785D01*
X176296Y83987D02*
X185806D01*
X175890Y84393D02*
Y86486D01*
X177890Y83987D02*
Y86486D01*
X179890Y83987D02*
Y86486D01*
X175890Y77687D02*
Y80580D01*
X173797Y86486D02*
X176296Y83987D01*
X171342Y84124D02*
X174386Y81079D01*
X173890Y77687D02*
Y81576D01*
X177890Y71827D02*
Y74281D01*
X179890Y73218D02*
Y74281D01*
X177890Y77687D02*
Y80580D01*
X175890Y65483D02*
Y74281D01*
X175591Y80580D02*
X185794D01*
X165920Y73890D02*
X186442D01*
X165529Y74281D02*
X185433D01*
X173890Y65483D02*
Y74281D01*
X171890Y65483D02*
Y74281D01*
X153890Y77687D02*
Y84124D01*
X155890Y77687D02*
Y84124D01*
X151890Y77687D02*
Y84124D01*
X159890Y77687D02*
Y84124D01*
X157890Y77687D02*
Y84124D01*
X143890Y77687D02*
Y84124D01*
X145890Y77687D02*
Y84124D01*
X141890Y77687D02*
Y84124D01*
X149890Y77687D02*
Y84124D01*
X147890Y77687D02*
Y84124D01*
X169890Y77687D02*
Y84124D01*
X171890Y77687D02*
Y83576D01*
X167890Y77687D02*
Y84124D01*
X169890Y70590D02*
Y74281D01*
X167890Y71920D02*
Y74281D01*
X163890Y77687D02*
Y84124D01*
X165890Y77687D02*
Y84124D01*
X161890Y77687D02*
Y84124D01*
X165529Y74281D02*
X168186Y71624D01*
X165890Y73920D02*
Y74281D01*
X192913Y70207D02*
X196042D01*
X189393Y62575D02*
X193619Y66801D01*
X195890Y11422D02*
Y66801D01*
X187890Y65889D02*
Y70521D01*
X187259Y69890D02*
X191923D01*
X187484Y65483D02*
X191709Y69708D01*
X181338Y67890D02*
X189891D01*
X193619Y66801D02*
X196030D01*
X197890Y12665D02*
Y66315D01*
X191890Y11910D02*
Y65072D01*
X191910Y11890D02*
X196358D01*
X191135Y12665D02*
X193137Y10663D01*
X187132Y12665D02*
X191135D01*
X189890D02*
Y63072D01*
X187890Y12665D02*
Y62076D01*
X182897Y68769D02*
X185433D01*
X179890Y65483D02*
Y67727D01*
X177890Y65483D02*
Y69118D01*
X185890Y65483D02*
Y68832D01*
X183890Y65483D02*
Y68769D01*
X181890Y65483D02*
Y68184D01*
X170231Y69890D02*
X177599D01*
X169810Y67890D02*
X179292D01*
X169890Y11863D02*
Y62076D01*
Y65483D02*
Y67992D01*
X181890Y11910D02*
Y62076D01*
X181910Y11890D02*
X186357D01*
X179890Y12665D02*
Y62076D01*
X185890Y11422D02*
Y62076D01*
X181135Y12665D02*
X183137Y10663D01*
X177890Y12665D02*
Y62076D01*
X177132Y12665D02*
X181135D01*
X169863Y11890D02*
X176357D01*
X175131Y10663D02*
X177132Y12665D01*
X175890Y11422D02*
Y62076D01*
X195131Y10663D02*
X197132Y12665D01*
X193137Y7890D02*
X195131D01*
X193137Y9890D02*
X195131D01*
X193890Y1597D02*
Y66801D01*
X195131Y6660D02*
Y10663D01*
X193137Y6660D02*
Y10663D01*
X185131D02*
X187132Y12665D01*
X183137Y7890D02*
X185131D01*
X183137Y9890D02*
X185131D01*
X191135Y4658D02*
X193137Y6660D01*
X185131D02*
X187132Y4658D01*
X195131Y6660D02*
X197132Y4658D01*
X192367Y5890D02*
X195901D01*
X191890Y1597D02*
Y5413D01*
X197890Y1597D02*
Y4658D01*
X195890Y1597D02*
Y5901D01*
X182367Y5890D02*
X185901D01*
X187132Y4658D02*
X191135D01*
X185890Y1597D02*
Y5901D01*
X189890Y1597D02*
Y4658D01*
X187890Y1597D02*
Y4658D01*
X183137Y6660D02*
Y10663D01*
X185131Y6660D02*
Y10663D01*
X175131Y6660D02*
Y10663D01*
X183890Y1597D02*
Y62076D01*
X173890Y1597D02*
Y62076D01*
X171090Y9890D02*
X175131D01*
X171090Y7890D02*
X175131D01*
X169088Y12665D02*
X171090Y10663D01*
X171890Y1597D02*
Y62076D01*
X171090Y6660D02*
Y10663D01*
X181135Y4658D02*
X183137Y6660D01*
X177132Y4658D02*
X181135D01*
X177890Y1597D02*
Y4658D01*
X181890Y1597D02*
Y5413D01*
X179890Y1597D02*
Y4658D01*
X175131Y6660D02*
X177132Y4658D01*
X170320Y5890D02*
X175901D01*
X169088Y4658D02*
X171090Y6660D01*
X175890Y1597D02*
Y5901D01*
X169890Y1597D02*
Y5460D01*
X167920Y71890D02*
X177926D01*
X163468Y71525D02*
X165769Y69224D01*
X165890Y65483D02*
Y69066D01*
X167890Y65483D02*
Y67099D01*
X163890Y65483D02*
Y71103D01*
X145515Y65890D02*
X187891D01*
X146490Y65483D02*
X187484D01*
X157890D02*
Y71525D01*
X161890Y65483D02*
Y71525D01*
X159890Y65483D02*
Y71525D01*
X167890Y12665D02*
Y62076D01*
X165085Y12665D02*
X169088D01*
X165890D02*
Y62076D01*
X163890Y11469D02*
Y62076D01*
X161890Y11658D02*
Y62076D01*
X146478D02*
X188189D01*
X154487Y13861D02*
X159687D01*
X157890D02*
Y62076D01*
X161658Y11890D02*
X164310D01*
X159890Y13658D02*
Y62076D01*
X151890Y65483D02*
Y71525D01*
X153890Y65483D02*
Y71525D01*
X149890Y65483D02*
Y71525D01*
X155890Y65483D02*
Y71525D01*
X149890Y13658D02*
Y62076D01*
X147890Y13861D02*
Y62076D01*
X145890Y65739D02*
Y71525D01*
X147890Y65483D02*
Y71525D01*
X143890Y65747D02*
Y71525D01*
X141890Y11265D02*
Y71525D01*
X153890Y13265D02*
Y62076D01*
X155890Y13861D02*
Y62076D01*
X151658Y11890D02*
X152515D01*
X152087Y11461D02*
X154487Y13861D01*
X151890Y11658D02*
Y62076D01*
X145890Y13861D02*
Y61820D01*
X144487Y13861D02*
X149687D01*
X143890Y13265D02*
Y61812D01*
X149687Y13861D02*
X152087Y11461D01*
X141887Y11261D02*
X144487Y13861D01*
X163084Y10663D02*
X165085Y12665D01*
X162287Y7890D02*
X163084D01*
X162287Y9890D02*
X163084D01*
Y6660D02*
Y10663D01*
Y6660D02*
X165085Y4658D01*
X162287Y6061D02*
Y11261D01*
X159687Y13861D02*
X162287Y11261D01*
X159687Y3461D02*
X162287Y6061D01*
X163890Y1597D02*
Y5853D01*
X165085Y4658D02*
X169088D01*
X162115Y5890D02*
X163854D01*
X167890Y1597D02*
Y4658D01*
X165890Y1597D02*
Y4658D01*
X157890Y1597D02*
Y3461D01*
X154487D02*
X159687D01*
X155890Y1597D02*
Y3461D01*
X161890Y1597D02*
Y5665D01*
X159890Y1597D02*
Y3665D01*
X141887Y6061D02*
X144487Y3461D01*
X141887Y6061D02*
Y11261D01*
X141890Y1597D02*
Y6058D01*
X141090Y7890D02*
X141887D01*
X141090Y9890D02*
X141887D01*
X140320Y5890D02*
X142058D01*
X141090Y6660D02*
Y10663D01*
X152087Y5861D02*
X154487Y3461D01*
X150115Y3890D02*
X154058D01*
X149890Y1597D02*
Y3665D01*
X153890Y1597D02*
Y4058D01*
X151890Y1597D02*
Y5665D01*
X149687Y3461D02*
X152087Y5861D01*
X144487Y3461D02*
X149687D01*
X143890Y1597D02*
Y4058D01*
X147890Y1597D02*
Y3461D01*
X145890Y1597D02*
Y3461D01*
X137890Y210302D02*
Y214939D01*
X139890Y210302D02*
Y214939D01*
X131890Y210241D02*
Y214939D01*
X135890Y210162D02*
Y214939D01*
X134028Y208301D02*
X136030Y210302D01*
X130631Y211499D02*
X133231Y208899D01*
X127890Y211499D02*
Y214939D01*
X125432Y211499D02*
X130631D01*
X125890D02*
Y214939D01*
X129890Y211499D02*
Y214939D01*
X136030Y210302D02*
X140033D01*
X134028Y204298D02*
Y208301D01*
X133231Y205890D02*
X134028D01*
X136030Y202296D02*
X140033D01*
X133231Y203890D02*
X134436D01*
X132241Y209890D02*
X135617D01*
X133231Y207890D02*
X134028D01*
X133231Y203699D02*
Y208899D01*
X123890Y209958D02*
Y214939D01*
X122831Y208899D02*
X125432Y211499D01*
X120446Y209890D02*
X123822D01*
X120033Y210302D02*
X122035Y208301D01*
X122831Y203699D02*
Y208899D01*
X121890Y208446D02*
Y214939D01*
X119890Y210302D02*
Y214939D01*
X116030Y210302D02*
X120033D01*
X117890D02*
Y214939D01*
X114028Y208301D02*
X116030Y210302D01*
X115890Y210162D02*
Y214939D01*
X122035Y207890D02*
X122831D01*
X122035Y205890D02*
X122831D01*
X122035Y204298D02*
Y208301D01*
X121627Y203890D02*
X122831D01*
X120033Y202296D02*
X122035Y204298D01*
X114028D02*
Y208301D01*
X112035Y205890D02*
X114028D01*
X112035Y204298D02*
Y208301D01*
X116030Y202296D02*
X120033D01*
X114028Y204298D02*
X116030Y202296D01*
X134028Y204298D02*
X136030Y202296D01*
X139890Y198250D02*
Y202296D01*
X135890Y197766D02*
Y202436D01*
X137890Y197766D02*
Y202296D01*
X130631Y201099D02*
X133231Y203699D01*
X131422Y201890D02*
X237391D01*
X131890Y197766D02*
Y202358D01*
X133890Y197766D02*
Y214939D01*
X131890Y184380D02*
Y194360D01*
X138060Y183890D02*
X143179D01*
X138278Y181890D02*
X143179D01*
X137890Y184115D02*
Y194360D01*
X139890Y169464D02*
Y193876D01*
X137890Y168955D02*
Y181239D01*
X135890Y184855D02*
Y194360D01*
X112042Y189890D02*
X143179D01*
X133890Y184380D02*
Y194360D01*
X122831Y203699D02*
X125432Y201099D01*
X123890Y197766D02*
Y202641D01*
X127890Y197766D02*
Y201099D01*
X129890Y197766D02*
Y201099D01*
X125890Y197766D02*
Y201099D01*
X115890Y197766D02*
Y202436D01*
X117890Y197766D02*
Y202296D01*
X113890Y197766D02*
Y214939D01*
X121890Y197766D02*
Y204153D01*
X119890Y197766D02*
Y202296D01*
X125432Y201099D02*
X130631D01*
X125890Y184380D02*
Y194360D01*
X123890Y184380D02*
Y194360D01*
X129890Y184380D02*
Y194360D01*
X127890Y184380D02*
Y194360D01*
X115890Y184380D02*
Y194360D01*
X117890Y184380D02*
Y194360D01*
X113890Y184380D02*
Y194360D01*
X121890Y184380D02*
Y194360D01*
X119890Y184380D02*
Y194360D01*
X109890Y210302D02*
Y214939D01*
X110446Y209890D02*
X115617D01*
X107890Y210302D02*
Y214939D01*
X110033Y210302D02*
X112035Y208301D01*
Y207890D02*
X114028D01*
X111890Y208446D02*
Y214939D01*
X1597Y213890D02*
X273994D01*
X1597Y211890D02*
X273994D01*
X1597Y214939D02*
X273994D01*
X106030Y210302D02*
X110033D01*
X104028Y208301D02*
X106030Y210302D01*
X110033Y202296D02*
X112035Y204298D01*
X111627Y203890D02*
X114436D01*
X107890Y197766D02*
Y202296D01*
X111890Y197766D02*
Y204153D01*
X109890Y197766D02*
Y202296D01*
X1597Y201890D02*
X124641D01*
X1597Y199890D02*
X146106D01*
X106030Y202296D02*
X110033D01*
X104381Y197890D02*
X138926D01*
X104757Y197766D02*
X138562D01*
X105890Y210162D02*
Y214939D01*
X100446Y209890D02*
X105617D01*
X101890Y208446D02*
Y214939D01*
X103890Y198138D02*
Y214939D01*
X104028Y204298D02*
Y208301D01*
X102035Y204298D02*
Y208301D01*
X99890Y210302D02*
Y214939D01*
X96030Y210302D02*
X100033D01*
X97890D02*
Y214939D01*
X100033Y210302D02*
X102035Y208301D01*
X94028D02*
X96030Y210302D01*
X102035Y205890D02*
X104028D01*
Y204298D02*
X106030Y202296D01*
X102035Y207890D02*
X104028D01*
X105890Y197766D02*
Y202436D01*
X101890Y197870D02*
Y204153D01*
X101627Y203890D02*
X104436D01*
X96030Y202296D02*
X100033D01*
X94028Y204298D02*
X96030Y202296D01*
X100033D02*
X102035Y204298D01*
X1597Y197890D02*
X101918D01*
X109890Y191966D02*
Y194360D01*
X110421Y191890D02*
X143179D01*
X107890Y191467D02*
Y194360D01*
X111890Y190578D02*
Y194360D01*
X104745D02*
X138550D01*
X103512Y193890D02*
X139796D01*
X100578Y191890D02*
X109265D01*
X101608Y191467D02*
X108247D01*
X105890D02*
Y194360D01*
X111001Y187890D02*
X143179D01*
X110840Y185890D02*
X143179D01*
X109873Y184380D02*
X134625D01*
X111890D02*
Y188950D01*
X101596Y188061D02*
X107450D01*
X101212Y187924D02*
X107066D01*
X55430Y184517D02*
X104694D01*
X101890Y191467D02*
Y194256D01*
X99890Y191964D02*
Y202296D01*
X103890Y191467D02*
Y193988D01*
X97890Y190397D02*
Y202296D01*
X1597Y195890D02*
X100953D01*
X1597Y193890D02*
X102788D01*
X1597Y191890D02*
X99422D01*
X95890Y187924D02*
Y202436D01*
X99890Y165089D02*
Y184517D01*
X103890Y183566D02*
Y184517D01*
X97890Y165089D02*
Y184517D01*
X103890Y165089D02*
Y181788D01*
X101890Y165089D02*
Y184517D01*
X97890Y187924D02*
Y189131D01*
X54724Y187924D02*
X98788D01*
X1597Y189890D02*
X97800D01*
X54802Y183890D02*
X104066D01*
X52802Y181890D02*
X103848D01*
X133890Y168632D02*
Y180974D01*
X135890Y168632D02*
Y180499D01*
X131890Y168632D02*
Y180974D01*
X137836Y165202D02*
X138728Y165192D01*
X127890Y168632D02*
Y180974D01*
X113813Y168632D02*
X137598D01*
X125890D02*
Y180974D01*
X113801Y165226D02*
X137725D01*
X129890Y168632D02*
Y180974D01*
X133890Y146191D02*
Y161683D01*
X135890Y146191D02*
Y161683D01*
X131890Y146191D02*
Y161683D01*
X139890Y146191D02*
Y161683D01*
X137890Y146191D02*
Y161683D01*
X113416Y165089D02*
X214961D01*
X127890Y146191D02*
Y161683D01*
X125890Y146191D02*
Y161683D01*
X111417Y139892D02*
X200000D01*
X129890Y146191D02*
Y161683D01*
X115890Y168632D02*
Y180974D01*
X117890Y168632D02*
Y180974D01*
X113890Y168632D02*
Y180974D01*
X121890Y168632D02*
Y180974D01*
X123890Y168632D02*
Y180974D01*
X119890Y168632D02*
Y180974D01*
X111890Y169110D02*
Y180974D01*
X109890Y165089D02*
Y180974D01*
Y146191D02*
Y161683D01*
X107890Y146191D02*
Y161683D01*
X121890Y146191D02*
Y161683D01*
X123890Y146191D02*
Y161683D01*
X119890Y146191D02*
Y161683D01*
X125890Y139892D02*
Y142785D01*
X119890Y139892D02*
Y142785D01*
X113890Y146191D02*
Y161683D01*
X115890Y146191D02*
Y161683D01*
X111890Y146191D02*
Y161683D01*
X117890Y146191D02*
Y161683D01*
X111890Y139892D02*
Y142785D01*
X137890Y139892D02*
Y142785D01*
X139890Y139892D02*
Y142785D01*
X135890Y139892D02*
Y142785D01*
Y125325D02*
Y136486D01*
X137890Y125325D02*
Y136486D01*
X133890Y125325D02*
Y136486D01*
X131890Y139892D02*
Y142785D01*
X133890Y139892D02*
Y142785D01*
X129890Y139892D02*
Y142785D01*
X131890Y125325D02*
Y136486D01*
X129890Y125325D02*
Y136486D01*
X139890Y121388D02*
Y121919D01*
X138799Y121388D02*
X177819D01*
X139890Y125325D02*
Y136486D01*
X138799Y117982D02*
X176789D01*
X138679Y117890D02*
X176697D01*
X112123Y136486D02*
X199294D01*
X111527Y135890D02*
X199891D01*
X109527Y133890D02*
X158191D01*
X135890Y121288D02*
Y121919D01*
X117890Y139892D02*
Y142785D01*
X121890Y139892D02*
Y142785D01*
X115890Y139892D02*
Y142785D01*
X127890Y139892D02*
Y142785D01*
X123890Y139892D02*
Y142785D01*
X113890Y139892D02*
Y142785D01*
Y125325D02*
Y136486D01*
X109890Y139070D02*
Y142785D01*
X121890Y125325D02*
Y136486D01*
X123890Y125325D02*
Y136486D01*
X119890Y125325D02*
Y136486D01*
X127890Y125325D02*
Y136486D01*
X125890Y125325D02*
Y136486D01*
X111890Y125325D02*
Y136253D01*
X109890Y125325D02*
Y134253D01*
X107890Y125325D02*
Y132253D01*
X117890Y125325D02*
Y136486D01*
X115890Y125325D02*
Y136486D01*
X52097Y169890D02*
X273994D01*
X93524Y161683D02*
X214255D01*
X107501Y180974D02*
X134613D01*
X52097Y159890D02*
X177997D01*
X93976Y155890D02*
X176739D01*
X94178Y157890D02*
X176618D01*
X52097Y179890D02*
X143179D01*
X52097Y177890D02*
X143179D01*
X52097Y175890D02*
X142790D01*
X52097Y171890D02*
X273994D01*
X52097Y173890D02*
X143108D01*
X94283Y147890D02*
X228048D01*
X95981Y146191D02*
X227953D01*
X95276Y142785D02*
X227247D01*
X105527Y129890D02*
X158587D01*
X107527Y131890D02*
X158376D01*
X93829Y153890D02*
X157431D01*
X93829Y149890D02*
X157546D01*
X93829Y151890D02*
X156837D01*
X76506Y141890D02*
X228143D01*
X76506Y139890D02*
X111328D01*
X107890Y165089D02*
Y180974D01*
X105890Y165089D02*
Y180474D01*
X99890Y146191D02*
Y161683D01*
X103890Y146191D02*
Y161683D01*
X105890Y146191D02*
Y161683D01*
X101890Y146191D02*
Y161683D01*
X52097Y165890D02*
X110262D01*
X93524Y165089D02*
X110993D01*
X52097Y167890D02*
X110222D01*
X97890Y146191D02*
Y161683D01*
X93829Y148343D02*
X95981Y146191D01*
X105890Y135070D02*
Y142785D01*
X107890Y137070D02*
Y142785D01*
X103890Y133070D02*
Y142785D01*
X101890Y131070D02*
Y142785D01*
X99890Y129070D02*
Y142785D01*
X76506Y137890D02*
X108710D01*
X76506Y135890D02*
X106710D01*
X76506Y133890D02*
X104709D01*
X76506Y131890D02*
X102709D01*
X76506Y129890D02*
X100709D01*
X104752Y127890D02*
X160253D01*
X106046Y125890D02*
X162383D01*
X104033Y128396D02*
X112123Y136486D01*
X106611Y125325D02*
X162515D01*
X105905Y121919D02*
X177722D01*
X105342Y126594D02*
X106611Y125325D01*
X97527Y121890D02*
X177724D01*
X93527Y117890D02*
X136125D01*
X95527Y119890D02*
X135208D01*
X91527Y115890D02*
X175856D01*
X84728Y113908D02*
X110213Y139393D01*
X89527Y113890D02*
X175856D01*
X106597Y101890D02*
X175856D01*
X106906Y99890D02*
X175856D01*
X49735Y109890D02*
X175856D01*
X62235Y107890D02*
X175856D01*
X87527Y111890D02*
X175856D01*
X66235Y103890D02*
X175856D01*
X64235Y105890D02*
X175856D01*
X105890Y126046D02*
Y130253D01*
X102934Y124185D02*
X104701Y122418D01*
X101890Y103365D02*
Y124571D01*
X97890Y127070D02*
Y142785D01*
X76506Y127890D02*
X98709D01*
X76506Y125890D02*
X96710D01*
X86637Y111000D02*
X101131Y125494D01*
X99890Y101998D02*
Y124253D01*
X103890Y103776D02*
Y123229D01*
X105890Y102854D02*
Y121919D01*
X99527Y123890D02*
X103229D01*
X97092Y101998D02*
X100546D01*
X95890Y103281D02*
Y120253D01*
X97092Y98789D02*
X100546D01*
X97890Y101998D02*
Y122253D01*
X95890Y210162D02*
Y214939D01*
X94028Y204298D02*
Y208301D01*
X87890Y187924D02*
Y214939D01*
X91890Y187924D02*
Y214939D01*
X93890Y187924D02*
Y214939D01*
X89890Y187924D02*
Y214939D01*
X79890Y187924D02*
Y214939D01*
X81890Y187924D02*
Y214939D01*
X77890Y187924D02*
Y214939D01*
X85890Y187924D02*
Y214939D01*
X83890Y187924D02*
Y214939D01*
X93890Y165089D02*
Y184517D01*
X95890Y165089D02*
Y184517D01*
X91890Y165576D02*
Y184517D01*
X93890Y158407D02*
Y161683D01*
X91890Y159277D02*
Y161195D01*
X52097Y161890D02*
X90509D01*
X52097Y163890D02*
X89981D01*
X52097Y157890D02*
X90074D01*
X75890Y157035D02*
Y184517D01*
X61890Y187924D02*
Y214939D01*
X63890Y187924D02*
Y214939D01*
X59890Y187924D02*
Y214939D01*
X67890Y187924D02*
Y214939D01*
X69890Y187924D02*
Y214939D01*
X65890Y187924D02*
Y214939D01*
X55890Y187924D02*
Y214939D01*
X57890Y187924D02*
Y214939D01*
X53890Y187705D02*
Y214939D01*
X51890Y185794D02*
Y214939D01*
X49890Y183794D02*
Y214939D01*
X73890Y187924D02*
Y214939D01*
X75890Y187924D02*
Y214939D01*
X71890Y187924D02*
Y214939D01*
X73890Y157123D02*
Y184517D01*
X49189Y183094D02*
X53520Y187425D01*
X52097Y181184D02*
X55430Y184517D01*
X95890Y146283D02*
Y161683D01*
X87890Y117070D02*
Y184517D01*
X89890Y119070D02*
Y184517D01*
X85890Y115070D02*
Y184517D01*
X77890Y113908D02*
Y184517D01*
X79890Y113908D02*
Y184517D01*
X83890Y113908D02*
Y184517D01*
X81890Y113908D02*
Y184517D01*
X93829Y148343D02*
Y155479D01*
X76632Y153890D02*
X90423D01*
X76867Y155890D02*
X90276D01*
X93890Y148283D02*
Y155766D01*
X90423Y147638D02*
Y155491D01*
X76506Y151890D02*
X90423D01*
X76506Y149890D02*
X90423D01*
X76506Y118525D02*
Y153510D01*
X73100Y118537D02*
Y153522D01*
X59890Y119892D02*
Y184517D01*
X61890Y119173D02*
Y184517D01*
X57890Y119420D02*
Y184517D01*
X65890Y113908D02*
Y184517D01*
X63890Y113908D02*
Y184517D01*
X47890Y125033D02*
Y214939D01*
X55890Y119420D02*
Y184517D01*
X45890Y123351D02*
Y214939D01*
X39890Y110273D02*
Y214939D01*
X37890Y110184D02*
Y214939D01*
X67890Y113908D02*
Y184517D01*
X52097Y149890D02*
X73100D01*
X53890Y119779D02*
Y182977D01*
X71890Y113908D02*
Y184517D01*
X69890Y113908D02*
Y184517D01*
X52097Y153890D02*
X72974D01*
X52097Y151890D02*
X73100D01*
X52097Y155890D02*
X72739D01*
X52097Y121572D02*
Y181184D01*
X48691Y124937D02*
Y181890D01*
X1597Y185890D02*
X51985D01*
X1597Y183890D02*
X49985D01*
X19890Y171832D02*
Y214939D01*
X21890Y171802D02*
Y214939D01*
X23890Y170399D02*
Y214939D01*
X17890Y170539D02*
Y214939D01*
X1597Y209890D02*
X95617D01*
X1597Y205890D02*
X94028D01*
X1597Y207890D02*
X94028D01*
X1597Y203890D02*
X94436D01*
X1597Y187890D02*
X54387D01*
X15008Y171890D02*
X20153D01*
X21519D02*
X48691D01*
X14566Y169890D02*
X17470D01*
X24603Y167890D02*
X48691D01*
X24202Y169890D02*
X48691D01*
X1597Y179890D02*
X48691D01*
X1597Y177890D02*
X48691D01*
X1597Y181890D02*
X48691D01*
X14296Y173890D02*
X48691D01*
X1597Y175890D02*
X48691D01*
X11890Y175395D02*
Y214939D01*
X13890Y174363D02*
Y214939D01*
X9890Y175395D02*
Y214939D01*
X7890Y175204D02*
Y214939D01*
X5890Y173427D02*
Y214939D01*
X1597Y173890D02*
X6176D01*
X1597Y171890D02*
X5464D01*
X1597Y167890D02*
X17069D01*
X1597Y169890D02*
X5906D01*
X24389Y165890D02*
X48691D01*
X22704Y163890D02*
X48691D01*
X22647Y151890D02*
X48691D01*
X24378Y149890D02*
X48691D01*
X1597Y159890D02*
X48691D01*
X1597Y157890D02*
X48691D01*
X1597Y161890D02*
X48691D01*
X1597Y153890D02*
X48691D01*
X1597Y155890D02*
X48691D01*
X9890Y147795D02*
Y167953D01*
X11890Y147795D02*
Y167953D01*
X7890Y147604D02*
Y168144D01*
X13890Y146763D02*
Y168985D01*
X5890Y145827D02*
Y169921D01*
X21890Y152202D02*
Y163546D01*
X19890Y152232D02*
Y163516D01*
X17890Y150939D02*
Y164809D01*
X23890Y150799D02*
Y164949D01*
X1597Y163890D02*
X18969D01*
X1597Y151890D02*
X19026D01*
X1597Y165890D02*
X17283D01*
X1597Y149890D02*
X17295D01*
X90922Y146433D02*
X94071Y143284D01*
X93890Y123070D02*
Y143465D01*
X95890Y125070D02*
Y142785D01*
X91890Y121070D02*
Y145465D01*
X76506Y147890D02*
X90423D01*
X76506Y143890D02*
X93465D01*
X76506Y145890D02*
X91465D01*
X76506Y119890D02*
X90710D01*
X76786Y117890D02*
X88709D01*
X76746Y115890D02*
X86709D01*
X76506Y123890D02*
X94709D01*
X76506Y121890D02*
X92709D01*
X62226Y110502D02*
X85433D01*
X62238Y113908D02*
X84728D01*
X52097Y131890D02*
X73100D01*
X52097Y129890D02*
X73100D01*
X53779Y119890D02*
X59874D01*
X60598D02*
X73100D01*
X54249Y119420D02*
X58640D01*
X52097Y143890D02*
X73100D01*
X52097Y139890D02*
X73100D01*
X52097Y145890D02*
X73100D01*
X52097Y133890D02*
X73100D01*
X52097Y135890D02*
X73100D01*
X62433Y117890D02*
X72821D01*
X61468Y115890D02*
X72861D01*
X61890Y114012D02*
Y116261D01*
X75890Y113908D02*
Y115013D01*
X73890Y113908D02*
Y114924D01*
X53543Y116013D02*
X58628D01*
X59890Y114280D02*
Y115541D01*
X93890Y103788D02*
Y118253D01*
X91890Y102982D02*
Y116253D01*
X79890Y98160D02*
Y110502D01*
X81890Y98160D02*
Y110502D01*
X77890Y100997D02*
Y110502D01*
X69890Y100522D02*
Y110502D01*
X71890Y100522D02*
Y110502D01*
X67890Y102235D02*
Y110502D01*
X75890Y100522D02*
Y110502D01*
X73890Y100522D02*
Y110502D01*
X83890Y98160D02*
Y110502D01*
X79661Y98160D02*
X83858D01*
X68235Y101890D02*
X91041D01*
X69603Y100522D02*
X75963D01*
X62228Y107897D02*
X69603Y100522D01*
X79484Y99890D02*
X90732D01*
X61890Y108159D02*
Y110397D01*
X59088Y108396D02*
X61024D01*
X59890D02*
Y110130D01*
X65890Y104235D02*
Y110502D01*
X63890Y106235D02*
Y110502D01*
X57890Y108858D02*
Y116013D01*
X55890Y108217D02*
Y116013D01*
X53890Y105246D02*
Y116013D01*
X58692Y101840D02*
X59137D01*
X59681Y99890D02*
X61087D01*
X55890Y101524D02*
Y101840D01*
X53171D02*
X56269D01*
X53183Y105246D02*
X55818D01*
X53890Y98818D02*
Y101840D01*
X24601Y147890D02*
X48691D01*
X52097D02*
X73100D01*
X24218Y145890D02*
X48691D01*
X21672Y143890D02*
X48691D01*
X14319Y141890D02*
X48691D01*
X52097D02*
X73100D01*
X52097Y137890D02*
X73100D01*
X1597Y129890D02*
X48691D01*
X52097Y127890D02*
X73100D01*
X1597D02*
X48691D01*
X1597Y137890D02*
X48691D01*
X1597Y135890D02*
X48691D01*
X1597Y139890D02*
X48691D01*
X1597Y131890D02*
X48691D01*
X1597Y133890D02*
X48691D01*
X1597Y147890D02*
X17072D01*
X1597Y145890D02*
X5923D01*
X14549D02*
X17455D01*
X15010Y143890D02*
X20000D01*
X1597Y141890D02*
X6154D01*
X1597Y143890D02*
X5463D01*
X52097Y123890D02*
X73100D01*
X52097Y121890D02*
X73100D01*
X52097Y125890D02*
X73100D01*
X52097Y121572D02*
X54249Y119420D01*
X51890Y105724D02*
Y116962D01*
X49890Y104963D02*
Y118962D01*
X49735Y117890D02*
X50962D01*
X1597Y125890D02*
X48691D01*
X49735Y119117D02*
X52339Y116512D01*
X49735Y104755D02*
Y119117D01*
Y105890D02*
X55429D01*
X49735Y101890D02*
X50119D01*
X49735Y99890D02*
X54962D01*
X49735Y115890D02*
X59005D01*
X49735Y113890D02*
X59211D01*
X49735Y111890D02*
X58449D01*
X49735Y107890D02*
X55631D01*
X40679Y99890D02*
X46328D01*
X1597Y113890D02*
X46328D01*
X1597Y111890D02*
X46328D01*
X1597Y109890D02*
X37486D01*
X40467D02*
X46328D01*
X1597Y123890D02*
X46097D01*
X1597Y119890D02*
X46328D01*
X1597Y121890D02*
X46041D01*
X1597Y115890D02*
X46328D01*
X1597Y117890D02*
X46328D01*
X41147Y107890D02*
X46328D01*
X40679Y105890D02*
X46328D01*
X40679Y101890D02*
X46328D01*
X40679Y103890D02*
X46328D01*
X1597Y105890D02*
X37273D01*
X1597Y103890D02*
X37273D01*
X1597Y107890D02*
X36806D01*
X1597Y99890D02*
X37273D01*
X1597Y101890D02*
X37273D01*
X135890Y95404D02*
Y118082D01*
X137890Y95404D02*
Y117537D01*
X133890Y95404D02*
Y121919D01*
X139890Y95404D02*
Y117982D01*
X133890Y77687D02*
Y84124D01*
X131890Y77695D02*
Y84124D01*
X129890Y95404D02*
Y121919D01*
X131890Y95404D02*
Y121919D01*
X127890Y95404D02*
Y121919D01*
X129890Y78146D02*
Y84124D01*
X127890Y74932D02*
Y84124D01*
X131421Y77890D02*
X184930D01*
X131923Y77687D02*
X184728D01*
X135890D02*
Y84124D01*
X139890Y77687D02*
Y84124D01*
X137890Y77687D02*
Y84124D01*
X109920Y79890D02*
X186930D01*
X111920Y77890D02*
X129209D01*
X113920Y75890D02*
X128114D01*
X114879Y74932D02*
X128380D01*
X117890Y95404D02*
Y121919D01*
X119890Y95404D02*
Y121919D01*
X115890Y95404D02*
Y121919D01*
X123890Y95404D02*
Y121919D01*
X125890Y95404D02*
Y121919D01*
X121890Y95404D02*
Y121919D01*
X111890Y95404D02*
Y121919D01*
X113890Y95404D02*
Y121919D01*
X109890Y95404D02*
Y121919D01*
X111890Y77920D02*
Y84124D01*
X109890Y79920D02*
Y84124D01*
X119890Y74932D02*
Y84124D01*
X121890Y74932D02*
Y84124D01*
X117890Y74932D02*
Y84124D01*
X125890Y74932D02*
Y84124D01*
X123890Y74932D02*
Y84124D01*
X115890Y74932D02*
Y84124D01*
X113890Y75920D02*
Y84124D01*
X114173Y71525D02*
X123637D01*
X135890Y12665D02*
Y71525D01*
X137890Y12665D02*
Y71525D01*
X129890Y17472D02*
Y71525D01*
X133890Y11469D02*
Y71525D01*
X139890Y11863D02*
Y71525D01*
X131890Y1597D02*
Y71525D01*
X126756D02*
X163468D01*
X128302Y69890D02*
X165103D01*
X127890Y70580D02*
Y71525D01*
X128541Y67890D02*
X166410D01*
X126597Y59890D02*
X273994D01*
X127371Y65890D02*
X144249D01*
X126597Y57890D02*
X273994D01*
X127890Y19611D02*
Y66428D01*
X126597Y63890D02*
X142682D01*
X126597Y61890D02*
X143749D01*
X126597Y57874D02*
Y65406D01*
X121890Y69293D02*
Y71525D01*
X119890Y57755D02*
Y71525D01*
X121890Y56547D02*
Y67715D01*
X117890Y59412D02*
Y71525D01*
X111890Y64535D02*
Y73103D01*
X110535Y65890D02*
X123023D01*
X109890Y66535D02*
Y75103D01*
X115890Y60535D02*
Y71525D01*
X113890Y62535D02*
Y71549D01*
X123797Y58454D02*
Y65406D01*
X119830Y57890D02*
X123233D01*
X118711Y53369D02*
X123797Y58454D01*
X114535Y61890D02*
X123797D01*
X116535Y59890D02*
X123797D01*
X112535Y63890D02*
X123797D01*
X111890Y54939D02*
Y59717D01*
X109890Y55351D02*
Y61717D01*
X107890Y95404D02*
Y121919D01*
X105843Y97890D02*
X175856D01*
X105890Y95404D02*
Y97933D01*
X104506Y90029D02*
X185006D01*
X104642Y89892D02*
X185403D01*
X103937Y86486D02*
X104984D01*
X86834Y95890D02*
X175765D01*
X87320Y95404D02*
X175279D01*
X108484Y84124D02*
X171342D01*
X108136Y83890D02*
X171576D01*
X107890Y82086D02*
Y83775D01*
X108470Y81890D02*
X173576D01*
X105890Y81446D02*
Y83977D01*
X98554Y83890D02*
X106037D01*
X99029Y85890D02*
X104884D01*
X98554Y81890D02*
X106491D01*
X98554Y79890D02*
X105277D01*
X99890Y95404D02*
Y98789D01*
X96395Y97890D02*
X101243D01*
X97890Y95404D02*
Y98789D01*
X101890Y95404D02*
Y97423D01*
X103890Y95404D02*
Y97011D01*
X95890Y95404D02*
Y97506D01*
X60900Y88061D02*
X95639D01*
X101657D02*
X102733Y86985D01*
X98288Y87890D02*
X101828D01*
X98062Y88061D02*
X101657D01*
X54065Y87890D02*
X95413D01*
X54065Y83890D02*
X95147D01*
X54065Y85890D02*
X94672D01*
X54065Y79890D02*
X95147D01*
X54065Y81890D02*
X95147D01*
X109822Y79989D02*
X114879Y74932D01*
X107404Y77588D02*
X112969Y72024D01*
X107890Y68535D02*
Y77103D01*
X104535Y71890D02*
X113120D01*
X105890Y70535D02*
Y78397D01*
X100535Y75890D02*
X109103D01*
X102535Y73890D02*
X111103D01*
X98554Y77890D02*
X106628D01*
X98554Y77871D02*
X116701Y59723D01*
X95646Y75961D02*
X114293Y57314D01*
X106535Y69890D02*
X122092D01*
X108535Y67890D02*
X121853D01*
X105890Y59699D02*
Y65717D01*
X108911Y57890D02*
X113717D01*
X107890Y59060D02*
Y63717D01*
X87924Y61890D02*
X109717D01*
X87924Y59890D02*
X111717D01*
X87924Y63890D02*
X107717D01*
X99890Y76535D02*
Y88061D01*
X101890Y74535D02*
Y87828D01*
X98554Y77871D02*
Y84613D01*
X103890Y72535D02*
Y86487D01*
X95890Y12482D02*
Y75717D01*
X95147Y77165D02*
Y84625D01*
X54065Y77890D02*
X95147D01*
X54065Y75890D02*
X95717D01*
X99890Y21661D02*
Y71717D01*
X103890Y59037D02*
Y67717D01*
X88407Y73890D02*
X97717D01*
X101890Y20655D02*
Y69717D01*
X97890Y21082D02*
Y73717D01*
X87924Y69890D02*
X101717D01*
X87924Y67890D02*
X103717D01*
X87924Y71890D02*
X99717D01*
X87924Y65890D02*
X105717D01*
X87924Y57890D02*
X102901D01*
X125890Y19397D02*
Y56587D01*
X125192Y55890D02*
X273994D01*
X123890Y18676D02*
Y54587D01*
X129772Y17890D02*
X273994D01*
X123934Y18632D02*
X124583D01*
X123193Y53890D02*
X273994D01*
X121193Y51890D02*
X273994D01*
X120281Y50979D02*
X126187Y56884D01*
X122676Y19890D02*
X273994D01*
X122464Y20102D02*
X123934Y18632D01*
X129742Y15890D02*
X273994D01*
X127890Y12665D02*
Y14247D01*
X125890Y12665D02*
Y14461D01*
X135085Y12665D02*
X139088D01*
X129863Y11890D02*
X134310D01*
X123228Y15226D02*
X124583D01*
X125085Y12665D02*
X129088D01*
X119863Y11890D02*
X124310D01*
X119982Y55890D02*
X121233D01*
X119890Y54547D02*
Y55631D01*
X121890Y20480D02*
Y52587D01*
X119890Y20601D02*
Y50703D01*
X113335Y53369D02*
X118711D01*
X113890D02*
Y57717D01*
X117890Y53369D02*
Y53973D01*
X115890Y53369D02*
Y54313D01*
X120554Y17195D02*
X122024Y15725D01*
X117890Y12665D02*
Y17195D01*
X115890Y20601D02*
Y50568D01*
X117890Y20601D02*
Y50568D01*
X113890Y20601D02*
Y50568D01*
X115085Y12665D02*
X119088D01*
X115890D02*
Y17195D01*
X139088Y12665D02*
X141090Y10663D01*
X139863Y11890D02*
X142515D01*
X133083Y10663D02*
X135085Y12665D01*
X133083Y6660D02*
Y10663D01*
Y6660D02*
X135085Y4658D01*
X131090Y7890D02*
X133083D01*
X129088Y12665D02*
X131090Y10663D01*
Y9890D02*
X133083D01*
X129890Y11863D02*
Y16386D01*
X129088Y4658D02*
X131090Y6660D01*
Y10663D01*
X139088Y4658D02*
X141090Y6660D01*
X135085Y4658D02*
X139088D01*
X135890Y1597D02*
Y4658D01*
X139890Y1597D02*
Y5460D01*
X137890Y1597D02*
Y4658D01*
X130320Y5890D02*
X133853D01*
X125085Y4658D02*
X129088D01*
X127890Y1597D02*
Y4658D01*
X133890Y1597D02*
Y5853D01*
X129890Y1597D02*
Y5460D01*
X123890Y11469D02*
Y15226D01*
X123083Y10663D02*
X125085Y12665D01*
X121090Y7890D02*
X123083D01*
Y6660D02*
Y10663D01*
X121890Y1597D02*
Y15859D01*
X119890Y11863D02*
Y17195D01*
X119088Y12665D02*
X121090Y10663D01*
X113890Y11469D02*
Y17195D01*
X121090Y9890D02*
X123083D01*
X121090Y6660D02*
Y10663D01*
X123083Y6660D02*
X125085Y4658D01*
X120320Y5890D02*
X123854D01*
X119890Y1597D02*
Y5460D01*
X125890Y1597D02*
Y4658D01*
X123890Y1597D02*
Y5853D01*
X119088Y4658D02*
X121090Y6660D01*
X115085Y4658D02*
X119088D01*
X113890Y1597D02*
Y5853D01*
X117890Y1597D02*
Y4658D01*
X115890Y1597D02*
Y4658D01*
X113041Y53890D02*
X119233D01*
X113335Y50568D02*
X119291D01*
X109281Y55890D02*
X114664D01*
X84885Y47890D02*
X273994D01*
X54065Y35890D02*
X273994D01*
X112927Y49890D02*
X273994D01*
X54065Y43890D02*
X273994D01*
X54065Y41890D02*
X273994D01*
X54065Y45890D02*
X273994D01*
X54065Y37890D02*
X273994D01*
X54065Y39890D02*
X273994D01*
X54065Y23890D02*
X273994D01*
X55322Y21890D02*
X273994D01*
X54065Y25890D02*
X273994D01*
X102189Y20601D02*
X121260D01*
X102189Y17195D02*
X120554D01*
X54065Y31890D02*
X273994D01*
X54065Y29890D02*
X273994D01*
X54065Y33890D02*
X273994D01*
X54065Y27890D02*
X273994D01*
X40072Y15890D02*
X121859D01*
X105890Y20601D02*
Y52899D01*
X87924Y53890D02*
X103507D01*
X87924Y55890D02*
X102530D01*
X103890Y20601D02*
Y53561D01*
X107890Y20601D02*
Y49508D01*
X111890Y20601D02*
Y48998D01*
X109890Y20601D02*
Y48586D01*
X87922Y51890D02*
X106837D01*
X86563Y49890D02*
X107546D01*
X85432Y19890D02*
X97012D01*
X85424Y17890D02*
X97018D01*
X113084Y10663D02*
X115085Y12665D01*
X111090Y9890D02*
X113084D01*
X109890Y11863D02*
Y17195D01*
X111890Y1597D02*
Y17195D01*
X113084Y6660D02*
Y10663D01*
X111090Y6660D02*
Y10663D01*
X40195Y13890D02*
X273994D01*
X105085Y12665D02*
X109088D01*
X107890D02*
Y17195D01*
X109863Y11890D02*
X114310D01*
X109088Y12665D02*
X111090Y10663D01*
Y7890D02*
X113084D01*
X110320Y5890D02*
X113854D01*
X109088Y4658D02*
X111090Y6660D01*
X113084D02*
X115085Y4658D01*
X109890Y1597D02*
Y5460D01*
X38592Y3890D02*
X144058D01*
X36592Y1890D02*
X273994D01*
X105085Y4658D02*
X109088D01*
X36299Y1597D02*
X273994D01*
X107890D02*
Y4658D01*
X105890Y12665D02*
Y17195D01*
X103084Y10663D02*
X105085Y12665D01*
X103890Y11469D02*
Y17195D01*
X103084Y6660D02*
Y10663D01*
X101890Y1597D02*
Y17141D01*
X97890Y12583D02*
Y16714D01*
X99454Y11890D02*
X104310D01*
X40195D02*
X94719D01*
X99890Y11519D02*
Y16134D01*
X101015Y7890D02*
X103084D01*
Y6660D02*
X105085Y4658D01*
X100897Y9890D02*
X103084D01*
X105890Y1597D02*
Y4658D01*
X103890Y1597D02*
Y5853D01*
X99975Y5890D02*
X103853D01*
X95890Y1597D02*
Y4841D01*
X40195Y5890D02*
X94198D01*
X99890Y1597D02*
Y5804D01*
X97890Y1597D02*
Y4740D01*
X87890Y95404D02*
Y112253D01*
X85063Y97661D02*
X87320Y95404D01*
X85890Y96834D02*
Y110564D01*
X91890Y95404D02*
Y97805D01*
X93890Y95404D02*
Y97000D01*
X89890Y95404D02*
Y114253D01*
X84779Y97890D02*
X91794D01*
X73890Y91467D02*
Y94753D01*
X71890Y91467D02*
Y94753D01*
X79890Y91467D02*
Y92391D01*
X79155D02*
X82365D01*
X77890Y91467D02*
Y91916D01*
X82365Y92391D02*
X83290Y91467D01*
X81890D02*
Y92391D01*
X66929Y94753D02*
X75457D01*
X54065Y93890D02*
X75365D01*
X61439Y91890D02*
X82867D01*
X75890Y91467D02*
Y92657D01*
X59137Y101840D02*
X65725Y95252D01*
X58113Y97890D02*
X63087D01*
X59890Y93103D02*
Y101087D01*
X61890Y91467D02*
Y99087D01*
X63890Y91467D02*
Y97087D01*
X57890Y92501D02*
Y97835D01*
X51158Y96086D02*
X55148Y100076D01*
X51890Y96818D02*
Y101363D01*
X54065Y94176D02*
X57548Y97659D01*
X65890Y91467D02*
Y95108D01*
X69890Y91467D02*
Y94753D01*
X67890Y91467D02*
Y94753D01*
X55779Y95890D02*
X65087D01*
X49735D02*
X50989D01*
X54065Y91890D02*
X57459D01*
X49735D02*
X50659D01*
X85890Y75800D02*
Y88061D01*
X87890Y75060D02*
Y88061D01*
X81890Y53824D02*
Y88061D01*
X89890Y1597D02*
Y88061D01*
X91890Y1597D02*
Y88061D01*
X83890Y52173D02*
Y88061D01*
X61645Y91467D02*
X83290D01*
X79890Y55116D02*
Y88061D01*
X77890Y54606D02*
Y88061D01*
X75890Y20601D02*
Y88061D01*
X73890Y20601D02*
Y88061D01*
X84517Y52674D02*
Y72026D01*
X93890Y11071D02*
Y88061D01*
X87924Y51968D02*
Y72014D01*
X54065Y71890D02*
X84517D01*
X54065Y69890D02*
X84517D01*
X54065Y73890D02*
X84034D01*
X54065Y65890D02*
X84517D01*
X54065Y67890D02*
X84517D01*
X57890Y20601D02*
Y89388D01*
X55890Y21322D02*
Y96001D01*
X49735Y89890D02*
X50659D01*
X54065D02*
X57515D01*
X49890Y35777D02*
Y102124D01*
X54065Y23146D02*
Y94176D01*
X50659Y35008D02*
Y94882D01*
X65890Y20601D02*
Y88061D01*
X67890Y20601D02*
Y88061D01*
X63890Y20601D02*
Y88061D01*
X71890Y20601D02*
Y88061D01*
X69890Y20601D02*
Y88061D01*
X49735Y83890D02*
X50659D01*
X49735Y81890D02*
X50659D01*
X49735Y85890D02*
X50659D01*
X61890Y20601D02*
Y88061D01*
X59890Y20601D02*
Y88393D01*
X49735Y97890D02*
X52961D01*
X49735Y93890D02*
X50659D01*
X40719Y91890D02*
X46328D01*
X49735Y75591D02*
Y102332D01*
Y87890D02*
X50659D01*
X46328Y76296D02*
Y121239D01*
X40679Y95890D02*
X46328D01*
X40679Y93890D02*
X46328D01*
X40679Y97890D02*
X46328D01*
X40679Y87890D02*
X46328D01*
X40709Y89890D02*
X46328D01*
X49735Y79890D02*
X50659D01*
X49735Y77890D02*
X50659D01*
X45996Y75963D02*
X46328Y76296D01*
X49735Y75890D02*
X50659D01*
X40679Y83890D02*
X46328D01*
X40679Y81890D02*
X46328D01*
X40679Y85890D02*
X46328D01*
X40679Y77890D02*
X46328D01*
X40679Y79890D02*
X46328D01*
X40679Y92599D02*
Y106660D01*
X40703Y92497D02*
X40731Y91431D01*
X37273Y92717D02*
Y106672D01*
X45890Y75891D02*
Y122318D01*
X1597Y95890D02*
X37273D01*
X1597Y93890D02*
X37273D01*
X1597Y97890D02*
X37273D01*
X1597Y91890D02*
X36592D01*
X40703Y89411D02*
X40714Y90303D01*
X1597Y77890D02*
X37273D01*
X1597Y79890D02*
X37273D01*
X40679Y75890D02*
X45888D01*
X1597D02*
X37273D01*
X1597Y87890D02*
X37273D01*
X1597Y85890D02*
X37273D01*
X1597Y89890D02*
X36649D01*
X1597Y81890D02*
X37273D01*
X1597Y83890D02*
X37273D01*
X48739Y73890D02*
X50659D01*
X43890Y73984D02*
Y214939D01*
X48396Y73546D02*
X49236Y74386D01*
X47890Y37777D02*
Y72391D01*
X43890Y39407D02*
Y73260D01*
X40679Y73890D02*
X43876D01*
X37273Y57907D02*
Y89173D01*
X41890Y39407D02*
Y214939D01*
X40679Y57895D02*
Y89300D01*
Y69890D02*
X50659D01*
X40679Y67890D02*
X50659D01*
X47424Y71890D02*
X50659D01*
X40679Y65890D02*
X50659D01*
X45890Y39407D02*
Y71426D01*
X40679Y71890D02*
X44702D01*
X1597Y69890D02*
X37273D01*
X1597Y71890D02*
X37273D01*
X1597Y65890D02*
X37273D01*
X1597Y67890D02*
X37273D01*
X33890Y36114D02*
Y214939D01*
X35890Y38114D02*
Y214939D01*
X27890Y35972D02*
Y214939D01*
X31890Y20904D02*
Y214939D01*
X29890Y20904D02*
Y214939D01*
X15890Y40604D02*
Y214939D01*
X25890Y37972D02*
Y214939D01*
X1597Y1597D02*
Y214939D01*
X3890Y1597D02*
Y214939D01*
X1890Y1597D02*
Y214939D01*
X17890Y40604D02*
Y145209D01*
X19890Y40604D02*
Y143916D01*
X13890Y40604D02*
Y141385D01*
X23890Y39972D02*
Y145349D01*
X21890Y40604D02*
Y143946D01*
X11890Y39509D02*
Y140353D01*
X1597Y73890D02*
X37273D01*
X9890Y37509D02*
Y140353D01*
X7890Y35509D02*
Y140544D01*
X5890Y1597D02*
Y142321D01*
X81848Y53890D02*
X84517D01*
X84185Y52341D02*
X84517Y52674D01*
X54065Y53890D02*
X77207D01*
X54065Y61890D02*
X84517D01*
X54065Y59890D02*
X84517D01*
X54065Y63890D02*
X84517D01*
X54065Y55890D02*
X84517D01*
X54065Y57890D02*
X84517D01*
X86585Y49924D02*
X87425Y50764D01*
X82265Y51890D02*
X83119D01*
X83890Y21059D02*
Y47827D01*
X81890Y20605D02*
Y50900D01*
X80794Y49890D02*
X82052D01*
X54065Y47890D02*
X83619D01*
X54065Y49890D02*
X78261D01*
X56611Y20601D02*
X81869D01*
X77890D02*
Y50118D01*
X40679Y59890D02*
X50659D01*
X40681Y57890D02*
X50659D01*
X40679Y61890D02*
X50659D01*
X41141Y55890D02*
X50659D01*
X54065Y51890D02*
X76790D01*
X40679Y63890D02*
X50659D01*
X37183Y39407D02*
X46260D01*
X39890D02*
Y54294D01*
X37890Y39407D02*
Y54383D01*
X50659Y22441D02*
Y25652D01*
X48897Y23890D02*
X50659D01*
X49777Y35890D02*
X50659D01*
X46260Y39407D02*
X50659Y35008D01*
X46897Y21890D02*
X50751D01*
X47777Y37890D02*
X50659D01*
X46260Y21253D02*
X50659Y25652D01*
X37183Y21253D02*
X46260D01*
X79890Y20601D02*
Y49608D01*
X87890Y1597D02*
Y51631D01*
X85890Y1597D02*
Y48526D01*
X71890Y1597D02*
Y17195D01*
X63890Y1597D02*
Y17195D01*
X65890Y1597D02*
Y17195D01*
X61890Y1597D02*
Y17195D01*
X69890Y1597D02*
Y17195D01*
X67890Y1597D02*
Y17195D01*
X79890Y1597D02*
Y17195D01*
X81890Y1597D02*
Y17187D01*
X77890Y1597D02*
Y17195D01*
X93890Y1597D02*
Y6252D01*
X83890Y1597D02*
Y16736D01*
X40195Y9890D02*
X93277D01*
X40195Y7890D02*
X93159D01*
X55905Y17195D02*
X81857D01*
X75890Y1597D02*
Y17195D01*
X73890Y1597D02*
Y17195D01*
X54065Y23146D02*
X56611Y20601D01*
X51158Y21237D02*
X54701Y17693D01*
X47890Y1597D02*
Y22883D01*
X51890Y1597D02*
Y20505D01*
X49890Y1597D02*
Y24883D01*
X39890Y16072D02*
Y21253D01*
X41890Y1597D02*
Y21253D01*
X37890Y18072D02*
Y21253D01*
X45890Y1597D02*
Y21253D01*
X43890Y1597D02*
Y21253D01*
X55890Y1597D02*
Y17195D01*
X59890Y1597D02*
Y17195D01*
X57890Y1597D02*
Y17195D01*
X38072Y17890D02*
X54505D01*
X40195Y5493D02*
Y15767D01*
X37890Y1597D02*
Y3187D01*
X53890Y1597D02*
Y18505D01*
X39890Y1597D02*
Y5187D01*
X1597Y51890D02*
X50659D01*
X1597Y49890D02*
X50659D01*
X1597Y53890D02*
X50659D01*
X1597Y45890D02*
X50659D01*
X1597Y43890D02*
X50659D01*
X1597Y47890D02*
X50659D01*
X1597Y61890D02*
X37273D01*
X1597Y59890D02*
X37273D01*
X1597Y63890D02*
X37273D01*
X1597Y57890D02*
X37269D01*
X1597Y55890D02*
X36812D01*
X32644Y34868D02*
X37183Y39407D01*
X27972Y35890D02*
X33665D01*
X28395Y33890D02*
X32644D01*
Y25791D02*
Y34868D01*
X28395Y31890D02*
X32644D01*
X1597Y41890D02*
X50659D01*
X23972Y39890D02*
X50659D01*
X25972Y37890D02*
X35665D01*
X25092Y21890D02*
X36546D01*
X27092Y23890D02*
X34546D01*
X12984Y40604D02*
X23258D01*
X28395Y35467D01*
X7847D02*
X12984Y40604D01*
X28395Y25193D02*
Y35467D01*
X7847Y25193D02*
Y35467D01*
X1597Y39890D02*
X12270D01*
X1597Y37890D02*
X10270D01*
X1597Y35890D02*
X8270D01*
X1597Y31890D02*
X7847D01*
X1597Y33890D02*
X7847D01*
X28395Y29890D02*
X32644D01*
X28395Y25890D02*
X32644D01*
X28395Y27890D02*
X32644D01*
X1597D02*
X7847D01*
X1597Y25890D02*
X7847D01*
X1597Y29890D02*
X7847D01*
X1597Y21890D02*
X11150D01*
X1597Y23890D02*
X9150D01*
X32644Y25791D02*
X37183Y21253D01*
X33890Y20904D02*
Y24546D01*
X27890Y20904D02*
Y24687D01*
X35890Y20072D02*
Y22546D01*
X35058Y20904D02*
X40195Y15767D01*
X23258Y20056D02*
X28395Y25193D01*
X24784Y20904D02*
X35058D01*
X25890D02*
Y22687D01*
X19647Y15767D02*
X24784Y20904D01*
X23890Y20009D02*
Y20687D01*
X36072Y19890D02*
X52505D01*
X21890Y18009D02*
Y20056D01*
X36299Y1597D02*
X40195Y5493D01*
X19647D02*
X23543Y1597D01*
X1597Y19890D02*
X23770D01*
X12984Y20056D02*
X23258D01*
X1597Y1597D02*
X23543D01*
X1597Y1890D02*
X23250D01*
X19890Y16009D02*
Y20056D01*
X13890Y1597D02*
Y20056D01*
X17890Y1597D02*
Y20056D01*
X15890Y1597D02*
Y20056D01*
X7847Y25193D02*
X12984Y20056D01*
X1597Y17890D02*
X21770D01*
X7890Y1597D02*
Y25150D01*
X11890Y1597D02*
Y21150D01*
X9890Y1597D02*
Y23150D01*
X19647Y5493D02*
Y15767D01*
X1597Y3890D02*
X21250D01*
X1597Y5890D02*
X19647D01*
X21890Y1597D02*
Y3250D01*
X19890Y1597D02*
Y5250D01*
X1597Y15890D02*
X19770D01*
X1597Y11890D02*
X19647D01*
X1597Y13890D02*
X19647D01*
X1597Y7890D02*
X19647D01*
X1597Y9890D02*
X19647D01*
D16*
X240551Y137008D02*
Y143701D01*
X110236Y51968D02*
X119291D01*
X125197Y57874D02*
Y68504D01*
X119291Y51968D02*
X125197Y57874D01*
D83*
X94095Y100394D02*
X101969D01*
X103512Y100425D02*
X103543Y100394D01*
X101969D02*
X102000Y100425D01*
X103512D01*
D84*
X29921Y10630D02*
D03*
D85*
X41721Y30330D02*
D03*
X18121D02*
D03*
D86*
X188031Y206299D02*
D03*
X178032D02*
D03*
X168032D02*
D03*
X158031D02*
D03*
X148031D02*
D03*
X138031D02*
D03*
X128032D02*
D03*
X118032D02*
D03*
X108031D02*
D03*
X98032D02*
D03*
X229134Y8661D02*
D03*
X219134D02*
D03*
X209134D02*
D03*
X199134D02*
D03*
X189134D02*
D03*
X179134D02*
D03*
X107087D02*
D03*
X117087D02*
D03*
X127087D02*
D03*
X137087D02*
D03*
X147087D02*
D03*
X157087D02*
D03*
X167087D02*
D03*
X259213Y206299D02*
D03*
X249213D02*
D03*
X239213D02*
D03*
X229213D02*
D03*
X219213D02*
D03*
X209213D02*
D03*
X199213D02*
D03*
D88*
X247480Y123543D02*
D03*
X257480D02*
D03*
X247480Y113543D02*
D03*
X257480D02*
D03*
X247480Y103543D02*
D03*
X257480D02*
D03*
D89*
X165748Y126378D02*
D03*
X240551Y137008D02*
D03*
Y143701D02*
D03*
X224803Y137008D02*
D03*
X227953Y65748D02*
D03*
X226378Y84252D02*
D03*
X137402Y119685D02*
D03*
X110236Y51968D02*
D03*
X125197Y68504D02*
D03*
X103543Y100394D02*
D03*
X107087Y85827D02*
D03*
X94095Y100394D02*
D03*
X105905Y56299D02*
D03*
X179921Y157087D02*
D03*
X160236Y151969D02*
D03*
X229528Y81496D02*
D03*
X239764Y125197D02*
D03*
X183465Y119685D02*
D03*
X144882Y63779D02*
D03*
X197638Y68504D02*
D03*
Y87795D02*
D03*
X227953Y88583D02*
D03*
X228740Y109449D02*
D03*
X198819Y91339D02*
D03*
X196457Y116929D02*
D03*
X187008Y118504D02*
D03*
X200000Y104331D02*
D03*
X92126Y163386D02*
D03*
X74803Y116929D02*
D03*
Y155118D02*
D03*
X84252Y50000D02*
D03*
X86221Y73622D02*
D03*
X108661Y186221D02*
D03*
X92126Y157087D02*
D03*
X229921Y133858D02*
D03*
X191732Y104724D02*
D03*
X96850Y86221D02*
D03*
X77559Y94095D02*
D03*
Y98819D02*
D03*
X186614Y91732D02*
D03*
X51575Y103543D02*
D03*
X60630Y112205D02*
D03*
X57480Y106693D02*
D03*
X60236Y117717D02*
D03*
X83465Y18898D02*
D03*
X57480Y100000D02*
D03*
X130315Y75984D02*
D03*
X160236Y133071D02*
D03*
X59449Y90945D02*
D03*
X38976Y56299D02*
D03*
X38583Y90945D02*
D03*
X38976Y108268D02*
D03*
X46063Y73622D02*
D03*
X48031Y122835D02*
D03*
X100000Y189764D02*
D03*
X168110Y69291D02*
D03*
X107480Y79921D02*
D03*
X109843Y189764D02*
D03*
X103150Y196063D02*
D03*
Y126378D02*
D03*
X140157Y196063D02*
D03*
X179921Y122047D02*
D03*
X144882Y175197D02*
D03*
X148031Y198819D02*
D03*
X105905Y182677D02*
D03*
X136221D02*
D03*
X139370Y167323D02*
D03*
X112205Y166929D02*
D03*
X187402Y82284D02*
D03*
X249213Y193701D02*
D03*
X238976Y186614D02*
D03*
D90*
X117323Y56693D02*
D03*
X99606Y18898D02*
D03*
X127165Y16929D02*
D03*
X79528Y52362D02*
D03*
X180315Y70472D02*
D03*
X208805Y85748D02*
D03*
D91*
X240551Y143701D02*
X243551D01*
X240551D02*
Y146701D01*
Y137008D02*
X243551D01*
X240551Y134008D02*
Y137008D01*
X224803Y134008D02*
Y137008D01*
Y140008D01*
X221803Y137008D02*
X224803D01*
X179921Y157087D02*
X182921D01*
X179921Y154087D02*
Y157087D01*
Y160087D01*
X176921Y157087D02*
X179921D01*
X160236Y151969D02*
Y154969D01*
Y148969D02*
Y151969D01*
X157236D02*
X160236D01*
X165748Y126378D02*
X168748D01*
X162748D02*
X165748D01*
X223378Y84252D02*
X226378D01*
X227953Y65748D02*
X230953D01*
X227953Y62748D02*
Y65748D01*
X224953D02*
X227953D01*
X157087Y8661D02*
X161887D01*
X157087D02*
Y13461D01*
Y3861D02*
Y8661D01*
X147087D02*
Y13461D01*
Y3861D02*
Y8661D01*
X142287D02*
X147087D01*
X128032Y206299D02*
Y211099D01*
X123231Y206299D02*
X128032D01*
X132832D01*
X128032Y201499D02*
Y206299D01*
X103543Y100394D02*
X106543D01*
X103543D02*
Y103394D01*
X11236Y171674D02*
Y175052D01*
X9236Y171674D02*
Y175052D01*
X11236Y171674D02*
X14614D01*
X11236Y168296D02*
Y171674D01*
X9236Y168296D02*
Y171674D01*
X5858D02*
X9236D01*
X20836Y168174D02*
X24214D01*
X20836Y167174D02*
X24214D01*
X20836Y148574D02*
X24214D01*
X20836Y168174D02*
Y171552D01*
X17458Y167174D02*
X20836D01*
X17458Y168174D02*
X20836D01*
Y163796D02*
Y167174D01*
Y148574D02*
Y151952D01*
X17458Y148574D02*
X20836D01*
X94095Y100394D02*
Y103394D01*
X91094Y100394D02*
X94095D01*
X20836Y147574D02*
X24214D01*
X17458D02*
X20836D01*
Y144196D02*
Y147574D01*
X11236Y144074D02*
Y147452D01*
X9236Y144074D02*
Y147452D01*
X11236Y144074D02*
X14614D01*
X11236Y140696D02*
Y144074D01*
X5858D02*
X9236D01*
Y140696D02*
Y144074D01*
X125197Y68504D02*
X128197D01*
X122197D02*
X125197D01*
X103543Y97394D02*
Y100394D01*
X94095Y97394D02*
Y100394D01*
X105905Y56299D02*
Y59299D01*
Y56299D02*
X108905D01*
X110236Y51968D02*
Y54969D01*
X102905Y56299D02*
X105905D01*
Y53299D02*
Y56299D01*
X107236Y51968D02*
X110236D01*
Y48968D02*
Y51968D01*
X18121Y30330D02*
Y40204D01*
Y30330D02*
X27995D01*
X8247D02*
X18121D01*
X29921Y10630D02*
Y20504D01*
Y10630D02*
X39795D01*
X20047D02*
X29921D01*
X18121Y20456D02*
Y30330D01*
D92*
X97087Y8661D02*
D03*
X269213Y206299D02*
D03*
M02*
